<?xml version="1.0" encoding="utf-8"?>
<!-- Generator: Adobe Illustrator 15.0.2, SVG Export Plug-In  -->
<!DOCTYPE svg PUBLIC "-//W3C//DTD SVG 1.1//EN" "http://www.w3.org/Graphics/SVG/1.1/DTD/svg11.dtd" [
	<!ENTITY ns_flows "http://ns.adobe.com/Flows/1.0/">
]>
<svg version="1.1"
	 xmlns="http://www.w3.org/2000/svg" xmlns:xlink="http://www.w3.org/1999/xlink" xmlns:a="http://ns.adobe.com/AdobeSVGViewerExtensions/3.0/"
	 x="0px" y="0px" width="120px" height="120px" viewBox="-8.479 -6.883 120 120" enable-background="new -8.479 -6.883 120 120"
	 xml:space="preserve">
<defs>
</defs>
<path fill-rule="evenodd" clip-rule="evenodd" fill="#C6C6C6" d="M65.449,89.063l-3.613-2.082c0.107-0.625,0.191-1.268,0.191-1.932
	c0-0.666-0.084-1.305-0.201-1.932l3.623-2.086c1.689-0.986,2.266-3.16,1.295-4.84c-0.978-1.703-3.145-2.285-4.842-1.307
	l-3.651,2.109c-0.978-0.832-2.082-1.482-3.312-1.928v-4.195c0-1.961-1.594-3.549-3.551-3.549s-3.547,1.588-3.547,3.549v4.191
	c-1.23,0.438-2.337,1.1-3.316,1.932l-3.643-2.109c-1.701-0.979-3.872-0.4-4.851,1.301c-0.979,1.691-0.389,3.867,1.305,4.846
	l3.604,2.082c-0.116,0.631-0.192,1.27-0.192,1.936c0,0.664,0.076,1.307,0.192,1.932l-3.604,2.082
	c-1.698,0.979-2.283,3.164-1.305,4.855c0.979,1.695,3.149,2.271,4.843,1.293l3.646-2.094c0.979,0.826,2.088,1.48,3.32,1.918v4.205
	c0,1.955,1.59,3.537,3.547,3.537s3.551-1.582,3.551-3.537v-4.205c1.229-0.438,2.346-1.092,3.316-1.934l3.646,2.109
	c1.697,0.979,3.864,0.402,4.842-1.293C67.725,92.227,67.146,90.055,65.449,89.063z M51.389,88.6c-1.957,0-3.551-1.594-3.551-3.551
	c0-1.959,1.594-3.541,3.551-3.541s3.546,1.582,3.546,3.541C54.935,87.006,53.346,88.6,51.389,88.6z"/>
<path fill-rule="evenodd" clip-rule="evenodd" fill="#C6C6C6" d="M95.182,79.541l-2.426-0.645c-0.058-0.77-0.241-1.502-0.58-2.203
	l1.762-1.762c0.827-0.826,0.822-2.166,0-2.98c-0.82-0.824-2.15-0.83-2.979,0l-1.764,1.756c-0.695-0.324-1.436-0.516-2.201-0.574
	l-0.645-2.426c-0.301-1.117-1.455-1.791-2.583-1.49c-1.125,0.307-1.782,1.457-1.489,2.584l0.644,2.387
	c-0.317,0.217-0.618,0.461-0.903,0.736c-0.275,0.285-0.51,0.588-0.729,0.896l-2.387-0.646c-1.125-0.299-2.287,0.379-2.59,1.492
	c-0.301,1.131,0.377,2.279,1.488,2.586l2.41,0.648c0.067,0.758,0.26,1.498,0.598,2.201l-1.769,1.77
	c-0.819,0.822-0.815,2.154,0.009,2.973c0.819,0.818,2.149,0.826,2.969,0.008l1.773-1.773c0.693,0.342,1.438,0.535,2.207,0.592
	l0.637,2.418c0.309,1.123,1.455,1.791,2.584,1.49c1.121-0.301,1.799-1.455,1.498-2.592l-0.645-2.389
	c0.301-0.215,0.611-0.451,0.895-0.727c0.277-0.281,0.511-0.59,0.729-0.902l2.393,0.646c1.124,0.301,2.283-0.373,2.579-1.49
	C96.969,81.004,96.303,79.852,95.182,79.541z M87.985,80.883c-0.827,0.83-2.162,0.824-2.985,0c-0.816-0.814-0.824-2.154,0-2.98
	c0.823-0.82,2.162-0.82,2.985,0C88.801,78.725,88.801,80.068,87.985,80.883z"/>
<path fill-rule="evenodd" clip-rule="evenodd" fill="#C6C6C6" d="M23.875,68.752l-2.384,0.639c-0.222-0.301-0.451-0.607-0.731-0.893
	c-0.284-0.273-0.586-0.512-0.9-0.727l0.641-2.395c0.301-1.127-0.367-2.283-1.48-2.582c-1.129-0.301-2.283,0.369-2.584,1.488
	l-0.653,2.424c-0.765,0.061-1.497,0.252-2.194,0.578l-1.77-1.758c-0.828-0.828-2.158-0.824-2.979,0c-0.824,0.824-0.824,2.158,0,2.98
	l1.762,1.762c-0.33,0.703-0.523,1.441-0.582,2.207l-2.416,0.641c-1.13,0.311-1.799,1.457-1.498,2.584
	c0.305,1.123,1.459,1.781,2.59,1.488l2.383-0.646c0.214,0.322,0.451,0.623,0.74,0.904c0.275,0.275,0.576,0.521,0.891,0.727
	l-0.64,2.389c-0.302,1.127,0.368,2.291,1.489,2.592c1.129,0.299,2.275-0.367,2.575-1.492l0.652-2.41
	c0.767-0.063,1.505-0.254,2.208-0.59l1.766,1.764c0.82,0.828,2.149,0.813,2.978-0.008c0.814-0.814,0.828-2.146,0-2.971l-1.77-1.771
	c0.339-0.693,0.54-1.441,0.59-2.207l2.422-0.641c1.116-0.307,1.785-1.453,1.483-2.584C26.162,69.127,25.009,68.457,23.875,68.752z
	 M17.777,74.467c-0.824,0.82-2.157,0.82-2.985,0c-0.815-0.822-0.815-2.166,0-2.982c0.828-0.818,2.161-0.818,2.985,0
	C18.602,72.307,18.594,73.645,17.777,74.467z"/>
<path fill-rule="evenodd" clip-rule="evenodd" fill="#C6C6C6" d="M102.777,35.33c0-12.396-10.088-22.484-22.482-22.484
	c-1.066,0-2.121,0.076-3.17,0.227C71.128,4.902,61.664,0,51.389,0S31.654,4.902,25.652,13.072c-1.05-0.15-2.104-0.227-3.17-0.227
	C10.087,12.846,0,22.934,0,35.33c0,12.395,10.087,22.482,22.482,22.482c2.748,0,5.438-0.506,7.971-1.473
	c5.813,5.068,13.207,7.895,20.936,7.895c7.736,0,15.122-2.826,20.935-7.895c2.535,0.967,5.224,1.473,7.972,1.473
	C92.689,57.813,102.777,47.725,102.777,35.33z M71.074,48.443c-4.715,5.68-11.73,9.369-19.686,9.369
	c-7.954,0-14.972-3.689-19.686-9.369c-2.609,1.842-5.783,2.945-9.221,2.945c-8.87,0-16.059-7.189-16.059-16.059
	S13.612,19.27,22.482,19.27c2.171,0,4.228,0.443,6.109,1.221C32.854,12.178,41.41,6.424,51.389,6.424s18.535,5.754,22.792,14.066
	c1.886-0.777,3.948-1.221,6.114-1.221c8.869,0,16.059,7.191,16.059,16.061s-7.189,16.059-16.059,16.059
	C76.857,51.389,73.688,50.285,71.074,48.443z"/>
</svg>
