<?xml version="1.0" encoding="utf-8"?>
<!-- Generator: Adobe Illustrator 15.0.2, SVG Export Plug-In  -->
<!DOCTYPE svg PUBLIC "-//W3C//DTD SVG 1.1//EN" "http://www.w3.org/Graphics/SVG/1.1/DTD/svg11.dtd" [
	<!ENTITY ns_flows "http://ns.adobe.com/Flows/1.0/">
]>
<svg version="1.1"
	 xmlns="http://www.w3.org/2000/svg" xmlns:xlink="http://www.w3.org/1999/xlink" xmlns:a="http://ns.adobe.com/AdobeSVGViewerExtensions/3.0/"
	 x="0px" y="0px" width="120px" height="120px" viewBox="-10 12.879 120 120" enable-background="new -10 12.879 120 120"
	 xml:space="preserve">
<defs>
</defs>
<text transform="matrix(1 0 0 1 14.2002 10.8809)" font-family="'MyriadPro-Regular'" font-size="13">chanceflurries</text>
<path fill-rule="evenodd" clip-rule="evenodd" fill="#C6C6C6" d="M64.316,99.708l-3.551-2.047c0.107-0.616,0.189-1.245,0.189-1.898
	s-0.082-1.282-0.197-1.899l3.559-2.05c1.661-0.97,2.228-3.103,1.274-4.756c-0.962-1.673-3.091-2.243-4.759-1.282l-3.588,2.071
	c-0.962-0.816-2.047-1.458-3.255-1.894V81.83c0-1.927-1.565-3.488-3.489-3.488c-1.923,0-3.485,1.562-3.485,3.488v4.119
	c-1.208,0.431-2.297,1.081-3.259,1.897l-3.579-2.071c-1.673-0.961-3.806-0.395-4.768,1.278c-0.962,1.661-0.383,3.798,1.282,4.76
	l3.543,2.046c-0.115,0.621-0.189,1.25-0.189,1.903s0.074,1.282,0.189,1.898l-3.543,2.047c-1.669,0.961-2.244,3.107-1.282,4.771
	s3.095,2.231,4.759,1.27l3.584-2.059c0.962,0.813,2.051,1.454,3.263,1.887v4.13c0,1.923,1.563,3.477,3.485,3.477
	c1.924,0,3.489-1.554,3.489-3.477v-4.13c1.208-0.433,2.306-1.073,3.259-1.899l3.584,2.071c1.668,0.962,3.797,0.395,4.759-1.27
	S65.985,100.682,64.316,99.708z M50.5,99.252c-1.923,0-3.489-1.565-3.489-3.489c0-1.923,1.566-3.481,3.489-3.481
	c1.924,0,3.485,1.559,3.485,3.481C53.985,97.687,52.424,99.252,50.5,99.252z"/>
<path fill-rule="evenodd" clip-rule="evenodd" fill="#C6C6C6" d="M78.906,43.746c-1.048,0-2.083,0.074-3.115,0.222
	C69.897,35.938,60.598,31.121,50.5,31.121s-19.394,4.817-25.291,12.847c-1.032-0.147-2.067-0.222-3.115-0.222
	C9.913,43.746,0,53.658,0,65.84s9.913,22.094,22.094,22.094c2.33,0,4.603-0.436,6.794-1.15c0.209-1.004,0.538-1.981,1.06-2.89
	c0.777-1.352,1.887-2.429,3.156-3.255c-0.653-0.637-1.368-1.203-1.947-1.911c-2.564,1.809-5.685,2.894-9.063,2.894
	c-8.717,0-15.781-7.064-15.781-15.781s7.064-15.781,15.781-15.781c2.133,0,4.154,0.436,6.005,1.199
	c4.188-8.169,12.596-13.824,22.401-13.824s18.214,5.655,22.397,13.824c1.854-0.764,3.88-1.199,6.009-1.199
	c8.717,0,15.781,7.064,15.781,15.781s-7.064,15.781-15.781,15.781c-3.378,0-6.493-1.085-9.063-2.894
	c-0.579,0.708-1.302,1.274-1.951,1.911c1.273,0.83,2.392,1.911,3.164,3.268c0.535,0.916,0.858,1.891,1.068,2.877
	c2.183,0.715,4.451,1.15,6.781,1.15C91.088,87.934,101,78.021,101,65.84S91.088,43.746,78.906,43.746z"/>
</svg>
