<?xml version="1.0" encoding="utf-8"?>
<!-- Generator: Adobe Illustrator 15.0.2, SVG Export Plug-In  -->
<!DOCTYPE svg PUBLIC "-//W3C//DTD SVG 1.1//EN" "http://www.w3.org/Graphics/SVG/1.1/DTD/svg11.dtd" [
	<!ENTITY ns_flows "http://ns.adobe.com/Flows/1.0/">
]>
<svg version="1.1"
	 xmlns="http://www.w3.org/2000/svg" xmlns:xlink="http://www.w3.org/1999/xlink" xmlns:a="http://ns.adobe.com/AdobeSVGViewerExtensions/3.0/"
	 x="0px" y="0px" width="120px" height="120px" viewBox="-13.268 -14.461 120 120" enable-background="new -13.268 -14.461 120 120"
	 xml:space="preserve">
<defs>
</defs>
<path fill-rule="evenodd" clip-rule="evenodd" fill="#C6C6C6" d="M62.406,84.925l-3.445-1.986c0.104-0.598,0.184-1.208,0.184-1.842
	c0-0.635-0.08-1.244-0.191-1.843l3.453-1.989c1.611-0.942,2.162-3.011,1.236-4.614c-0.933-1.623-2.999-2.177-4.618-1.244
	l-3.481,2.01c-0.933-0.794-1.985-1.415-3.158-1.838v-4c0-1.869-1.519-3.386-3.385-3.386s-3.381,1.517-3.381,3.386v3.996
	c-1.173,0.419-2.229,1.048-3.162,1.842l-3.474-2.01c-1.623-0.933-3.693-0.383-4.625,1.24c-0.933,1.611-0.371,3.686,1.244,4.618
	l3.438,1.985c-0.112,0.603-0.184,1.212-0.184,1.847c0,0.634,0.071,1.244,0.184,1.842l-3.438,1.986
	c-1.619,0.933-2.177,3.015-1.244,4.629c0.933,1.615,3.002,2.166,4.618,1.232l3.477-1.998c0.933,0.79,1.989,1.413,3.166,1.831v4.007
	C45.619,96.493,47.134,98,49,98s3.385-1.507,3.385-3.374v-4.007c1.173-0.418,2.237-1.041,3.162-1.843l3.477,2.01
	c1.62,0.934,3.686,0.383,4.618-1.232C64.575,87.939,64.025,85.87,62.406,84.925z M49,84.481c-1.866,0-3.385-1.519-3.385-3.385
	s1.519-3.378,3.385-3.378s3.381,1.512,3.381,3.378S50.866,84.481,49,84.481z"/>
<path fill-rule="evenodd" clip-rule="evenodd" fill="#C6C6C6" d="M76.563,12.25c-1.017,0-2.022,0.071-3.023,0.216
	C67.822,4.673,58.797,0,49,0S30.182,4.673,24.46,12.466c-1.001-0.145-2.006-0.216-3.023-0.216C9.618,12.25,0,21.869,0,33.688
	s9.618,21.438,21.438,21.438c2.62,0,5.184-0.479,7.6-1.403C34.581,58.555,41.631,61.25,49,61.25c7.377,0,14.419-2.695,19.962-7.528
	c2.416,0.925,4.98,1.403,7.6,1.403C88.382,55.125,98,45.506,98,33.688S88.382,12.25,76.563,12.25z M76.563,49
	c-3.278,0-6.3-1.053-8.792-2.808c-4.494,5.416-11.185,8.933-18.77,8.933s-14.276-3.517-18.77-8.933
	C27.742,47.947,24.716,49,21.438,49C12.98,49,6.125,42.146,6.125,33.688s6.855-15.313,15.313-15.313c2.07,0,4.032,0.422,5.826,1.164
	C31.327,11.612,39.486,6.125,49,6.125s17.673,5.487,21.732,13.414c1.798-0.742,3.764-1.164,5.83-1.164
	c8.458,0,15.313,6.854,15.313,15.313S85.02,49,76.563,49z"/>
</svg>
