<?xml version="1.0" encoding="utf-8"?>
<!-- Generator: Adobe Illustrator 15.0.2, SVG Export Plug-In  -->
<!DOCTYPE svg PUBLIC "-//W3C//DTD SVG 1.1//EN" "http://www.w3.org/Graphics/SVG/1.1/DTD/svg11.dtd" [
	<!ENTITY ns_flows "http://ns.adobe.com/Flows/1.0/">
]>
<svg version="1.1"
	 xmlns="http://www.w3.org/2000/svg" xmlns:xlink="http://www.w3.org/1999/xlink" xmlns:a="http://ns.adobe.com/AdobeSVGViewerExtensions/3.0/"
	 x="0px" y="0px" width="120px" height="120px" viewBox="-10.613 -9.459 120 120" enable-background="new -10.613 -9.459 120 120"
	 xml:space="preserve">
<defs>
</defs>
<path fill="#C6C6C6" d="M40.126,12.347c1.704,0,3.088-1.383,3.088-3.087V3.086C43.214,1.383,41.83,0,40.126,0
	c-1.702,0-3.086,1.383-3.086,3.086V9.26C37.04,10.964,38.424,12.347,40.126,12.347z"/>
<path fill="#C6C6C6" d="M64.135,20.482l4.364-4.365c1.206-1.207,1.206-3.159,0-4.365s-3.16-1.206-4.364,0l-4.366,4.365
	c-1.204,1.205-1.204,3.159,0,4.365C60.975,21.688,62.929,21.688,64.135,20.482z"/>
<path fill="#C6C6C6" d="M3.086,43.215h6.172c1.705,0,3.087-1.384,3.087-3.088c0-1.703-1.382-3.086-3.087-3.086H3.086
	C1.382,37.041,0,38.424,0,40.127C0,41.831,1.382,43.215,3.086,43.215z"/>
<path fill="#C6C6C6" d="M67.907,40.127c0,1.704,1.384,3.088,3.088,3.088h6.174c1.704,0,3.086-1.384,3.086-3.088
	c0-1.703-1.382-3.086-3.086-3.086h-6.174C69.291,37.041,67.907,38.424,67.907,40.127z"/>
<path fill="#C6C6C6" d="M16.118,20.482c1.204,1.206,3.156,1.206,4.364,0c1.205-1.206,1.205-3.16,0-4.365l-4.364-4.365
	c-1.208-1.206-3.16-1.206-4.367,0c-1.206,1.206-1.206,3.158,0,4.365L16.118,20.482z"/>
<path fill="#C6C6C6" d="M77.169,49.389c-1.024,0-2.038,0.071-3.047,0.217c-3.235-4.413-7.549-7.781-12.436-9.936
	c-0.251-11.695-9.804-21.149-21.561-21.149c-11.912,0-21.606,9.694-21.606,21.606c0,3.365,0.836,6.512,2.219,9.346
	C9.233,49.943,0,59.385,0,70.996C0,82.91,9.692,92.604,21.606,92.604c2.642,0,5.224-0.482,7.66-1.415
	c5.589,4.871,12.693,7.589,20.12,7.589c7.438,0,14.533-2.718,20.121-7.589c2.437,0.933,5.021,1.415,7.661,1.415
	c11.912,0,21.607-9.693,21.607-21.607C98.776,59.083,89.081,49.389,77.169,49.389z M40.126,24.693
	c7.683,0,14.001,5.628,15.185,12.975c-1.932-0.386-3.905-0.627-5.924-0.627c-8.862,0-17.073,3.822-22.838,10.273
	c-1.145-2.154-1.857-4.574-1.857-7.188C24.691,31.604,31.603,24.693,40.126,24.693z M77.169,86.43c-3.306,0-6.351-1.062-8.863-2.829
	c-4.529,5.458-11.273,9.003-18.919,9.003c-7.644,0-14.389-3.545-18.918-9.003c-2.508,1.768-5.558,2.829-8.862,2.829
	c-8.526,0-15.433-6.908-15.433-15.434c0-8.524,6.906-15.435,15.433-15.435c1.494,0,2.905,0.282,4.27,0.684
	c0.542,0.152,1.093,0.272,1.602,0.487c0.845-1.652,1.907-3.165,3.082-4.582c4.511-5.428,11.219-8.936,18.827-8.936
	c1.953,0,3.826,0.281,5.645,0.715c2.037,0.482,3.962,1.214,5.755,2.179c4.493,2.388,8.184,6.085,10.507,10.624
	c1.812-0.748,3.792-1.171,5.876-1.171c8.524,0,15.433,6.91,15.433,15.435C92.602,79.521,85.693,86.43,77.169,86.43z"/>
</svg>
