<?xml version="1.0" encoding="utf-8"?>
<!-- Generator: Adobe Illustrator 15.0.2, SVG Export Plug-In  -->
<!DOCTYPE svg PUBLIC "-//W3C//DTD SVG 1.1//EN" "http://www.w3.org/Graphics/SVG/1.1/DTD/svg11.dtd" [
	<!ENTITY ns_flows "http://ns.adobe.com/Flows/1.0/">
]>
<svg version="1.1"
	 xmlns="http://www.w3.org/2000/svg" xmlns:xlink="http://www.w3.org/1999/xlink" xmlns:a="http://ns.adobe.com/AdobeSVGViewerExtensions/3.0/"
	 x="0px" y="0px" width="120px" height="120px" viewBox="-12 -9 120 120" enable-background="new -12 -9 120 120"
	 xml:space="preserve">
<defs>
</defs>
<path fill-rule="evenodd" clip-rule="evenodd" fill="#C6C6C6" d="M63.68,86.658l-3.516-2.027c0.106-0.609,0.188-1.232,0.188-1.879
	c0-0.647-0.081-1.27-0.195-1.881l3.523-2.03c1.645-0.96,2.206-3.071,1.262-4.708c-0.952-1.655-3.06-2.221-4.712-1.27l-3.552,2.051
	c-0.953-0.81-2.027-1.444-3.223-1.875v-4.082c0-1.908-1.551-3.454-3.455-3.454s-3.45,1.546-3.45,3.454v4.078
	c-1.196,0.427-2.274,1.069-3.228,1.879l-3.544-2.051c-1.655-0.951-3.768-0.391-4.72,1.266c-0.952,1.645-0.379,3.76,1.27,4.712
	l3.508,2.026c-0.114,0.615-0.188,1.237-0.188,1.885c0,0.646,0.073,1.27,0.188,1.879l-3.508,2.027
	c-1.652,0.951-2.222,3.076-1.27,4.724s3.064,2.21,4.712,1.257l3.548-2.038c0.952,0.806,2.031,1.44,3.231,1.868v4.089
	c0,1.904,1.546,3.442,3.45,3.442s3.455-1.538,3.455-3.442v-4.089c1.195-0.428,2.282-1.063,3.227-1.881l3.548,2.051
	c1.652,0.953,3.76,0.391,4.712-1.257S65.332,87.622,63.68,86.658z M50,86.206c-1.904,0-3.455-1.55-3.455-3.454
	s1.551-3.447,3.455-3.447s3.45,1.543,3.45,3.447S51.904,86.206,50,86.206z"/>
<path fill-rule="evenodd" clip-rule="evenodd" fill="#C6C6C6" d="M92.61,77.393l-2.359-0.627c-0.058-0.748-0.236-1.461-0.565-2.145
	l1.713-1.713c0.806-0.806,0.801-2.107,0-2.9c-0.798-0.802-2.092-0.807-2.897,0l-1.717,1.709c-0.676-0.318-1.396-0.501-2.141-0.563
	l-0.627-2.355c-0.293-1.091-1.416-1.746-2.515-1.453c-1.094,0.298-1.733,1.421-1.448,2.516l0.627,2.323
	c-0.31,0.211-0.603,0.447-0.879,0.716c-0.269,0.276-0.497,0.569-0.708,0.871l-2.324-0.627c-1.094-0.293-2.226,0.366-2.519,1.453
	c-0.293,1.098,0.366,2.217,1.449,2.514l2.344,0.631c0.064,0.736,0.252,1.457,0.581,2.141l-1.721,1.721
	c-0.798,0.802-0.793,2.096,0.008,2.894c0.798,0.798,2.092,0.806,2.89,0.008l1.725-1.725c0.676,0.333,1.4,0.521,2.148,0.577
	l0.619,2.348c0.301,1.095,1.416,1.746,2.515,1.453c1.09-0.293,1.749-1.416,1.456-2.522l-0.626-2.323
	c0.293-0.208,0.594-0.439,0.87-0.709c0.269-0.272,0.497-0.573,0.708-0.874l2.328,0.626c1.094,0.293,2.222-0.361,2.51-1.448
	C94.348,78.816,93.701,77.693,92.61,77.393z M85.607,78.699c-0.805,0.805-2.104,0.801-2.904,0c-0.794-0.794-0.802-2.096,0-2.901
	c0.801-0.798,2.104-0.798,2.904,0C86.401,76.6,86.401,77.905,85.607,78.699z"/>
<path fill-rule="evenodd" clip-rule="evenodd" fill="#C6C6C6" d="M23.23,66.895l-2.32,0.623c-0.215-0.293-0.439-0.591-0.712-0.867
	c-0.276-0.269-0.569-0.5-0.874-0.708l0.622-2.331c0.293-1.095-0.358-2.223-1.44-2.511c-1.099-0.293-2.222,0.357-2.515,1.448
	l-0.635,2.355c-0.745,0.062-1.457,0.244-2.136,0.566l-1.722-1.713c-0.806-0.807-2.1-0.802-2.897,0c-0.801,0.801-0.801,2.1,0,2.9
	l1.713,1.713c-0.321,0.684-0.508,1.404-0.565,2.145l-2.352,0.627c-1.099,0.301-1.75,1.416-1.457,2.515
	c0.298,1.091,1.421,1.733,2.519,1.448l2.32-0.631c0.207,0.313,0.439,0.606,0.72,0.879c0.269,0.27,0.562,0.509,0.866,0.709
	l-0.622,2.323c-0.293,1.099,0.358,2.229,1.448,2.522c1.099,0.293,2.214-0.358,2.507-1.453l0.635-2.344
	c0.745-0.061,1.465-0.248,2.148-0.573l1.717,1.717c0.798,0.806,2.092,0.79,2.897-0.008c0.793-0.794,0.806-2.092,0-2.894
	l-1.721-1.721c0.329-0.676,0.524-1.404,0.573-2.148l2.356-0.623c1.086-0.297,1.737-1.416,1.444-2.514
	C25.456,67.261,24.333,66.609,23.23,66.895z M17.297,72.453c-0.801,0.801-2.1,0.801-2.904,0c-0.794-0.798-0.794-2.104,0-2.897
	c0.805-0.798,2.104-0.798,2.904,0C18.099,70.354,18.091,71.655,17.297,72.453z"/>
<path fill-rule="evenodd" clip-rule="evenodd" fill="#C6C6C6" d="M100,34.375C100,22.314,90.186,12.5,78.125,12.5
	c-1.037,0-2.063,0.073-3.084,0.22C69.206,4.769,59.998,0,50,0S30.799,4.769,24.959,12.72c-1.021-0.146-2.047-0.22-3.084-0.22
	C9.814,12.5,0,22.314,0,34.375S9.814,56.25,21.875,56.25c2.674,0,5.29-0.488,7.756-1.433C35.286,59.749,42.48,62.5,50,62.5
	c7.527,0,14.714-2.751,20.369-7.683c2.466,0.944,5.082,1.433,7.756,1.433C90.186,56.25,100,46.436,100,34.375z"/>
</svg>
