<?xml version="1.0" encoding="utf-8"?>
<!-- Generator: Adobe Illustrator 15.0.2, SVG Export Plug-In  -->
<!DOCTYPE svg PUBLIC "-//W3C//DTD SVG 1.1//EN" "http://www.w3.org/Graphics/SVG/1.1/DTD/svg11.dtd" [
	<!ENTITY ns_flows "http://ns.adobe.com/Flows/1.0/">
]>
<svg version="1.1"
	 xmlns="http://www.w3.org/2000/svg" xmlns:xlink="http://www.w3.org/1999/xlink" xmlns:a="http://ns.adobe.com/AdobeSVGViewerExtensions/3.0/"
	 x="0px" y="0px" width="120px" height="120px" viewBox="-8.91 -10.32 120 120" enable-background="new -8.91 -10.32 120 120"
	 xml:space="preserve">
<defs>
</defs>
<path fill-rule="evenodd" clip-rule="evenodd" fill="#C6C6C6" d="M80.294,12.848c-1.067,0-2.121,0.074-3.171,0.227
	C71.128,4.9,61.663,0,51.388,0S31.653,4.9,25.653,13.074c-1.052-0.152-2.105-0.227-3.171-0.227C10.086,12.848,0,22.934,0,35.33
	c0,12.395,10.086,22.48,22.482,22.48c2.746,0,5.438-0.5,7.97-1.471c4.326,3.768,9.52,6.283,15.076,7.332l-6.986,6.984l6.421,6.426
	l-6.421,19.27l19.269-19.27l-6.423-6.426l2.209-6.621c6.916-0.492,13.474-3.119,18.726-7.695c2.534,0.971,5.225,1.471,7.972,1.471
	c12.396,0,22.482-10.086,22.482-22.48C102.776,22.934,92.689,12.848,80.294,12.848z"/>
</svg>
