<?xml version="1.0" encoding="utf-8"?>
<!-- Generator: Adobe Illustrator 15.0.2, SVG Export Plug-In  -->
<!DOCTYPE svg PUBLIC "-//W3C//DTD SVG 1.1//EN" "http://www.w3.org/Graphics/SVG/1.1/DTD/svg11.dtd" [
	<!ENTITY ns_flows "http://ns.adobe.com/Flows/1.0/">
]>
<svg version="1.1"
	 xmlns="http://www.w3.org/2000/svg" xmlns:xlink="http://www.w3.org/1999/xlink" xmlns:a="http://ns.adobe.com/AdobeSVGViewerExtensions/3.0/"
	 x="0px" y="0px" width="120px" height="120px" viewBox="-8.611 13.117 120 120" enable-background="new -8.611 13.117 120 120"
	 xml:space="preserve">
<defs>
</defs>
<path fill="#C6C6C6" d="M80.295,34.15c-1.066,0-2.12,0.076-3.17,0.227c-5.996-8.17-15.461-13.072-25.736-13.072
	s-19.734,4.902-25.735,13.072c-1.05-0.15-2.104-0.227-3.17-0.227C10.088,34.15,0,44.238,0,56.635
	c0,12.395,10.088,22.482,22.483,22.482c2.747,0,5.437-0.506,7.971-1.473c5.813,5.068,13.206,7.895,20.935,7.895
	c7.738,0,15.123-2.826,20.936-7.895c2.535,0.967,5.225,1.473,7.971,1.473c12.396,0,22.482-10.088,22.482-22.482
	C102.777,44.238,92.69,34.15,80.295,34.15z M80.295,72.693c-1.948,0-3.855-0.354-5.672-1.049l-3.612-1.387l-2.909,2.543
	c-4.668,4.074-10.602,6.316-16.713,6.316c-6.109,0-12.043-2.242-16.711-6.316l-2.911-2.543l-3.612,1.387
	c-1.807,0.695-3.723,1.049-5.671,1.049c-8.858,0-16.06-7.207-16.06-16.059c0-8.855,7.201-16.061,16.06-16.061
	c0.761,0,1.505,0.057,2.258,0.16l3.806,0.551l2.279-3.104c4.881-6.645,12.374-10.453,20.563-10.453
	c8.193,0,15.684,3.805,20.559,10.449l2.284,3.107l3.814-0.551c0.744-0.104,1.488-0.16,2.249-0.16c8.857,0,16.06,7.205,16.06,16.061
	C96.354,65.486,89.152,72.693,80.295,72.693z"/>
<path fill="#C6C6C6" d="M19.271,85.539c-3.55,0-6.423,2.873-6.423,6.424c0,3.553,2.873,6.424,6.423,6.424
	c3.552,0,6.425-2.871,6.425-6.424C25.695,88.412,22.822,85.539,19.271,85.539z"/>
<path fill="#C6C6C6" d="M51.389,91.963c-3.551,0-6.423,2.873-6.423,6.424c0,3.553,2.872,6.422,6.423,6.422s6.424-2.869,6.424-6.422
	C57.813,94.836,54.939,91.963,51.389,91.963z"/>
<path fill="#C6C6C6" d="M83.506,85.539c-3.549,0-6.422,2.873-6.422,6.424c0,3.553,2.873,6.424,6.422,6.424
	c3.551,0,6.426-2.871,6.426-6.424C89.932,88.412,87.057,85.539,83.506,85.539z"/>
<path fill="#C6C6C6" d="M70.66,111.232c-3.551,0-6.424,2.873-6.424,6.426c0,3.551,2.873,6.424,6.424,6.424s6.424-2.873,6.424-6.424
	C77.084,114.105,74.211,111.232,70.66,111.232z"/>
<path fill="#C6C6C6" d="M32.118,111.232c-3.55,0-6.423,2.873-6.423,6.426c0,3.551,2.873,6.424,6.423,6.424s6.425-2.873,6.425-6.424
	C38.543,114.105,35.668,111.232,32.118,111.232z"/>
<text transform="matrix(1 0 0 1 41.0469 10.8809)" font-family="'MyriadPro-Regular'" font-size="13">sleet</text>
</svg>
