<?xml version="1.0" encoding="utf-8"?>
<!-- Generator: Adobe Illustrator 15.1.0, SVG Export Plug-In . SVG Version: 6.00 Build 0)  -->
<!DOCTYPE svg PUBLIC "-//W3C//DTD SVG 1.1//EN" "http://www.w3.org/Graphics/SVG/1.1/DTD/svg11.dtd">
<svg version="1.1" id="Layer_1" xmlns="http://www.w3.org/2000/svg" xmlns:xlink="http://www.w3.org/1999/xlink" x="0px" y="0px"
	 width="1661.205px" height="60px" viewBox="0 0 1661.205 60" enable-background="new 0 0 1661.205 60" xml:space="preserve">
<g>
	<path fill="#FDC010" d="M62.099,2.6v1.099c-0.233,0.074-2.309,0.182-3.256,0.331c-2.118,0.366-2.746,1.608-2.903,4.182
		c-0.157,2.348-0.157,4.405-0.157,15.562v7.86c0,8.147-0.863,16.812-7.463,22.098c-5.574,4.479-11.23,5.286-16.336,5.286
		c-4.168,0-11.706-0.222-17.44-5.067c-4.006-3.374-6.995-8.809-6.995-19.452V23.773c0-11.156,0-13.213-0.154-15.562
		C7.238,5.717,6.609,4.539,4.018,4.029C3.389,3.88,0.226,3.769,0,3.682V2.6h23.702v1.127c-0.2,0.057-2.089,0.153-3.033,0.302
		c-2.122,0.366-2.749,1.608-2.906,4.182c-0.155,2.348-0.155,4.405-0.155,15.562v10.284c0,10.641,2.276,15.122,6.128,18.062
		c3.535,2.712,7.148,3.005,9.818,3.005c3.456,0,7.697-1.029,10.838-3.96c4.323-4.04,4.558-10.648,4.558-18.208v-9.182
		c0-11.156,0-13.213-0.156-15.562c-0.159-2.495-0.785-3.673-3.378-4.182c-0.631-0.149-3.239-0.232-3.407-0.257V2.6H62.099z"/>
	<path fill="#FDC010" d="M99.668,9.876v1.021c0.445,0.074,3.643,0.11,4.666,0.494c1.645,0.638,2.256,1.849,2.323,5.745l0.047,28.138
		L68.833,8.776h-1.777v39.963c-0.066,5.549-0.632,7.407-2.408,7.916c-0.955,0.255-4.159,0.349-4.159,0.349v1.08h18.912v-1.108
		c0,0-3.549-0.065-4.709-0.45c-1.369-0.448-2.23-2.107-2.364-7.085V23.159c4.943,5.027,37.475,35.972,37.475,35.972h2.265
		l0.054-42.504c0.067-3.576,0.615-4.918,2.527-5.43c0.821-0.19,2.684-0.227,3.269-0.3V9.876H99.668z"/>
	<path fill="#FDC010" d="M218.441,48.319c-0.506,1.841-1.316,4.9-3.678,5.781c-1.816,0.674-4.649,0.767-6.423,0.767
		c-6.97,0-8.063-0.958-8.199-5.362c-0.064-1.854,0-7.726,0-9.895v-5.041c0-0.386,0.07-0.643,0.413-0.643
		c1.638,0,8.403,0.064,9.696,0.191c2.534,0.256,3.489,1.215,3.831,2.489c0.206,0.831,0.206,1.656,0.27,2.3
		c0,0.04,0,0.077,0.005,0.57h0.948l1.133-10.72h-0.853c-0.164,0.509-0.563,0.687-0.751,0.892c-0.617,0.639-1.644,0.828-3.278,0.957
		c-1.574,0.127-9.427,0.127-10.931,0.127c-0.413,0-0.482-0.256-0.482-0.7l-0.022-16.793c0,0,10.531,0.232,11.48,0.44
		c3.984,0.879,3.646,3.171,3.71,5.116h1.333c0.125-0.999,0.852-8.885,0.852-8.885h-0.006h-43.166v1.074
		c0.816,0.015,0.978,0.022,1.141,0.022c0.887,0,1.911,0.064,2.73,0.321c0.613,0.19,0.885,0.701,0.885,1.212
		c0,0.573-0.272,1.531-0.612,2.359c-1.642,4.216-10.521,24.774-13.456,31.794h-0.273L152.99,17.71
		c-0.958-2.299-1.576-4.086-1.576-4.914c0-0.576,0.207-1.023,0.686-1.341c0.506-0.351,1.413-0.433,3.657-0.446V9.911h-34.506v1.031
		c6.57-0.241,5.839,3.899,5.839,3.899v38.391c0,0,0.731,4.137-5.839,3.896v0.991h20.256v-1.004c-6.184,0-5.674-3.883-5.674-3.883
		V14.841c0,0-0.038-3.567,3.104-3.279c1.714,0.154,3.681,4.231,5.169,7.447l17.89,39.999h1.437c0,0,16.945-35.488,19.612-41.486
		c1.838-4.09,2.867-5.173,3.755-5.749c0.493-0.305,4.579-1.299,4.579,3.068c0,2.044,0.137,35.687-0.202,38.367
		c-0.275,1.85-0.616,3.255-1.985,3.508c-0.594,0.127-1.386,0.246-3.531,0.255v1.154c1.221,0.002,1.28,0,1.352,0h30.991
		c0.449-1.67,1.524-7.774,1.881-9.806H218.441z"/>
	<path fill="#FDC010" d="M302.167,53.234c0,0,0.73,4.141-5.84,3.899v0.991h20.256v-1.008c-6.189,0-5.671-3.883-5.671-3.883V14.841
		c0,0-0.518-3.885,5.671-3.885V9.952h-20.256v0.99c6.57-0.238,5.84,3.899,5.84,3.899V53.234z"/>
	<path fill="#FDC010" d="M281.783,29.009l-1.917-1.34c-5.665-4.02-7.239-6.255-7.239-9.192c0-3.83,3.074-6.575,8.129-6.575
		c4.439,0,6.423,1.916,7.443,3.126c1.433,1.659,1.78,3.639,1.78,4.212c0,0.277,0.022,0.5,0.083,1.187h1.235l0.357-9.896
		c-0.247-0.48-4.33-1.55-10.014-1.568c-9.491-0.036-15.774,5.042-15.774,12.065c0,5.169,2.592,9.641,10.103,15.134l3.145,2.294
		c5.671,4.087,6.692,7.086,6.692,10.215c0,3.383-3.001,7.279-9.15,7.279c0,0-6.34,0.101-9.954-3.511
		c-3.606-3.61-8.743-9.64-14.821-16.79c6.899-5.236,9.014-9.578,9.014-14.303c0-4.275-2.73-7.53-4.641-8.747
		c-3.692-2.361-8.269-2.732-12.571-2.732h-20.359V11c0.088,0.007,6.529-0.506,6.529,3.842c0,2.044,0,35.664,0,38.367
		c0,4.161-4.786,3.773-5.638,3.778v1.109h21.108v-1.128c-3.647,0-6.83,0.024-6.83-3.76c0-2.703-0.339-14.556-0.339-14.556
		c0-1.263,7.374-0.32,7.716,0.065c0.886,0.956,4.03,5.293,6.762,8.808c3.828,4.916,5.091,6.463,7.536,8.25
		c0,0,11.712,7.765,26.393,0.624c4.386-2.137,6.423-7.405,6.423-11.109C292.985,39.229,289.979,34.95,281.783,29.009z
		 M248.809,34.118c-1.226,0.832-2.121,1.084-4.847,1.084c-1.711,0-3.761-0.188-5.194-0.633c-0.476-0.195-0.611-0.451-0.611-1.152
		v-19.41c0-0.509,0.135-0.767,0.611-0.894c0.682-0.188,1.917-0.252,3.622-0.252c4.03,0,10.453,2.614,10.453,11.682
		C252.842,29.776,250.862,32.714,248.809,34.118z"/>
	<path fill="#FDC010" d="M378.825,9.864v1.117c0.905,0.032,1.047,0.059,1.194,0.09c1.157,0.257,1.427,0.958,1.427,1.595
		c0,0.833-0.27,1.916-0.953,3.321c-0.957,1.98-9.559,16.025-10.245,17.558c-0.924-1.516-7.952-12.822-10.645-17.382
		c0,0-1.035-1.457-1.768-4.02c-0.325-1.134,2.42-1.136,2.42-1.136V9.934h-43.672l-1.287,8.504c0,0,0,0,1.251,0
		c0.7-2.86,2.398-4.664,5.542-4.929c4.299-0.1,9.067,0,9.067,0V39.61c0,5.871,0,10.918-0.342,13.598
		c-0.205,1.85-0.615,3.255-1.981,3.508c-0.492,0.103-2.873,0.201-3.623,0.238v1.165h20.735v-1.181
		c-0.827-0.05-2.601-0.134-3.248-0.223c-2.045-0.253-2.457-1.658-2.662-3.444c-0.342-2.743-0.342-7.79-0.342-13.661V13.509h8.473
		c0.794,0.776,1.635,1.826,2.475,2.989c2.393,3.319,11.547,17.364,12.024,18.384c0.887,1.855,1.568,3.259,1.568,6.705v5.236
		c0,1.02,0,3.705-0.205,6.385c-0.134,1.85-0.745,3.255-2.115,3.508c-0.528,0.112-1.216,0.218-3.74,0.245v1.154h22.184v-1.14
		c-2.057-0.005-3.553-0.131-4.513-0.26c-2.043-0.253-2.66-1.658-2.795-3.508c-0.205-2.68-0.205-5.365-0.205-6.385v-5.236
		c0-2.106,0-4.087,1.021-6.385c1.229-2.743,10.795-17.746,13.048-20.303c1.502-1.722,2.254-2.486,3.689-3.126
		c1.029-0.512,2.32-0.766,3.002-0.766c0.088,0,0.171-0.004,1.234-0.009V9.864H378.825z"/>
	<path fill="#FDC010" d="M525.218,9.199c15.165,0,28.578,10.393,28.578,25.399c0,13.356-10.459,25.402-27.667,25.402
		c-15.161,0-28.57-10.394-28.57-25.402C497.559,21.246,508.018,9.199,525.218,9.199z M527.957,57.386
		c4.494,0,15.449-2.686,15.449-19.756c0-13.357-7.727-25.815-20.015-25.815c-4.488,0-15.443,2.683-15.443,19.757
		C507.948,44.922,515.669,57.386,527.957,57.386z"/>
	<path fill="#FDC010" d="M622.273,10.093v2.066c-4.85,0-5.971,1.582-7.447,5.986l-14.25,41.441h-2.038l-12.987-35.038h-0.142
		l-11.793,35.038h-2.11l-15.38-41.097c-2.032-5.646-3.083-6.127-6.802-6.331v-2.066h20.638v2.066h-1.831
		c-2.313,0-3.719,1.031-3.719,2.887c0,0.691,0.141,1.445,0.988,3.72l10.108,28.02h0.14l11.865-37.587h1.263l13.692,37.721h0.142
		l8.427-27.743c0.489-1.721,0.84-3.164,0.84-3.922c0-2.341-1.892-3.029-5.265-3.095v-2.066H622.273z"/>
	<path fill="#FDC010" d="M653.741,51.949l-19.029-41.652h-1.185l-15.45,36.555c-3.861,9.223-5.193,9.912-10.042,10.187v2.069h16.854
		v-2.069c-4.354-0.068-5.201-0.822-5.201-2.615c0-0.686,0.141-1.65,1.898-6.47l2.038-5.576h16.079l2.809,6.471
		c1.477,3.44,1.964,4.89,1.964,5.644c0,1.859-1.124,2.547-5.054,2.547v2.069h21.484v-2.069
		C657.254,57.039,655.567,55.936,653.741,51.949z M624.525,39.764l6.456-17.66l7.582,17.66H624.525z"/>
	<path fill="#FDC010" d="M472.905,2.947v1.156c7.117,0,6.524,4.462,6.524,4.462V52.72l0.019-0.17c0,0-0.165,4.481-6.711,4.481v1.143
		h23.287v-1.158c-6.351,0-6.522-4.466-6.522-4.466V8.394c0,0-0.586-4.466,6.522-4.466V2.772L472.905,2.947z"/>
	<path fill="#FDC010" d="M416.704,55.739c-9.101,0-14.555-7.819-14.555-17.687c0-11.806,6.212-14.838,11.666-14.838
		c7.774,0,13.891,6.588,13.891,17.211C427.706,54.132,420.024,55.739,416.704,55.739 M415.189,20.937
		c-14.226,0-19.586,10.478-19.586,18.589c0,8.394,5.5,18.584,19.11,18.584c12.045,0,19.632-8.58,19.632-19.44
		C434.346,27.813,426.993,20.937,415.189,20.937"/>
	<path fill="#FDC010" d="M459.891,21.223c-0.234,0-0.47,0.188-0.758,0.282c-0.47,0.145-1.041,0.145-1.94,0.191
		c-1.093,0.048-10.719,0.048-12.521,0.048c-1.369,0-4.361-0.142-6.831-0.142c-0.708,0-1.088,0.094-1.088,0.472
		c0,0.286,0.331,0.38,0.807,0.38c0.664,0,1.471,0.049,1.852,0.145c1.563,0.329,1.943,1.089,2.04,2.703
		c0.094,1.516,0.094,2.844,0.094,10.052v8.343c0,4.553,0,8.107-0.235,10.101c-0.196,1.373-0.431,2.421-1.376,2.609
		c-0.431,0.094-0.999,0.19-1.71,0.19c-0.522,0-0.713,0.142-0.713,0.38c0,0.377,0.33,0.472,0.996,0.472
		c1.804,0,4.796-0.145,6.023-0.145c1.232,0,4.219,0.145,7.208,0.145c0.713,0,1.043-0.145,1.043-0.472c0-0.238-0.191-0.38-0.808-0.38
		c-0.663,0-1.702-0.097-2.368-0.19c-1.421-0.188-1.709-1.236-1.852-2.609c-0.239-1.993-0.239-5.548-0.239-10.101v-3.839
		c0-0.33,0.098-0.429,0.333-0.429c0.806,0,5.835,0,7.015,0.143c1.471,0.193,2.182,1.044,2.422,1.709
		c0.188,0.569,0.283,1.14,0.283,1.468c0,0.333,0.094,0.666,0.38,0.666c0.478,0,0.478-0.476,0.478-0.9
		c0-0.336,0.095-2.516,0.186-3.46c0.142-1.472,0.377-2.657,0.377-2.942c0-0.286-0.091-0.427-0.282-0.427
		c-0.281,0-0.381,0.188-0.617,0.475c-0.477,0.616-1.14,0.809-2.038,0.855c-0.663,0.045-1.329,0.045-2.133,0.045l-6.071,0.047
		c-0.28,0-0.333-0.139-0.333-0.428V24.824c0-0.522,0.147-0.664,0.428-0.664l7.303,0.142c1.799,0.05,2.798,0.76,3.128,1.425
		c0.288,0.664,0.288,1.422,0.288,1.802c0.045,0.521,0.14,0.757,0.47,0.757c0.333,0,0.43-0.282,0.474-0.664
		c0.095-0.57,0.189-3.368,0.236-3.84c0.146-1.231,0.38-1.801,0.38-2.132C460.224,21.411,460.084,21.223,459.891,21.223"/>
	<path fill="#FDC010" d="M1020.167,56.166c-11.993,0-19.179-10.309-19.179-23.3c0-15.556,8.185-19.554,15.368-19.554
		c10.245,0,18.303,8.684,18.303,22.676C1034.66,54.042,1024.54,56.166,1020.167,56.166 M1018.168,10.314
		c-18.74,0-25.799,13.806-25.799,24.488c0,11.055,7.244,24.485,25.175,24.485c15.864,0,25.86-11.307,25.86-25.609
		C1043.405,19.375,1033.722,10.314,1018.168,10.314"/>
	<path fill="#FDC010" d="M727.03,55.838c2.456-3.792,2.108-11.386,2.108-11.386h-1.756c-0.303,0.96-0.35,1.146-0.398,1.384
		c-0.312,1.299-1.319,3.39-2.646,4.758c-3.109,3.318-7.314,4.037-14.239,4.037c-10.416,0-24.496-8.5-24.496-25.656
		c0-6.987,1.479-13.833,7.159-18.66c3.423-2.883,7.854-4.469,14.613-4.469c7.16,0,13.229,1.945,15.797,4.469
		c1.729,1.665,3.006,3.55,2.97,8.224h1.811V4.38c-0.162-0.057-0.347-0.103-0.579-0.121c-2.332-0.216-4.825-0.865-7.785-1.224
		c-3.578-0.431-6.456-0.723-11.279-0.723c-11.579,0-18.973,2.884-24.577,7.639c-7.469,6.344-9.106,14.843-9.106,19.744
		c0,6.992,2.029,15.062,9.653,21.259c7.08,5.693,16.025,7.855,26.675,7.855c4.98,0,13.592-0.492,14.557-1.009
		C726.367,57.347,726.501,56.65,727.03,55.838z"/>
	<path fill="#FDC010" d="M1430.746,11.361c-0.305,0-0.675,0.18-0.98,0.241c-0.493,0.123-1.475,0.245-2.642,0.367
		c-1.163,0.061-13.298,0.061-15.25,0.061c-1.706,0-5.542-0.183-8.772-0.183c-0.914,0-1.342,0.122-1.342,0.547
		c0,0.429,0.366,0.55,1.038,0.55c0.854,0,1.891,0.061,2.376,0.183c2.01,0.425,2.496,1.403,2.618,3.475
		c0.122,1.949,0.122,3.656,0.122,12.921v10.725c0,5.604,0,10.42-0.302,12.98c-0.246,1.768-0.55,3.104-1.77,3.349
		c-0.546,0.123-1.277,0.245-2.191,0.245c-0.733,0-0.976,0.185-0.976,0.49c0,0.428,0.426,0.61,1.217,0.61
		c2.439,0,6.275-0.183,7.679-0.183c3.597,0,7.678,0.367,16.904,0.367c2.33,0,2.885,0,3.315-1.592
		c0.302-1.216,0.791-5.358,0.791-6.758c0-0.611,0-1.101-0.489-1.101c-0.429,0-0.551,0.244-0.673,0.917
		c-0.43,2.494-1.165,3.777-2.76,4.51c-1.597,0.728-4.174,0.728-5.754,0.728c-6.217,0-7.191-0.91-7.313-5.115
		c-0.061-1.771,0-7.375,0-9.448v-4.816c0-0.359,0.063-0.604,0.364-0.604c1.463,0,7.498,0.062,8.652,0.184
		c2.271,0.244,3.129,1.155,3.438,2.371c0.185,0.794,0.185,1.589,0.244,2.201c0,0.298,0.125,0.542,0.554,0.542
		c0.55,0,0.55-0.666,0.55-1.154c0-0.429,0.123-2.867,0.245-4.082c0.188-3.111,0.493-4.083,0.493-4.449s-0.184-0.49-0.428-0.49
		c-0.311,0-0.555,0.306-0.983,0.796c-0.553,0.604-1.472,0.788-2.944,0.91c-1.409,0.122-8.418,0.122-9.756,0.122
		c-0.366,0-0.429-0.244-0.429-0.666V15.684c0-0.425,0.122-0.608,0.429-0.608c1.218,0,7.616,0.122,8.649,0.244
		c3.067,0.364,3.683,1.098,4.109,2.194c0.31,0.731,0.37,1.767,0.37,2.195c0,0.547,0.122,0.853,0.555,0.853
		c0.428,0,0.55-0.367,0.61-0.672c0.126-0.731,0.248-3.415,0.308-4.022c0.183-2.802,0.488-3.536,0.488-3.96
		C1431.111,11.602,1431.051,11.361,1430.746,11.361"/>
	<path fill="#FDC010" d="M1458.326,55.605c-4.812,0-7.19-1.283-7.981-2.438c-0.485-0.673-0.607-3.111-0.669-4.634
		c-0.061-1.155-0.122-5.848-0.122-12.308v-7.676c0-4.816,0-10.122,0.062-12.194c0-0.672,0.181-0.974,0.729-1.219
		c0.489-0.244,2.742-0.427,3.96-0.427c4.756,0,11.701,0.734,17.308,6.095c2.62,2.502,5.848,7.5,5.848,15.239
		c0,6.276-1.218,11.824-5.118,15.174C1468.688,54.383,1464.542,55.605,1458.326,55.605 M1455.28,11.847
		c-3.656,0-7.497,0.183-9.385,0.183c-1.705,0-5.543-0.183-8.772-0.183c-0.916,0-1.343,0.122-1.343,0.547
		c0,0.429,0.368,0.55,1.036,0.55c0.853,0,1.89,0.061,2.379,0.183c2.01,0.425,2.496,1.403,2.617,3.475
		c0.122,1.949,0.122,3.656,0.122,12.921v10.725c0,5.604,0,10.42-0.305,12.98c-0.242,1.768-0.547,3.104-1.767,3.349
		c-0.546,0.123-1.279,0.245-2.194,0.245c-0.73,0-0.974,0.185-0.974,0.49c0,0.428,0.428,0.61,1.22,0.61
		c2.438,0,6.275-0.183,7.675-0.183c3.051,0,8.533,0.727,12.981,0.727c11.272,0,17.609-4.327,20.41-7.187
		c3.414-3.478,6.644-9.326,6.644-17.002c0-7.254-2.862-12.309-5.908-15.485C1473.073,11.847,1462.898,11.847,1455.28,11.847"/>
	<path fill="#FDC010" d="M1505.27,11.847c-2.317,0-5.909,0.183-7.436,0.183c-1.764,0-5.603-0.183-7.918-0.183
		c-0.977,0-1.465,0.122-1.465,0.486c0,0.49,0.366,0.611,0.975,0.611c0.73,0,1.526,0.061,2.194,0.244
		c1.342,0.305,1.949,1.342,2.071,3.414c0.122,1.949,0.122,3.656,0.122,12.921v10.725c0,5.909,0,10.726-0.307,13.287
		c-0.18,1.765-0.545,2.798-1.765,3.042c-0.55,0.123-1.279,0.245-2.194,0.245c-0.73,0-0.975,0.185-0.975,0.49
		c0,0.428,0.429,0.61,1.221,0.61c2.438,0,6.276-0.183,7.674-0.183c1.646,0,5.484,0.183,9.508,0.183c0.671,0,1.157-0.183,1.157-0.61
		c0-0.306-0.302-0.49-0.974-0.49c-0.914,0-2.257-0.122-3.108-0.245c-1.828-0.244-2.256-1.337-2.436-2.981
		c-0.244-2.622-0.244-7.438-0.244-13.348V29.522c0-9.265,0-10.972,0.122-12.921c0.122-2.136,0.608-3.169,2.252-3.475
		c0.733-0.122,1.219-0.183,1.83-0.183c0.608,0,0.976-0.122,0.976-0.611C1506.551,11.969,1506.062,11.847,1505.27,11.847"/>
	<path fill="#FDC010" d="M1535.958,10.994c-9.078,0-14.866,2.438-19.253,6.459c-5.85,5.367-7.13,12.557-7.13,16.702
		c0,5.909,1.583,12.736,7.554,17.974c5.546,4.815,12.552,6.643,20.9,6.643c3.902,0,8.532-0.428,10.97-1.4
		c1.035-0.427,1.282-0.734,1.584-1.766c0.611-2.071,1.341-7.376,1.341-8.104c0-0.487-0.122-0.917-0.547-0.917
		c-0.489,0-0.611,0.247-0.794,1.218c-0.242,1.099-1.038,2.865-2.073,4.027c-2.434,2.799-5.725,3.41-11.149,3.41
		c-8.164,0-19.193-7.193-19.193-21.695c0-5.91,1.155-11.697,5.604-15.788c2.683-2.436,6.155-3.776,11.456-3.776
		c5.608,0,10.36,1.644,12.369,3.776c1.524,1.588,2.315,3.721,2.377,5.613c0,0.854,0.123,1.345,0.609,1.345
		c0.549,0,0.672-0.49,0.733-1.406c0.119-1.22,0.061-4.576,0.183-6.587c0.119-2.132,0.303-2.863,0.303-3.349
		c0-0.366-0.242-0.672-0.914-0.733c-1.828-0.179-3.776-0.73-6.092-1.036C1541.994,11.239,1539.738,10.994,1535.958,10.994"/>
	<path fill="#FDC010" d="M1571.878,11.847c-2.317,0-5.914,0.183-7.436,0.183c-1.769,0-5.607-0.183-7.923-0.183
		c-0.976,0-1.461,0.122-1.461,0.486c0,0.49,0.362,0.611,0.977,0.611c0.729,0,1.521,0.061,2.193,0.244
		c1.337,0.305,1.949,1.342,2.072,3.414c0.116,1.949,0.116,3.656,0.116,12.921v10.725c0,5.909,0,10.726-0.302,13.287
		c-0.183,1.765-0.55,2.798-1.765,3.042c-0.551,0.123-1.28,0.245-2.193,0.245c-0.736,0-0.976,0.185-0.976,0.49
		c0,0.428,0.424,0.61,1.216,0.61c2.438,0,6.276-0.183,7.679-0.183c1.644,0,5.484,0.183,9.507,0.183c0.668,0,1.158-0.183,1.158-0.61
		c0-0.306-0.307-0.49-0.976-0.49c-0.914,0-2.255-0.122-3.106-0.245c-1.828-0.244-2.257-1.337-2.439-2.981
		c-0.244-2.622-0.244-7.438-0.244-13.348V29.522c0-9.265,0-10.972,0.122-12.921c0.122-2.136,0.611-3.169,2.254-3.475
		c0.731-0.122,1.221-0.183,1.83-0.183c0.61,0,0.974-0.122,0.974-0.611C1573.156,11.969,1572.67,11.847,1571.878,11.847"/>
	<path fill="#FDC010" d="M1583.248,10.811c-0.608,0-0.791,0.853-0.791,2.072l-0.547,36.08c-0.061,5.298-0.306,7.069-1.888,7.552
		c-0.856,0.245-1.953,0.307-2.745,0.307c-0.608,0-0.975,0.123-0.975,0.49c0,0.55,0.551,0.61,1.341,0.61
		c3.171,0,6.032-0.183,6.583-0.183c1.155,0,3.594,0.183,7.555,0.183c0.852,0,1.402-0.122,1.402-0.61c0-0.367-0.367-0.49-1.037-0.49
		c-0.974,0-2.133-0.062-3.168-0.429c-1.22-0.421-2.012-2.01-2.134-6.758l-0.668-25.595h0.182c1.098,1.156,7.86,8.777,14.504,15.358
		c6.336,6.276,14.134,14.259,17.973,17.914c0.673,0.673,1.401,1.338,2.071,1.338c0.552,0,0.796-0.543,0.796-1.89l0.669-38.453
		c0.061-3.414,0.546-4.694,2.254-5.18c0.729-0.183,1.221-0.183,1.829-0.183c0.729,0,1.096-0.184,1.096-0.55
		c0-0.486-0.612-0.547-1.402-0.547c-2.986,0-5.303,0.183-5.971,0.183c-1.28,0-4.205-0.183-7.374-0.183
		c-0.912,0-1.582,0.061-1.582,0.547c0,0.367,0.241,0.55,0.974,0.55c0.853,0,2.313,0,3.231,0.366c1.46,0.608,2.009,1.766,2.071,5.482
		l0.608,27.364h-0.307c-1.035-0.972-9.261-9.747-13.405-13.891c-8.894-8.836-18.159-18.772-18.89-19.567
		C1584.467,11.602,1583.919,10.811,1583.248,10.811"/>
	<path fill="#FDC010" d="M1659.38,11.361c-0.305,0-0.671,0.18-0.979,0.241c-0.486,0.123-1.461,0.245-2.619,0.367
		c-1.156,0.061-13.285,0.061-15.234,0.061c-1.705,0-5.544-0.183-8.773-0.183c-0.914,0-1.342,0.122-1.342,0.547
		c0,0.429,0.367,0.55,1.036,0.55c0.853,0,1.89,0.061,2.378,0.183c2.01,0.425,2.495,1.403,2.618,3.475
		c0.122,1.949,0.122,3.656,0.122,12.921v10.725c0,5.604,0,10.42-0.305,12.98c-0.242,1.768-0.548,3.104-1.767,3.349
		c-0.547,0.123-1.276,0.245-2.194,0.245c-0.73,0-0.976,0.185-0.976,0.49c0,0.428,0.429,0.61,1.221,0.61
		c2.438,0,6.276-0.183,7.679-0.183c3.594,0,7.676,0.367,16.879,0.367c2.314,0,2.864,0,3.289-1.592
		c0.305-1.216,0.791-5.358,0.791-6.758c0-0.611,0-1.101-0.486-1.101c-0.425,0-0.547,0.244-0.669,0.917
		c-0.428,2.494-1.158,3.777-2.741,4.51c-1.586,0.728-4.146,0.728-5.729,0.728c-6.216,0-7.189-0.91-7.312-5.115
		c-0.063-1.771,0-7.375,0-9.448v-4.816c0-0.359,0.06-0.604,0.361-0.604c1.465,0,7.496,0.062,8.655,0.184
		c2.254,0.244,3.106,1.155,3.412,2.371c0.184,0.794,0.184,1.589,0.244,2.201c0,0.298,0.119,0.542,0.547,0.542
		c0.55,0,0.55-0.666,0.55-1.154c0-0.429,0.12-2.867,0.245-4.082c0.179-3.111,0.486-4.083,0.486-4.449s-0.182-0.49-0.43-0.49
		c-0.302,0-0.546,0.306-0.974,0.796c-0.547,0.604-1.459,0.788-2.923,0.91c-1.402,0.122-8.41,0.122-9.749,0.122
		c-0.366,0-0.426-0.244-0.426-0.666V15.684c0-0.425,0.122-0.608,0.426-0.608c1.217,0,7.615,0.122,8.652,0.244
		c3.045,0.364,3.656,1.098,4.08,2.194c0.306,0.731,0.367,1.767,0.367,2.195c0,0.547,0.122,0.853,0.546,0.853
		c0.43,0,0.552-0.367,0.614-0.672c0.122-0.731,0.244-3.415,0.302-4.022c0.184-2.802,0.488-3.536,0.488-3.96
		C1659.744,11.602,1659.683,11.361,1659.38,11.361"/>
	<path fill="#FDC010" d="M774.667,59.277c-0.388,0.008-0.756,0.011-1.099,0.011c0.056,0,0.11,0,0.165,0
		C774.083,59.288,774.392,59.285,774.667,59.277 M743.934,40.34c-0.242,0-0.303-0.185-0.242-0.429l5.604-14.991
		c0.061-0.241,0.183-0.547,0.366-0.547s0.244,0.306,0.306,0.547l5.483,15.053c0.062,0.183,0,0.367-0.308,0.367H743.934
		 M751.186,11.882c-0.609,0-0.976,0.671-1.707,2.437l-15.296,38.269c-1.216,3.046-2.374,5.118-5.177,5.484
		c-0.489,0.063-1.341,0.122-1.887,0.122c-0.489,0-0.735,0.12-0.735,0.486c0,0.486,0.368,0.608,1.159,0.608
		c3.168,0,6.521-0.18,7.19-0.18c1.889,0,4.508,0.18,6.459,0.18c0.67,0,1.035-0.122,1.035-0.608c0-0.366-0.182-0.486-0.912-0.486
		h-0.918c-1.889,0-2.436-0.794-2.436-1.893c0-0.729,0.303-2.19,0.913-3.714l3.293-8.715c0.118-0.364,0.24-0.486,0.546-0.486h13.592
		c0.304,0,0.485,0.122,0.607,0.424l4.875,12.921c0.306,0.731-0.123,1.281-0.55,1.403c-0.609,0.06-0.851,0.18-0.851,0.546
		c0,0.429,0.727,0.429,1.828,0.486c4.743,0.119,9.081,0.122,11.335,0.122c-0.788-0.002-1.208-0.183-1.208-0.608
		c0-0.307,0.24-0.486,0.971-0.486c0.41,0,0.783-0.024,1.119-0.063c-0.406-0.038-0.828-0.097-1.25-0.182
		c-1.279-0.306-3.047-1.157-5.362-6.644c-3.9-9.261-13.647-34.122-15.11-37.475C752.102,12.431,751.736,11.882,751.186,11.882"/>
	<path fill="#FDC010" d="M773.551,59.288c0.003,0,0.005,0,0.007,0c0.003,0,0.006,0,0.01,0
		C773.563,59.288,773.556,59.288,773.551,59.288 M789.949,37.416c-1.521,0-3.349-0.185-4.629-0.612
		c-0.426-0.183-0.546-0.429-0.546-1.097V17.184c0-0.488,0.12-0.732,0.546-0.854c0.607-0.182,1.705-0.243,3.229-0.243
		c3.594,0,9.323,2.498,9.323,11.149c0,4.996-1.769,7.801-3.597,9.139C793.179,37.17,792.387,37.416,789.949,37.416 M789.705,13.222
		c-1.889,0-6.518,0.184-8.589,0.184c-1.28,0-5.119-0.184-8.349-0.184c-0.914,0-1.341,0.124-1.341,0.549
		c0,0.427,0.366,0.548,1.035,0.548c0.853,0,1.89,0.062,2.378,0.184c2.009,0.427,2.495,1.401,2.618,3.473
		c0.122,1.949,0.122,3.654,0.122,12.92v10.726c0,5.604,0,10.418-0.305,12.976c-0.242,1.767-0.549,3.108-1.767,3.353
		c-0.303,0.067-0.661,0.135-1.075,0.182c0.47,0.045,0.914,0.063,1.307,0.063c0.489,0,0.796,0.063,0.796,0.486
		c0,0.41-0.392,0.562-1.869,0.598c2.363-0.037,5.333-0.169,6.327-0.169c0.913,0,5.423,0.18,8.955,0.18
		c0.795,0,1.219-0.18,1.219-0.608c0-0.307-0.239-0.486-0.729-0.486c-0.733,0-2.073-0.122-2.988-0.244
		c-1.826-0.244-2.19-1.586-2.374-3.353c-0.302-2.558-0.302-7.371-0.302-13.038v-0.855c0-0.363,0.18-0.485,0.485-0.485l5.302,0.122
		c0.427,0,0.791,0.061,1.098,0.425c0.79,0.913,3.592,5.056,6.029,8.409c3.414,4.692,5.731,7.557,8.35,8.96
		c1.585,0.853,3.107,1.154,6.521,1.154h5.79c0.728,0,1.155-0.122,1.155-0.608c0-0.307-0.244-0.486-0.729-0.486
		c-0.489,0-1.037-0.06-1.708-0.182c-0.914-0.185-3.41-0.612-6.824-4.146c-3.596-3.777-7.801-9.204-13.221-16.026
		c6.152-4.996,8.042-9.139,8.042-13.65c0-4.082-2.438-7.19-4.144-8.348C797.628,13.586,793.545,13.222,789.705,13.222"/>
	<path fill="#FDC010" d="M774.433,58.131c-0.336,0.038-0.709,0.063-1.119,0.063c-0.73,0-0.971,0.18-0.971,0.486
		c0,0.426,0.42,0.606,1.208,0.608c0.005,0,0.012,0,0.017,0c0.343,0,0.711-0.003,1.099-0.011c1.478-0.036,1.869-0.188,1.869-0.598
		c0-0.424-0.307-0.486-0.796-0.486C775.347,58.193,774.903,58.176,774.433,58.131"/>
	<path fill="#FDC010" d="M840.752,12.12c-1.16,0-1.707,0.122-1.707,0.61c0,0.426,0.488,0.488,1.036,0.488
		c0.795,0,1.704,0.061,2.438,0.306c0.546,0.182,0.79,0.669,0.79,1.158c0,0.546-0.244,1.462-0.546,2.253
		c-1.463,4.022-9.388,23.643-12.005,30.343h-0.245l-10.477-27.662c-0.857-2.194-1.403-3.9-1.403-4.692
		c0-0.548,0.181-0.975,0.608-1.281c0.488-0.364,1.402-0.425,2.377-0.425c0.547,0,0.913-0.122,0.913-0.547
		c0-0.429-0.669-0.551-1.402-0.551c-3.047,0-5.971,0.184-7.492,0.184c-2.134,0-5.606-0.184-8.837-0.184
		c-0.913,0-1.583,0.061-1.583,0.551c0,0.364,0.179,0.547,0.729,0.547c0.486,0,1.462,0,2.374,0.242
		c2.194,0.611,3.23,1.282,4.633,4.633l15.354,37.231c1.158,2.863,1.525,3.716,2.316,3.716c0.854,0,1.22-0.975,2.802-4.508
		c1.342-3.049,4.205-9.688,8.107-18.588c3.29-7.494,4.935-10.782,7.313-16.512c1.644-3.899,2.559-4.935,3.349-5.483
		c0.546-0.363,1.134-0.546,1.662-0.638c-0.527-0.063-1.232-0.094-1.842-0.094c-0.67,0-1.036-0.122-1.036-0.547
		c0-0.22,0.112-0.359,0.344-0.442c-0.915,0.041-1.72,0.076-2.171,0.076C846.356,12.304,843.795,12.12,840.752,12.12 M852.877,12.12
		c-0.295,0-0.619,0.004-0.956,0.013c0.541,0.009,1.087,0.02,1.625,0.033C853.359,12.133,853.135,12.12,852.877,12.12"/>
	<path fill="#FDC010" d="M850.318,12.12c-0.443,0-0.774,0.029-0.995,0.108c0.837-0.036,1.764-0.076,2.599-0.096
		C851.378,12.124,850.841,12.12,850.318,12.12 M877.971,11.633c-0.306,0-0.669,0.184-0.974,0.244
		c-0.491,0.123-1.465,0.243-2.621,0.365c-1.157,0.062-13.333,0.062-15.282,0.062c-1.156,0-3.289-0.084-5.548-0.139
		c0.388,0.066,0.607,0.216,0.607,0.505c0,0.425-0.363,0.547-0.971,0.547c-0.309,0-0.786,0-1.326,0.094
		c0.212,0.025,0.393,0.054,0.531,0.09c2.015,0.426,2.501,1.4,2.623,3.472c0.122,1.951,0.122,3.656,0.122,12.917v10.727
		c0,5.606,0,10.42-0.307,12.979c-0.245,1.768-0.55,3.108-1.766,3.351c-0.551,0.122-1.28,0.244-2.194,0.244
		c-0.731,0-0.974,0.185-0.974,0.49c0,0.425,0.425,0.607,1.22,0.607c2.438,0,6.273-0.183,7.674-0.183
		c3.606,0,7.716,0.366,16.929,0.366c2.317,0,2.864,0,3.291-1.587c0.307-1.218,0.792-5.363,0.792-6.762c0-0.61,0-1.097-0.485-1.097
		c-0.429,0-0.551,0.244-0.673,0.914c-0.425,2.498-1.157,3.777-2.741,4.511c-1.582,0.729-4.142,0.729-5.727,0.729
		c-6.246,0-7.225-0.914-7.347-5.118c-0.063-1.766,0-7.373,0-9.445v-4.813c0-0.366,0.06-0.61,0.366-0.61
		c1.471,0,7.527,0.062,8.688,0.184c2.253,0.244,3.105,1.159,3.411,2.377c0.18,0.792,0.18,1.583,0.242,2.193
		c0,0.303,0.122,0.548,0.549,0.548c0.547,0,0.547-0.67,0.547-1.158c0-0.427,0.122-2.863,0.246-4.082
		c0.183-3.108,0.489-4.084,0.489-4.45c0-0.363-0.185-0.485-0.429-0.485c-0.307,0-0.548,0.303-0.976,0.792
		c-0.549,0.61-1.463,0.791-2.923,0.913c-1.401,0.122-8.435,0.122-9.785,0.122c-0.366,0-0.426-0.244-0.426-0.669V15.96
		c0-0.427,0.122-0.61,0.426-0.61c1.229,0,7.651,0.122,8.688,0.245c3.046,0.365,3.653,1.097,4.082,2.192
		c0.305,0.732,0.366,1.768,0.366,2.195c0,0.547,0.119,0.853,0.548,0.853s0.548-0.367,0.612-0.672c0.118-0.73,0.24-3.41,0.302-4.019
		c0.184-2.804,0.488-3.536,0.488-3.963C878.337,11.877,878.278,11.633,877.971,11.633"/>
	<path fill="#FDC010" d="M851.921,12.132c-0.835,0.02-1.762,0.06-2.599,0.096c-0.231,0.083-0.344,0.223-0.344,0.442
		c0,0.425,0.366,0.547,1.036,0.547c0.609,0,1.314,0.031,1.842,0.094c0.54-0.094,1.018-0.094,1.326-0.094
		c0.607,0,0.971-0.122,0.971-0.547c0-0.29-0.22-0.439-0.607-0.505C853.008,12.152,852.462,12.141,851.921,12.132"/>
	<path fill="#FDC010" d="M903.471,36.313c-1.523,0-3.353-0.185-4.632-0.61c-0.427-0.183-0.549-0.427-0.549-1.097V16.083
		c0-0.488,0.122-0.732,0.549-0.855c0.609-0.182,1.707-0.243,3.229-0.243c3.597,0,9.325,2.498,9.325,11.152
		c0,4.996-1.768,7.799-3.595,9.14C906.7,36.066,905.909,36.313,903.471,36.313 M903.227,12.12c-1.891,0-6.52,0.184-8.591,0.184
		c-1.279,0-5.118-0.184-8.35-0.184c-0.915,0-1.34,0.122-1.34,0.551c0,0.425,0.364,0.547,1.036,0.547
		c0.854,0,1.889,0.061,2.378,0.184c2.01,0.426,2.495,1.4,2.617,3.472c0.123,1.951,0.123,3.656,0.123,12.917v10.727
		c0,5.606,0,10.42-0.306,12.979c-0.244,1.768-0.548,3.108-1.766,3.351c-0.55,0.122-1.28,0.244-2.193,0.244
		c-0.731,0-0.976,0.185-0.976,0.49c0,0.425,0.426,0.607,1.22,0.607c2.438,0,6.276-0.183,7.434-0.183
		c0.914,0,5.421,0.183,8.957,0.183c0.791,0,1.218-0.183,1.218-0.607c0-0.306-0.244-0.49-0.729-0.49
		c-0.732,0-2.075-0.122-2.987-0.244c-1.828-0.242-2.192-1.583-2.375-3.351c-0.307-2.559-0.307-7.372-0.307-13.04v-0.853
		c0-0.366,0.185-0.489,0.489-0.489l5.3,0.123c0.427,0,0.794,0.062,1.096,0.428c0.795,0.913,3.597,5.057,6.035,8.41
		c3.411,4.689,5.726,7.552,8.349,8.954c1.582,0.854,3.106,1.159,6.518,1.159h5.79c0.73,0,1.157-0.122,1.157-0.607
		c0-0.306-0.244-0.49-0.733-0.49c-0.486,0-1.035-0.062-1.704-0.184c-0.913-0.18-3.414-0.607-6.823-4.143
		c-3.598-3.776-7.801-9.2-13.226-16.026c6.154-4.996,8.043-9.141,8.043-13.647c0-4.083-2.436-7.191-4.143-8.348
		C911.149,12.487,907.068,12.12,903.227,12.12"/>
	<path fill="#FDC010" d="M1063.253,12.12c-2.376,0-6.822,0.184-8.285,0.184c-1.646,0-5.481-0.184-8.349-0.184
		c-0.913,0-1.339,0.122-1.339,0.551c0,0.425,0.364,0.547,1.033,0.547c0.794,0,1.524,0.061,2.015,0.184
		c2.008,0.426,2.496,1.4,2.618,3.472c0.122,1.951,0.122,3.656,0.122,12.917v10.727c0,5.606,0,10.42-0.306,12.979
		c-0.244,1.768-0.546,3.108-1.766,3.351c-0.552,0.122-1.281,0.244-2.194,0.244c-0.73,0-0.975,0.185-0.975,0.49
		c0,0.425,0.428,0.607,1.219,0.607c2.439,0,6.275-0.183,7.679-0.183c4.937,0,8.956,0.366,17.729,0.366
		c3.169,0,3.476-0.306,3.842-1.645c0.485-1.769,0.912-6.341,0.912-7.009c0-0.73-0.061-1.036-0.488-1.036
		c-0.486,0-0.608,0.366-0.668,0.914c-0.122,1.156-0.854,2.862-1.583,3.657c-1.526,1.644-3.903,1.705-7.133,1.705
		c-4.752,0-6.338-0.426-7.373-1.341c-1.276-1.098-1.276-5.302-1.276-13.101V29.79c0-9.261,0-10.965,0.118-12.917
		c0.123-2.131,0.612-3.168,2.255-3.472c0.732-0.123,1.707-0.184,2.377-0.184c0.734,0,1.099-0.122,1.099-0.547
		C1064.537,12.242,1064.112,12.12,1063.253,12.12"/>
	<path fill="#FDC010" d="M1094.648,12.12c-2.374,0-6.822,0.184-8.286,0.184c-1.645,0-5.482-0.184-8.347-0.184
		c-0.914,0-1.34,0.122-1.34,0.551c0,0.425,0.364,0.547,1.036,0.547c0.791,0,1.521,0.061,2.01,0.184
		c2.012,0.426,2.497,1.4,2.619,3.472c0.122,1.951,0.122,3.656,0.122,12.917v10.727c0,5.606,0,10.42-0.306,12.979
		c-0.242,1.768-0.547,3.108-1.766,3.351c-0.548,0.122-1.28,0.244-2.193,0.244c-0.73,0-0.975,0.185-0.975,0.49
		c0,0.425,0.428,0.607,1.219,0.607c2.438,0,6.275-0.183,7.676-0.183c4.938,0,8.959,0.366,17.735,0.366
		c3.165,0,3.471-0.306,3.839-1.645c0.485-1.769,0.912-6.341,0.912-7.009c0-0.73-0.061-1.036-0.486-1.036
		c-0.488,0-0.611,0.366-0.672,0.914c-0.122,1.156-0.853,2.862-1.583,3.657c-1.524,1.644-3.902,1.705-7.132,1.705
		c-4.751,0-6.338-0.426-7.371-1.341c-1.279-1.098-1.279-5.302-1.279-13.101V29.79c0-9.261,0-10.965,0.122-12.917
		c0.119-2.131,0.609-3.168,2.255-3.472c0.73-0.123,1.705-0.184,2.375-0.184c0.73,0,1.097-0.122,1.097-0.547
		C1095.929,12.242,1095.503,12.12,1094.648,12.12"/>
	<path fill="#FDC010" d="M1140.288,11.633c-0.304,0-0.671,0.184-0.974,0.244c-0.488,0.123-1.465,0.243-2.623,0.365
		c-1.157,0.062-13.283,0.062-15.231,0.062c-1.705,0-5.546-0.184-8.776-0.184c-0.914,0-1.338,0.122-1.338,0.551
		c0,0.425,0.364,0.547,1.032,0.547c0.855,0,1.893,0.061,2.379,0.184c2.009,0.426,2.497,1.4,2.619,3.472
		c0.122,1.951,0.122,3.656,0.122,12.917v10.727c0,5.606,0,10.42-0.304,12.979c-0.244,1.768-0.551,3.108-1.767,3.351
		c-0.549,0.122-1.279,0.244-2.194,0.244c-0.733,0-0.975,0.185-0.975,0.49c0,0.425,0.425,0.607,1.216,0.607
		c2.439,0,6.28-0.183,7.68-0.183c3.597,0,7.68,0.366,16.88,0.366c2.316,0,2.862,0,3.291-1.587c0.305-1.218,0.791-5.363,0.791-6.762
		c0-0.61,0-1.097-0.486-1.097c-0.427,0-0.549,0.244-0.671,0.914c-0.426,2.498-1.158,3.777-2.743,4.511
		c-1.584,0.729-4.142,0.729-5.729,0.729c-6.214,0-7.188-0.914-7.312-5.118c-0.061-1.766,0-7.373,0-9.445v-4.813
		c0-0.366,0.062-0.61,0.367-0.61c1.459,0,7.494,0.062,8.65,0.184c2.254,0.244,3.11,1.159,3.412,2.377
		c0.184,0.792,0.184,1.583,0.244,2.193c0,0.303,0.122,0.548,0.551,0.548c0.548,0,0.548-0.67,0.548-1.158
		c0-0.427,0.122-2.863,0.244-4.082c0.185-3.108,0.485-4.084,0.485-4.45c0-0.363-0.184-0.485-0.425-0.485
		c-0.305,0-0.55,0.303-0.975,0.792c-0.551,0.61-1.465,0.791-2.927,0.913c-1.4,0.122-8.407,0.122-9.748,0.122
		c-0.366,0-0.428-0.244-0.428-0.669V15.96c0-0.427,0.123-0.61,0.428-0.61c1.219,0,7.614,0.122,8.654,0.245
		c3.046,0.365,3.653,1.097,4.078,2.192c0.305,0.732,0.367,1.768,0.367,2.195c0,0.547,0.123,0.853,0.55,0.853
		c0.425,0,0.548-0.367,0.609-0.672c0.122-0.73,0.244-3.41,0.304-4.019c0.185-2.804,0.486-3.536,0.486-3.963
		C1140.652,11.877,1140.592,11.633,1140.288,11.633"/>
	<path fill="#FDC010" d="M1170.421,11.268c-5.119,0-10.542,0.426-16.39,3.96c-5.548,3.352-10.606,10.175-10.606,19.927
		c0,16.817,13.224,23.886,28.153,23.886c4.754,0,10.726-0.669,14.686-2.741c0.729-0.429,0.792-0.551,0.792-2.193V47.4
		c0-3.047,0-5.482,0.061-7.312c0.062-2.134,0.669-3.168,2.314-3.472c0.731-0.122,1.161-0.182,1.646-0.182
		c0.427,0,0.79-0.122,0.79-0.491c0-0.485-0.424-0.607-1.216-0.607c-2.011,0-5.24,0.184-7.129,0.184c-1.83,0-5.668-0.184-8.836-0.184
		c-0.854,0-1.281,0.122-1.281,0.607c0,0.369,0.366,0.491,0.914,0.491c0.854,0,1.891,0.06,2.377,0.182
		c2.01,0.426,2.557,1.4,2.618,3.472c0.063,1.829,0.063,4.143,0.063,7.188v5.731c0,1.035-0.244,1.827-1.157,2.254
		c-1.463,0.67-3.596,0.67-5.18,0.67c-12.857,0-21.207-9.81-21.207-22.912c0-7.496,2.197-12.063,5.604-14.928
		c4.271-3.534,8.715-3.778,12.066-3.778c6.886,0,11.763,2.803,13.59,4.754c1.586,1.706,1.89,3.654,2.072,5.058
		c0.062,0.485,0.184,0.791,0.61,0.791c0.486,0,0.67-0.305,0.67-1.28c0-7.616,0.424-9.323,0.424-9.994
		c0-0.425-0.118-0.668-0.852-0.729c-1.399-0.061-3.535-0.427-4.813-0.672C1179.986,12,1174.625,11.268,1170.421,11.268"/>
	<path fill="#FDC010" d="M1220.001,11.633c-0.302,0-0.669,0.184-0.974,0.244c-0.485,0.123-1.463,0.243-2.62,0.365
		c-1.158,0.062-13.284,0.062-15.235,0.062c-1.704,0-5.542-0.184-8.772-0.184c-0.917,0-1.342,0.122-1.342,0.551
		c0,0.425,0.367,0.547,1.035,0.547c0.854,0,1.891,0.061,2.379,0.184c2.009,0.426,2.495,1.4,2.617,3.472
		c0.122,1.951,0.122,3.656,0.122,12.917v10.727c0,5.606,0,10.42-0.302,12.979c-0.244,1.768-0.549,3.108-1.769,3.351
		c-0.547,0.122-1.279,0.244-2.194,0.244c-0.731,0-0.976,0.185-0.976,0.49c0,0.425,0.429,0.607,1.22,0.607
		c2.439,0,6.277-0.183,7.68-0.183c3.594,0,7.677,0.366,16.879,0.366c2.314,0,2.862,0,3.288-1.587
		c0.306-1.218,0.792-5.363,0.792-6.762c0-0.61,0-1.097-0.486-1.097c-0.428,0-0.547,0.244-0.672,0.914
		c-0.426,2.498-1.155,3.777-2.742,4.511c-1.582,0.729-4.143,0.729-5.727,0.729c-6.214,0-7.189-0.914-7.312-5.118
		c-0.061-1.766,0-7.373,0-9.445v-4.813c0-0.366,0.062-0.61,0.364-0.61c1.463,0,7.494,0.062,8.653,0.184
		c2.255,0.244,3.107,1.159,3.412,2.377c0.185,0.792,0.185,1.583,0.244,2.193c0,0.303,0.12,0.548,0.549,0.548
		c0.546,0,0.546-0.67,0.546-1.158c0-0.427,0.124-2.863,0.246-4.082c0.183-3.108,0.488-4.084,0.488-4.45
		c0-0.363-0.184-0.485-0.428-0.485c-0.307,0-0.547,0.303-0.975,0.792c-0.549,0.61-1.464,0.791-2.924,0.913
		c-1.404,0.122-8.411,0.122-9.748,0.122c-0.367,0-0.429-0.244-0.429-0.669V15.96c0-0.427,0.122-0.61,0.429-0.61
		c1.215,0,7.613,0.122,8.649,0.245c3.047,0.365,3.658,1.097,4.082,2.192c0.306,0.732,0.368,1.768,0.368,2.195
		c0,0.547,0.123,0.853,0.547,0.853c0.428,0,0.55-0.367,0.611-0.672c0.122-0.73,0.244-3.41,0.305-4.019
		c0.182-2.804,0.485-3.536,0.485-3.963C1220.368,11.877,1220.308,11.633,1220.001,11.633"/>
	<path fill="#FDC010" d="M988.586,55.838c2.457-3.79,2.108-11.386,2.108-11.386h-1.754c-0.305,0.96-0.349,1.146-0.397,1.384
		c-0.314,1.299-1.322,3.39-2.646,4.758c-3.113,3.318-7.314,4.037-14.242,4.037c-10.428,0-24.513-8.5-24.513-25.656
		c0-6.987,1.479-13.833,7.16-18.66c3.422-2.883,7.858-4.469,14.63-4.469c7.158,0,13.229,1.945,15.796,4.469
		c1.729,1.665,3.006,3.55,2.971,8.224h1.806V4.38c-0.157-0.057-0.344-0.103-0.577-0.121c-2.33-0.216-4.821-0.865-7.783-1.224
		c-3.576-0.431-6.456-0.723-11.278-0.723c-11.596,0-18.986,2.884-24.591,7.639c-7.473,6.344-9.106,14.843-9.106,19.744
		c0,6.992,2.026,15.062,9.65,21.259c7.084,5.693,16.03,7.855,26.691,7.855c4.98,0,13.592-0.492,14.562-1.009
		C987.923,57.347,988.061,56.65,988.586,55.838z"/>
	<path fill="#FDC010" d="M1263.35,56.485c-9.852,0-15.749-8.464-15.749-19.135c0-12.779,6.719-16.063,12.62-16.063
		c8.411,0,15.03,7.135,15.03,18.624C1275.251,54.737,1266.941,56.485,1263.35,56.485 M1261.706,18.823
		c-15.389,0-21.185,11.341-21.185,20.118c0,9.081,5.95,20.105,20.672,20.105c13.031,0,21.24-9.284,21.24-21.028
		C1282.433,26.264,1274.48,18.823,1261.706,18.823"/>
	<path fill="#FDC010" d="M1309.178,19.131c-0.255,0-0.514,0.207-0.822,0.311c-0.513,0.153-1.127,0.153-2.105,0.205
		c-1.18,0.048-11.592,0.048-13.542,0.048c-1.485,0-4.72-0.153-7.387-0.153c-0.77,0-1.177,0.104-1.177,0.514
		c0,0.31,0.355,0.409,0.868,0.409c0.723,0,1.594,0.053,2.002,0.156c1.693,0.358,2.106,1.184,2.205,2.925
		c0.102,1.643,0.102,3.08,0.102,10.878v9.026c0,4.927,0,8.775-0.256,10.928c-0.202,1.49-0.458,2.621-1.484,2.823
		c-0.465,0.103-1.08,0.207-1.846,0.207c-0.567,0-0.771,0.153-0.771,0.409c0,0.411,0.356,0.514,1.075,0.514
		c1.948,0,5.183-0.154,6.514-0.154c1.336,0,4.566,0.154,7.799,0.154c0.771,0,1.131-0.154,1.131-0.514
		c0-0.256-0.207-0.409-0.873-0.409c-0.718,0-1.846-0.104-2.567-0.207c-1.536-0.202-1.845-1.333-1.998-2.823
		c-0.258-2.152-0.258-6.001-0.258-10.928v-4.156c0-0.354,0.104-0.458,0.362-0.458c0.866,0,6.306,0,7.59,0.152
		c1.589,0.207,2.357,1.131,2.616,1.846c0.207,0.618,0.309,1.234,0.309,1.595c0,0.355,0.099,0.716,0.412,0.716
		c0.51,0,0.51-0.514,0.51-0.971c0-0.362,0.101-2.721,0.204-3.747c0.153-1.589,0.41-2.872,0.41-3.185
		c0-0.306-0.102-0.458-0.305-0.458c-0.31,0-0.41,0.202-0.667,0.514c-0.514,0.666-1.231,0.873-2.206,0.923
		c-0.719,0.049-1.437,0.049-2.31,0.049l-6.563,0.056c-0.311,0-0.362-0.154-0.362-0.466V23.035c0-0.565,0.154-0.718,0.462-0.718
		l7.898,0.152c1.949,0.052,3.03,0.822,3.388,1.54c0.308,0.721,0.308,1.541,0.308,1.949c0.053,0.563,0.154,0.819,0.513,0.819
		c0.357,0,0.462-0.306,0.514-0.715c0.102-0.618,0.206-3.646,0.257-4.16c0.153-1.334,0.409-1.952,0.409-2.309
		C1309.536,19.338,1309.384,19.131,1309.178,19.131"/>
	<path fill="#FDC010" d="M1384.693,0c-0.69,0-1.147,0.611-1.682,1.836l-20.832,43.735l-20.903-43.196
		c-0.997-1.993-1.455-2.375-2.069-2.375s-1.072,0.687-1.303,1.989l-7.58,49.937c-0.385,2.604-0.996,5.586-3.143,6.052
		c-1.146,0.225-1.682,0.225-2.297,0.225c-0.762,0-1.223,0.152-1.223,0.54c0,0.689,0.611,0.843,1.376,0.843
		c2.451,0,6.129-0.233,7.585-0.233c1.378,0,4.82,0.233,8.039,0.233c1.148,0,1.836-0.153,1.836-0.843c0-0.388-0.536-0.54-1.148-0.54
		c-0.765,0-1.837-0.073-3.215-0.377c-1.303-0.313-2.298-0.997-2.298-2.452c0-1.228,0.077-2.225,0.229-3.599l3.981-30.487h0.311
		c2.678,5.747,7.273,15.396,7.962,17.004c0.92,2.146,6.969,13.86,8.806,17.389c1.227,2.298,1.99,3.824,2.681,3.824
		s1.072-0.691,2.832-4.29l16.693-34.767h0.304l4.598,33.699c0.309,2.145,0.079,3.141-0.381,3.294
		c-0.535,0.225-0.84,0.457-0.84,0.844c0,0.459,0.457,0.683,2.217,0.844c3.062,0.225,13.632,0.458,15.547,0.458
		c1.069,0,1.99-0.233,1.99-0.843c0-0.459-0.537-0.54-1.225-0.54c-0.996,0-2.528-0.073-4.75-0.763
		c-2.298-0.691-3.063-2.909-3.751-7.738l-6.968-47.326C1385.839,0.764,1385.38,0,1384.693,0"/>
</g>
</svg>
