<?xml version="1.0" encoding="utf-8"?>
<!-- Generator: Adobe Illustrator 15.1.0, SVG Export Plug-In . SVG Version: 6.00 Build 0)  -->
<!DOCTYPE svg PUBLIC "-//W3C//DTD SVG 1.1//EN" "http://www.w3.org/Graphics/SVG/1.1/DTD/svg11.dtd">
<svg version="1.1" id="Layer_1" xmlns="http://www.w3.org/2000/svg" xmlns:xlink="http://www.w3.org/1999/xlink" x="0px" y="0px"
	 width="1150.342px" height="75px" viewBox="0 0 1150.342 75" enable-background="new 0 0 1150.342 75" xml:space="preserve">
<g>
	<path fill="#FFFFFF" d="M22.936,10.174V2.049c0,0-0.466-2.051,1.094-2.051c1.559,0,1.23,1.969,1.23,1.969v8.124
		c0,0-0.082,2.571,0.248,2.982c0.328,0.41,3.392,1.641,3.392,1.641s1.915,1.011,1.586,2.078c-0.328,1.067-1.504,0.821-2.079,0.574
		c-0.574-0.246-2.325-0.656-3.146-0.574c-0.82,0.083-2.488,0.165-3.063-0.328c-0.575-0.492-0.739-1.586-0.575-1.75
		c0.571-0.572,1.313-1.753,1.313-2.298C22.936,11.487,22.936,10.174,22.936,10.174z"/>
	<path fill="#FFFFFF" d="M46.875,71.551c-0.5-0.16-5.06,0-5.06,0s-1.48,0-1.81-0.24c-0.33-0.25-0.35-3.398-0.35-3.398V45.59
		c0,0,0.35-2.979-0.82-3.47c-0.58-0.24-2.3-0.19-2.3-0.19s-2.57-0.06-2.9,0.19c-0.33,0.25-1.01,3.47-0.85,3.97
		c0.17,0.49,1.92,0.98,2.41,1.391c0.49,0.41,0.41,1.752,0.41,2.82c0,1.07,0.08,6.04,0.24,7.36c0.17,1.31-0.57,10.5-0.74,11.84
		c-0.16,1.34-0.49,1.89-1.91,2.22c-1.42,0.32-1.31-1.479-1.4-2.22c-0.08-0.74-0.08-6.29-0.08-6.29l-0.08-18.961
		c0,0-0.08-1.72-0.57-2.05c-0.5-0.33-1.84-0.24-1.84-0.24s-4.871-0.19-5.851,0.08c-0.41,0.11-1.09,1.89-1.09,3.12
		c0,1.229,0.4,1.42,1.42,1.42c1.01,0,2.541,1.311,3.061,2.16s0.33,2.871,0.33,2.871s0.24,11.85,0.16,13.6s-0.41,4.54-0.84,5.521
		c-0.44,0.988-1.98,1.01-2.71,1.01c-0.74,0-2.33-0.271-2.66-0.76c-0.32-0.49-0.16-2.74-0.16-2.74s0.08-23.251,0.08-24.071
		c0-0.819-0.41-1.88-0.9-2.13c-0.49-0.25-5.47-0.271-5.47-0.271s-0.471-1.898,0.33-2.55c0.74-0.6,3.14-0.329,3.14-0.329h26.071
		c0,0,2.97,0.149,3.39-0.521c0.57-0.9,1.07-2.46,0.16-3.03c-0.58-0.38-1.75-0.28-1.75-0.28l-33.341-0.08c0,0-1.64-0.08-1.97-0.49
		c-0.33-0.41,0.08-2.05,0.49-2.65c0.42-0.6,2.14-2.3,2.58-3.64c0.43-1.34,0-3.56,0.41-5.2c0.2-0.8,1.94-2.16,2.371-2.73
		c0.44-0.581,0.09-0.581,0.85-1.23c1.15-0.99,0.33-1.75-0.24-2.25c-0.58-0.49-0.93-0.49-1.34-0.33c-0.41,0.17-5.041,3.48-5.801,4.63
		c-0.77,1.15-2.96,2.9-3.8,5.88c-0.85,2.98-2.22,6.7-3.641,7.93c-0.64,0.55-1.48,0.25-1.81,0.6c-0.33,0.36-0.68,2.22-0.41,2.71
		c0.28,0.49,1.89,1.34,2.22,2.16c0.33,0.819,0.24,1.479,0.24,1.83c0,0.358-0.08,13.649-0.08,13.649s0,11.41-0.41,13.73
		c-0.41,2.33-1.15,1.89-1.47,2.16c-0.33,0.279-0.77,0.58-0.77,1.07c0,0.489-0.16,1.811,0.19,2.051c0.36,0.25,1.64,0.08,1.64,0.08
		h45.352c0.41,0,0.74-0.9,0.83-2.051C48.105,71.741,47.366,71.721,46.875,71.551z M7.564,70.161c-0.41,1.069-1.09,1.64-1.5,1.39
		c-0.42-0.24-0.58-2.398-0.58-3.39c0-0.979,0.25-13.729,0.25-13.729s-0.17-5.802,0.33-6.041c0.49-0.25,1.25-0.391,1.58,0.521
		c0.33,0.899,0.74,7.601,0.74,10.341C8.384,61.98,7.974,69.091,7.564,70.161z M15.665,70.411c-0.5,0.819-1.84,1.438-2.411,1.34
		c-0.58-0.11-0.74-0.771-0.99-1.59c-0.24-0.82-0.16-10.83-0.16-10.83l0.08-10.861c0,0-0.08-1.149,0.33-1.479
		c0.41-0.33,1.34-0.41,2.16-0.08c0.82,0.33,1.48,1.97,1.64,3.801c0.17,1.83,0.33,10.09,0.33,12.58S16.154,69.581,15.665,70.411z"/>
	<path fill="#FFFFFF" d="M41.316,42.04c0.329-0.108,1.423-0.108,2.161-0.108c0.739,0,1.477-0.056,1.887,0.191
		c0.412,0.246,0.575,2.652,0,3.883c-0.574,1.23-0.081,4.296-0.081,6.292c0,1.997,0.246,7.713,0,9.521
		c-0.246,1.807-0.739,3.637-1.396,3.967c-0.657,0.328-1.012,0-1.257-0.246c-0.247-0.246-0.329-12.273-0.329-14.168
		c0-2.051,0.082-3.477-0.328-4.051c-0.411-0.573-1.232-0.573-1.313-0.983c-0.082-0.41-0.164-1.586,0-2.323
		C40.826,43.271,40.991,42.148,41.316,42.04z"/>
	<path fill="#FFFFFF" d="M94.655,36.331v0.725c-0.154,0.049-1.524,0.12-2.149,0.218c-1.398,0.242-1.813,1.062-1.917,2.761
		c-0.104,1.55-0.104,2.908-0.104,10.271v5.188c0,5.378-0.57,11.098-4.927,14.587c-3.68,2.958-7.414,3.491-10.785,3.491
		c-2.751,0-7.729-0.146-11.513-3.347c-2.645-2.229-4.618-5.814-4.618-12.843v-7.077c0-7.367,0-8.725-0.102-10.273
		c-0.104-1.647-0.519-2.425-2.229-2.761c-0.416-0.098-2.503-0.171-2.652-0.229V36.33h15.646v0.745
		c-0.132,0.038-1.379,0.101-2.002,0.199c-1.401,0.242-1.815,1.062-1.918,2.761c-0.103,1.55-0.103,2.908-0.103,10.271v6.789
		c0,7.024,1.502,9.982,4.045,11.922c2.334,1.791,4.719,1.984,6.481,1.984c2.281,0,5.081-0.68,7.154-2.613
		c2.854-2.668,3.01-7.029,3.01-12.021v-6.062c0-7.367,0-8.725-0.103-10.273c-0.104-1.647-0.518-2.425-2.229-2.761
		c-0.417-0.098-2.139-0.153-2.25-0.169V36.33L94.655,36.331L94.655,36.331z"/>
	<path fill="#FFFFFF" d="M119.457,41.134v0.675c0.294,0.047,2.405,0.071,3.08,0.325c1.086,0.421,1.489,1.22,1.533,3.792
		l0.032,18.576L99.101,40.407h-1.173v26.384c-0.044,3.663-0.417,4.891-1.589,5.227c-0.63,0.168-2.747,0.229-2.747,0.229v0.715
		h12.485v-0.732c0,0-2.343-0.043-3.108-0.297c-0.904-0.297-1.473-1.393-1.561-4.678V49.902c3.263,3.318,24.739,23.75,24.739,23.75
		h1.495l0.036-28.063c0.044-2.359,0.406-3.247,1.669-3.585c0.542-0.126,1.771-0.147,2.157-0.196v-0.676L119.457,41.134
		L119.457,41.134z"/>
	<path fill="#FFFFFF" d="M197.866,66.514c-0.334,1.215-0.869,3.233-2.428,3.815c-1.198,0.442-3.069,0.506-4.24,0.506
		c-4.602,0-5.323-0.633-5.413-3.54c-0.042-1.225,0-5.102,0-6.531v-3.328c0-0.254,0.046-0.425,0.272-0.425
		c1.081,0,5.547,0.042,6.4,0.126c1.672,0.17,2.303,0.803,2.529,1.645c0.136,0.548,0.136,1.094,0.178,1.519
		c0,0.026,0,0.052,0.004,0.376h0.626l0.748-7.076h-0.563c-0.109,0.336-0.372,0.453-0.497,0.588
		c-0.407,0.422-1.085,0.547-2.164,0.633c-1.039,0.082-6.224,0.082-7.215,0.082c-0.273,0-0.319-0.168-0.319-0.461l-0.015-11.086
		c0,0,6.952,0.152,7.58,0.291c2.631,0.58,2.407,2.094,2.449,3.377h0.879c0.083-0.66,0.563-5.865,0.563-5.865h-0.003h-28.496v0.709
		c0.539,0.01,0.645,0.014,0.752,0.014c0.586,0,1.262,0.042,1.802,0.212c0.405,0.126,0.585,0.464,0.585,0.802
		c0,0.377-0.18,1.011-0.404,1.559c-1.084,2.781-6.946,16.355-8.883,20.988h-0.181l-7.755-19.135c-0.632-1.518-1.04-2.697-1.04-3.244
		c0-0.381,0.137-0.676,0.453-0.886c0.334-0.231,0.933-0.286,2.415-0.294v-0.725h-22.779v0.681c4.337-0.159,3.855,2.574,3.855,2.574
		v25.343c0,0,0.482,2.732-3.855,2.573v0.655h13.373V72.32c-4.082,0-3.745-2.564-3.745-2.564V44.412c0,0-0.025-2.355,2.049-2.165
		c1.132,0.103,2.43,2.793,3.412,4.916l11.811,26.405h0.948c0,0,11.187-23.428,12.948-27.389c1.213-2.699,1.893-3.414,2.479-3.795
		c0.326-0.201,3.022-0.855,3.022,2.025c0,1.35,0.09,23.559-0.133,25.328c-0.182,1.222-0.406,2.147-1.311,2.316
		c-0.392,0.082-0.915,0.16-2.332,0.168v0.76c0.806,0.002,0.845,0,0.894,0h20.458c0.296-1.103,1.006-5.131,1.242-6.473
		L197.866,66.514L197.866,66.514z"/>
	<path fill="#FFFFFF" d="M253.138,69.757c0,0,0.482,2.734-3.855,2.575v0.652h13.373v-0.662c-4.085,0-3.744-2.564-3.744-2.564V44.412
		c0,0-0.342-2.564,3.744-2.564v-0.664h-13.373v0.653c4.337-0.157,3.855,2.574,3.855,2.574V69.757L253.138,69.757z"/>
	<path fill="#FFFFFF" d="M239.682,53.766l-1.266-0.885c-3.74-2.652-4.78-4.13-4.78-6.068c0-2.527,2.031-4.34,5.367-4.34
		c2.931,0,4.24,1.264,4.914,2.063c0.946,1.096,1.175,2.401,1.175,2.78c0,0.184,0.015,0.33,0.055,0.785h0.815l0.236-6.533
		c-0.164-0.317-2.858-1.024-6.61-1.036c-6.266-0.023-10.414,3.329-10.414,7.965c0,3.414,1.711,6.364,6.669,9.992l2.076,1.515
		c3.744,2.698,4.418,4.68,4.418,6.743c0,2.231-1.981,4.806-6.041,4.806c0,0-4.186,0.064-6.571-2.316
		c-2.38-2.385-5.771-6.363-9.785-11.084c4.555-3.457,5.952-6.322,5.952-9.443c0-2.822-1.803-4.973-3.065-5.771
		c-2.437-1.562-5.458-1.806-8.298-1.806h-13.44v0.747c0.058,0.004,4.31-0.335,4.31,2.536c0,1.351,0,23.543,0,25.328
		c0,2.748-3.159,2.491-3.722,2.496v0.729h13.936v-0.744c-2.408,0-4.509,0.019-4.509-2.481c0-1.784-0.225-9.608-0.225-9.608
		c0-0.834,4.869-0.211,5.093,0.043c0.585,0.633,2.661,3.494,4.464,5.814c2.526,3.244,3.36,4.267,4.975,5.445
		c0,0,7.732,5.127,17.423,0.412c2.896-1.41,4.24-4.89,4.24-7.334C247.077,60.512,245.093,57.688,239.682,53.766z M217.914,57.139
		c-0.809,0.551-1.4,0.717-3.199,0.717c-1.13,0-2.483-0.125-3.429-0.418c-0.314-0.129-0.403-0.299-0.403-0.763V43.861
		c0-0.336,0.089-0.506,0.403-0.59c0.45-0.125,1.265-0.168,2.391-0.168c2.661,0,6.9,1.727,6.9,7.713
		C220.576,54.271,219.27,56.211,217.914,57.139z"/>
	<path fill="#FFFFFF" d="M303.746,41.126v0.737c0.597,0.021,0.691,0.039,0.788,0.06c0.764,0.169,0.942,0.632,0.942,1.054
		c0,0.549-0.178,1.266-0.629,2.191c-0.632,1.309-6.311,10.58-6.764,11.592c-0.61-1-5.249-8.465-7.026-11.476
		c0,0-0.684-0.962-1.167-2.653c-0.214-0.749,1.598-0.75,1.598-0.75v-0.708h-28.83l-0.85,5.614c0,0,0,0,0.826,0
		c0.462-1.889,1.583-3.079,3.658-3.253c2.839-0.066,5.986,0,5.986,0v17.229c0,3.875,0,7.209-0.226,8.978
		c-0.135,1.222-0.406,2.147-1.308,2.315c-0.325,0.066-1.896,0.133-2.393,0.157v0.771h13.689v-0.779
		c-0.546-0.033-1.717-0.089-2.145-0.146c-1.35-0.166-1.622-1.096-1.757-2.272c-0.226-1.812-0.226-5.144-0.226-9.019V43.535h5.595
		c0.524,0.512,1.079,1.205,1.633,1.973c1.58,2.192,7.624,11.465,7.938,12.139c0.586,1.225,1.035,2.149,1.035,4.426v3.457
		c0,0.673,0,2.445-0.135,4.215c-0.088,1.222-0.492,2.148-1.396,2.316c-0.349,0.071-0.803,0.144-2.469,0.16v0.762h14.645V72.23
		c-1.357-0.002-2.346-0.086-2.979-0.172c-1.349-0.168-1.756-1.096-1.846-2.315c-0.135-1.771-0.135-3.542-0.135-4.216V62.07
		c0-1.391,0-2.696,0.674-4.215c0.812-1.812,7.126-11.715,8.614-13.401c0.992-1.138,1.488-1.642,2.435-2.063
		c0.68-0.339,1.533-0.507,1.983-0.507c0.059,0,0.112-0.002,0.814-0.006v-0.749h-10.572V41.126L303.746,41.126z"/>
	<path fill="#FFFFFF" d="M400.389,40.688c10.012,0,18.865,6.859,18.865,16.769c0,8.817-6.904,16.771-18.265,16.771
		c-10.009,0-18.861-6.862-18.861-16.771C382.129,48.641,389.033,40.688,400.389,40.688z M402.197,72.499
		c2.967,0,10.2-1.772,10.2-13.043c0-8.815-5.103-17.042-13.213-17.042c-2.964,0-10.196,1.771-10.196,13.043
		C388.987,64.271,394.084,72.499,402.197,72.499z"/>
	<path fill="#FFFFFF" d="M464.46,41.277v1.363c-3.201,0-3.94,1.045-4.916,3.951l-9.407,27.359h-1.345l-8.574-23.131h-0.094
		l-7.785,23.131h-1.393L420.793,46.82c-1.341-3.729-2.037-4.045-4.492-4.18v-1.363h13.625v1.363h-1.209
		c-1.524,0-2.455,0.682-2.455,1.905c0,0.456,0.095,0.955,0.652,2.456l6.673,18.498h0.093l7.832-24.813h0.834l9.038,24.9h0.094
		l5.563-18.314c0.323-1.138,0.555-2.088,0.555-2.588c0-1.547-1.25-2-3.476-2.045v-1.363H464.46z"/>
	<path fill="#FFFFFF" d="M485.234,68.909l-12.563-27.496h-0.783l-10.198,24.132c-2.551,6.089-3.431,6.543-6.631,6.727v1.364h11.126
		v-1.364c-2.875-0.045-3.435-0.543-3.435-1.729c0-0.453,0.093-1.09,1.253-4.271l1.345-3.682h10.615l1.855,4.271
		c0.975,2.271,1.297,3.228,1.297,3.727c0,1.227-0.742,1.684-3.336,1.684v1.363h14.183v-1.363
		C487.553,72.27,486.439,71.542,485.234,68.909z M465.947,60.865l4.262-11.658l5.005,11.658H465.947z"/>
	<path fill="#FFFFFF" d="M365.853,36.56v0.763c4.698,0,4.306,2.946,4.306,2.946v29.147l0.013-0.112c0,0-0.108,2.961-4.43,2.961
		v0.754h15.374v-0.767c-4.193,0-4.307-2.948-4.307-2.948V40.156c0,0-0.387-2.948,4.307-2.948v-0.762L365.853,36.56z"/>
	<path fill="#FFFFFF" d="M328.753,71.412c-6.01,0-9.61-5.163-9.61-11.678c0-7.793,4.101-9.795,7.702-9.795
		c5.132,0,9.17,4.351,9.17,11.362C336.015,70.352,330.944,71.412,328.753,71.412 M327.752,48.436c-9.392,0-12.93,6.92-12.93,12.272
		c0,5.541,3.63,12.271,12.616,12.271c7.951,0,12.96-5.664,12.96-12.834C340.398,52.977,335.545,48.436,327.752,48.436"/>
	<path fill="#FFFFFF" d="M357.262,48.625c-0.154,0-0.31,0.125-0.5,0.186c-0.31,0.097-0.688,0.097-1.281,0.127
		c-0.722,0.03-7.078,0.03-8.267,0.03c-0.903,0-2.878-0.093-4.509-0.093c-0.468,0-0.718,0.063-0.718,0.313
		c0,0.188,0.218,0.25,0.533,0.25c0.438,0,0.971,0.032,1.222,0.097c1.031,0.217,1.283,0.719,1.346,1.782
		c0.062,1,0.062,1.877,0.062,6.637v5.507c0,3.006,0,5.354-0.155,6.668c-0.13,0.907-0.284,1.601-0.908,1.724
		c-0.284,0.063-0.66,0.125-1.129,0.125c-0.345,0-0.47,0.094-0.47,0.252c0,0.248,0.218,0.313,0.658,0.313
		c1.19,0,3.166-0.098,3.976-0.098c0.813,0,2.787,0.098,4.76,0.098c0.47,0,0.688-0.098,0.688-0.313c0-0.158-0.126-0.252-0.533-0.252
		c-0.438,0-1.123-0.063-1.563-0.125c-0.938-0.123-1.128-0.814-1.222-1.724c-0.158-1.313-0.158-3.662-0.158-6.668v-2.534
		c0-0.219,0.064-0.283,0.22-0.283c0.532,0,3.852,0,4.63,0.096c0.971,0.127,1.44,0.688,1.6,1.128
		c0.124,0.375,0.187,0.752,0.187,0.969c0,0.22,0.063,0.438,0.251,0.438c0.315,0,0.315-0.313,0.315-0.594
		c0-0.223,0.063-1.66,0.123-2.285c0.093-0.972,0.249-1.752,0.249-1.941c0-0.188-0.061-0.281-0.186-0.281
		c-0.186,0-0.252,0.125-0.407,0.313c-0.315,0.408-0.753,0.535-1.345,0.565c-0.438,0.03-0.877,0.03-1.409,0.03l-4.007,0.031
		c-0.186,0-0.22-0.094-0.22-0.283v-7.825c0-0.345,0.097-0.438,0.282-0.438l4.821,0.095c1.188,0.032,1.847,0.502,2.065,0.94
		c0.19,0.438,0.19,0.938,0.19,1.188c0.03,0.344,0.092,0.5,0.31,0.5c0.22,0,0.283-0.187,0.313-0.438
		c0.063-0.377,0.125-2.224,0.155-2.535c0.097-0.813,0.251-1.189,0.251-1.408C357.482,48.749,357.39,48.625,357.262,48.625"/>
	<path fill="#FFFFFF" d="M727.133,71.691c-7.917,0-12.661-6.806-12.661-15.381c0-10.27,5.402-12.908,10.146-12.908
		c6.765,0,12.083,5.732,12.083,14.97C736.702,70.291,730.02,71.691,727.133,71.691 M725.814,41.424
		c-12.371,0-17.029,9.114-17.029,16.166c0,7.297,4.781,16.165,16.617,16.165c10.476,0,17.07-7.464,17.07-16.905
		C742.473,47.404,736.083,41.424,725.814,41.424"/>
	<path fill="#FFFFFF" d="M533.616,71.477c1.623-2.502,1.392-7.517,1.392-7.517h-1.161c-0.198,0.634-0.229,0.756-0.262,0.914
		c-0.207,0.856-0.872,2.235-1.748,3.142c-2.053,2.188-4.829,2.664-9.399,2.664c-6.877,0-16.172-5.611-16.172-16.937
		c0-4.614,0.979-9.132,4.728-12.319c2.259-1.902,5.186-2.949,9.646-2.949c4.729,0,8.734,1.283,10.43,2.949
		c1.142,1.1,1.982,2.344,1.96,5.43h1.193v-9.347c-0.104-0.038-0.229-0.068-0.382-0.08c-1.539-0.143-3.185-0.571-5.138-0.808
		c-2.362-0.284-4.262-0.477-7.447-0.477c-7.643,0-12.525,1.904-16.224,5.042c-4.931,4.188-6.011,9.801-6.011,13.035
		c0,4.616,1.339,9.942,6.372,14.033c4.675,3.759,10.579,5.188,17.609,5.188c3.29,0,8.974-0.323,9.611-0.666
		C533.178,72.475,533.268,72.014,533.616,71.477z"/>
	<path fill="#FFFFFF" d="M998.181,42.114c-0.2,0-0.444,0.118-0.646,0.159c-0.324,0.082-0.973,0.162-1.742,0.242
		c-0.77,0.041-8.779,0.041-10.068,0.041c-1.125,0-3.657-0.121-5.791-0.121c-0.604,0-0.886,0.082-0.886,0.36
		c0,0.283,0.242,0.363,0.687,0.363c0.563,0,1.247,0.04,1.568,0.121c1.326,0.278,1.646,0.925,1.728,2.293
		c0.082,1.286,0.082,2.413,0.082,8.53v7.08c0,3.697,0,6.879-0.201,8.567c-0.16,1.166-0.361,2.049-1.166,2.21
		c-0.361,0.081-0.844,0.162-1.447,0.162c-0.483,0-0.646,0.121-0.646,0.324c0,0.281,0.281,0.402,0.804,0.402
		c1.611,0,4.145-0.121,5.07-0.121c2.375,0,5.067,0.241,11.157,0.241c1.537,0,1.904,0,2.188-1.051
		c0.199-0.803,0.522-3.538,0.522-4.462c0-0.402,0-0.727-0.323-0.727c-0.281,0-0.361,0.162-0.441,0.604
		c-0.285,1.646-0.771,2.494-1.824,2.979c-1.053,0.479-2.754,0.479-3.797,0.479c-4.104,0-4.746-0.603-4.828-3.377
		c-0.039-1.17,0-4.869,0-6.235v-3.181c0-0.238,0.041-0.397,0.24-0.397c0.967,0,4.949,0.039,5.713,0.121
		c1.498,0.16,2.064,0.762,2.271,1.563c0.121,0.522,0.121,1.049,0.16,1.453c0,0.196,0.082,0.356,0.364,0.356
		c0.363,0,0.363-0.438,0.363-0.762c0-0.281,0.08-1.893,0.16-2.695c0.125-2.054,0.326-2.693,0.326-2.937s-0.121-0.323-0.283-0.323
		c-0.203,0-0.365,0.202-0.646,0.525c-0.364,0.397-0.975,0.521-1.944,0.601c-0.931,0.081-5.558,0.081-6.439,0.081
		c-0.24,0-0.281-0.16-0.281-0.439V44.968c0-0.28,0.08-0.401,0.281-0.401c0.805,0,5.027,0.082,5.711,0.162
		c2.025,0.24,2.432,0.726,2.713,1.448c0.203,0.482,0.244,1.166,0.244,1.449c0,0.36,0.08,0.563,0.365,0.563
		c0.281,0,0.363-0.244,0.402-0.444c0.081-0.483,0.163-2.254,0.202-2.655c0.119-1.85,0.324-2.334,0.324-2.613
		C998.423,42.273,998.382,42.114,998.181,42.114"/>
	<path fill="#FFFFFF" d="M1016.389,71.323c-3.176,0-4.746-0.849-5.27-1.609c-0.32-0.442-0.4-2.054-0.441-3.059
		c-0.039-0.763-0.08-3.86-0.08-8.125v-5.067c0-3.179,0-6.683,0.041-8.05c0-0.444,0.119-0.644,0.48-0.806
		c0.322-0.16,1.811-0.281,2.615-0.281c3.139,0,7.723,0.484,11.424,4.023c1.73,1.651,3.861,4.951,3.861,10.061
		c0,4.143-0.805,7.806-3.379,10.017C1023.229,70.518,1020.491,71.323,1016.389,71.323 M1014.377,42.436
		c-2.412,0-4.947,0.121-6.193,0.121c-1.125,0-3.659-0.121-5.794-0.121c-0.604,0-0.885,0.08-0.885,0.36
		c0,0.283,0.242,0.363,0.685,0.363c0.563,0,1.248,0.04,1.569,0.121c1.327,0.28,1.647,0.925,1.729,2.293
		c0.08,1.286,0.08,2.413,0.08,8.528v7.08c0,3.699,0,6.879-0.201,8.569c-0.158,1.166-0.361,2.049-1.167,2.21
		c-0.359,0.081-0.846,0.162-1.447,0.162c-0.481,0-0.645,0.122-0.645,0.322c0,0.283,0.28,0.404,0.807,0.404
		c1.608,0,4.144-0.121,5.065-0.121c2.014,0,5.633,0.479,8.569,0.479c7.439,0,11.626-2.856,13.475-4.745
		c2.254-2.296,4.387-6.156,4.387-11.225c0-4.789-1.892-8.125-3.9-10.223C1026.125,42.436,1019.407,42.436,1014.377,42.436"/>
	<path fill="#FFFFFF" d="M1047.378,42.436c-1.526,0-3.899,0.121-4.906,0.121c-1.166,0-3.698-0.121-5.229-0.121
		c-0.646,0-0.967,0.08-0.967,0.32c0,0.323,0.239,0.404,0.645,0.404c0.48,0,1.006,0.04,1.447,0.16
		c0.887,0.203,1.287,0.886,1.367,2.254c0.079,1.287,0.079,2.414,0.079,8.529v7.08c0,3.9,0,7.08-0.2,8.771
		c-0.119,1.165-0.359,1.847-1.166,2.008c-0.363,0.081-0.847,0.162-1.449,0.162c-0.48,0-0.644,0.121-0.644,0.324
		c0,0.281,0.281,0.402,0.806,0.402c1.608,0,4.145-0.121,5.065-0.121c1.089,0,3.621,0.121,6.277,0.121
		c0.441,0,0.764-0.121,0.764-0.402c0-0.203-0.198-0.324-0.645-0.324c-0.604,0-1.488-0.081-2.053-0.162
		c-1.205-0.161-1.486-0.883-1.605-1.968c-0.162-1.729-0.162-4.91-0.162-8.813v-7.08c0-6.115,0-7.242,0.082-8.528
		c0.08-1.41,0.4-2.093,1.484-2.293c0.484-0.081,0.807-0.121,1.209-0.121s0.645-0.081,0.645-0.404
		C1048.226,42.516,1047.902,42.436,1047.378,42.436"/>
	<path fill="#FFFFFF" d="M1067.639,41.873c-5.991,0-9.813,1.609-12.711,4.264c-3.859,3.545-4.706,8.291-4.706,11.026
		c0,3.899,1.045,8.407,4.985,11.864c3.662,3.182,8.287,4.388,13.799,4.388c2.574,0,5.634-0.282,7.241-0.924
		c0.686-0.282,0.848-0.485,1.045-1.167c0.404-1.367,0.887-4.869,0.887-5.352c0-0.322-0.08-0.604-0.36-0.604
		c-0.322,0-0.402,0.162-0.523,0.804c-0.158,0.728-0.686,1.894-1.367,2.658c-1.606,1.849-3.779,2.251-7.361,2.251
		c-5.39,0-12.671-4.748-12.671-14.322c0-3.9,0.765-7.722,3.699-10.422c1.771-1.607,4.063-2.493,7.563-2.493
		c3.701,0,6.839,1.085,8.167,2.493c1.006,1.048,1.526,2.456,1.567,3.706c0,0.563,0.082,0.89,0.4,0.89
		c0.363,0,0.445-0.324,0.484-0.93c0.077-0.805,0.041-3.021,0.12-4.349c0.078-1.408,0.199-1.89,0.199-2.21
		c0-0.242-0.158-0.444-0.604-0.484c-1.207-0.119-2.492-0.482-4.021-0.684C1071.622,42.034,1070.133,41.873,1067.639,41.873"/>
	<path fill="#FFFFFF" d="M1091.351,42.436c-1.528,0-3.901,0.121-4.907,0.121c-1.166,0-3.701-0.121-5.229-0.121
		c-0.645,0-0.965,0.08-0.965,0.32c0,0.323,0.24,0.404,0.646,0.404c0.481,0,1.004,0.04,1.446,0.16
		c0.884,0.203,1.287,0.886,1.369,2.254c0.076,1.287,0.076,2.414,0.076,8.529v7.08c0,3.9,0,7.08-0.199,8.771
		c-0.121,1.165-0.362,1.847-1.164,2.008c-0.362,0.081-0.848,0.162-1.448,0.162c-0.484,0-0.646,0.121-0.646,0.324
		c0,0.281,0.279,0.402,0.806,0.402c1.606,0,4.143-0.121,5.065-0.121c1.086,0,3.621,0.121,6.277,0.121
		c0.44,0,0.764-0.121,0.764-0.402c0-0.203-0.201-0.324-0.645-0.324c-0.604,0-1.488-0.081-2.052-0.162
		c-1.207-0.161-1.487-0.883-1.608-1.968c-0.162-1.729-0.162-4.91-0.162-8.813v-7.08c0-6.115,0-7.242,0.082-8.528
		c0.08-1.41,0.401-2.093,1.488-2.293c0.479-0.081,0.805-0.121,1.207-0.121c0.401,0,0.643-0.081,0.643-0.404
		C1092.193,42.516,1091.873,42.436,1091.351,42.436"/>
	<path fill="#FFFFFF" d="M1098.858,41.751c-0.402,0-0.523,0.563-0.523,1.368l-0.358,23.816c-0.041,3.498-0.202,4.668-1.247,4.986
		c-0.566,0.161-1.289,0.202-1.813,0.202c-0.4,0-0.645,0.082-0.645,0.324c0,0.362,0.362,0.401,0.885,0.401
		c2.094,0,3.982-0.121,4.347-0.121c0.765,0,2.373,0.121,4.986,0.121c0.563,0,0.926-0.08,0.926-0.401c0-0.242-0.24-0.324-0.684-0.324
		c-0.644,0-1.408-0.041-2.093-0.283c-0.805-0.278-1.325-1.325-1.407-4.461l-0.441-16.896h0.121
		c0.725,0.763,5.188,5.793,9.574,10.138c4.184,4.144,9.331,9.412,11.864,11.826c0.442,0.442,0.926,0.883,1.366,0.883
		c0.363,0,0.525-0.356,0.525-1.248l0.44-25.385c0.041-2.255,0.359-3.101,1.488-3.419c0.48-0.121,0.806-0.121,1.207-0.121
		c0.48,0,0.726-0.121,0.726-0.363c0-0.32-0.404-0.359-0.927-0.359c-1.973,0-3.502,0.121-3.942,0.121
		c-0.845,0-2.775-0.121-4.867-0.121c-0.603,0-1.046,0.041-1.046,0.359c0,0.242,0.16,0.363,0.645,0.363c0.563,0,1.526,0,2.135,0.24
		c0.965,0.401,1.326,1.166,1.366,3.619l0.4,18.065h-0.201c-0.684-0.644-6.114-6.437-8.851-9.169
		c-5.871-5.834-11.988-12.395-12.469-12.918C1099.663,42.273,1099.301,41.751,1098.858,41.751"/>
	<path fill="#FFFFFF" d="M1149.116,42.114c-0.201,0-0.441,0.118-0.646,0.159c-0.322,0.082-0.965,0.162-1.729,0.242
		c-0.765,0.041-8.771,0.041-10.059,0.041c-1.125,0-3.659-0.121-5.791-0.121c-0.604,0-0.887,0.082-0.887,0.36
		c0,0.283,0.242,0.363,0.685,0.363c0.563,0,1.248,0.04,1.569,0.121c1.326,0.278,1.646,0.925,1.729,2.293
		c0.08,1.286,0.08,2.413,0.08,8.53v7.08c0,3.697,0,6.879-0.201,8.567c-0.16,1.166-0.359,2.049-1.166,2.21
		c-0.359,0.081-0.843,0.162-1.449,0.162c-0.48,0-0.643,0.121-0.643,0.324c0,0.281,0.282,0.402,0.807,0.402
		c1.607,0,4.143-0.121,5.068-0.121c2.37,0,5.065,0.241,11.144,0.241c1.527,0,1.891,0,2.17-1.051
		c0.201-0.803,0.521-3.538,0.521-4.462c0-0.402,0-0.727-0.32-0.727c-0.279,0-0.359,0.162-0.438,0.604
		c-0.283,1.646-0.767,2.494-1.813,2.979c-1.045,0.479-2.734,0.479-3.78,0.479c-4.104,0-4.746-0.603-4.828-3.377
		c-0.039-1.17,0-4.869,0-6.235v-3.181c0-0.238,0.041-0.397,0.24-0.397c0.967,0,4.948,0.039,5.714,0.121
		c1.488,0.16,2.052,0.762,2.252,1.563c0.121,0.522,0.121,1.049,0.162,1.453c0,0.196,0.078,0.356,0.359,0.356
		c0.362,0,0.362-0.438,0.362-0.762c0-0.281,0.08-1.893,0.162-2.695c0.119-2.054,0.32-2.693,0.32-2.937s-0.119-0.323-0.281-0.323
		c-0.201,0-0.36,0.202-0.645,0.525c-0.361,0.397-0.965,0.521-1.931,0.601c-0.926,0.081-5.554,0.081-6.438,0.081
		c-0.24,0-0.281-0.16-0.281-0.439V44.968c0-0.28,0.082-0.401,0.281-0.401c0.805,0,5.028,0.082,5.712,0.162
		c2.012,0.24,2.414,0.726,2.695,1.448c0.201,0.482,0.241,1.166,0.241,1.449c0,0.36,0.08,0.563,0.359,0.563
		c0.283,0,0.363-0.244,0.404-0.444c0.08-0.483,0.162-2.254,0.198-2.655c0.121-1.85,0.322-2.334,0.322-2.613
		C1149.358,42.273,1149.317,42.114,1149.116,42.114"/>
	<path fill="#FFFFFF" d="M565.064,73.748c-0.257,0.005-0.499,0.007-0.727,0.007c0.037,0,0.073,0,0.109,0
		C564.679,73.754,564.883,73.752,565.064,73.748 M544.776,61.245c-0.159,0-0.2-0.122-0.159-0.283l3.7-9.896
		c0.04-0.159,0.12-0.36,0.24-0.36c0.121,0,0.162,0.201,0.202,0.36l3.62,9.938c0.04,0.121,0,0.242-0.203,0.242L544.776,61.245
		 M549.563,42.458c-0.401,0-0.645,0.442-1.125,1.608l-10.1,25.265c-0.802,2.01-1.565,3.379-3.417,3.621
		c-0.323,0.04-0.885,0.081-1.247,0.081c-0.322,0-0.482,0.078-0.482,0.32c0,0.318,0.241,0.399,0.764,0.399
		c2.092,0,4.304-0.119,4.748-0.119c1.246,0,2.976,0.119,4.264,0.119c0.442,0,0.686-0.081,0.686-0.399c0-0.242-0.121-0.32-0.604-0.32
		h-0.604c-1.247,0-1.607-0.524-1.607-1.25c0-0.482,0.2-1.446,0.604-2.452l2.173-5.754c0.079-0.24,0.159-0.32,0.359-0.32h8.975
		c0.2,0,0.319,0.08,0.399,0.28l3.219,8.527c0.201,0.482-0.081,0.848-0.363,0.928c-0.402,0.041-0.563,0.119-0.563,0.361
		c0,0.28,0.48,0.28,1.207,0.318c3.132,0.079,5.996,0.081,7.484,0.081c-0.521-0.001-0.798-0.12-0.798-0.399
		c0-0.201,0.159-0.32,0.641-0.32c0.271,0,0.519-0.018,0.739-0.042c-0.269-0.024-0.546-0.063-0.825-0.12
		c-0.845-0.201-2.012-0.766-3.54-4.389c-2.574-6.111-9.009-22.523-9.975-24.737C550.168,42.82,549.926,42.458,549.563,42.458"/>
	<path fill="#FFFFFF" d="M564.329,73.754c0.001,0,0.003,0,0.004,0c0.002,0,0.004,0,0.006,0
		C564.335,73.754,564.332,73.754,564.329,73.754 M575.153,59.314c-1.004,0-2.21-0.123-3.057-0.403
		c-0.28-0.121-0.359-0.282-0.359-0.726V45.958c0-0.322,0.079-0.483,0.359-0.563c0.401-0.121,1.125-0.16,2.131-0.16
		c2.373,0,6.156,1.648,6.156,7.36c0,3.3-1.168,5.15-2.375,6.034C577.285,59.152,576.763,59.314,575.153,59.314 M574.992,43.343
		c-1.247,0-4.303,0.121-5.67,0.121c-0.847,0-3.379-0.121-5.513-0.121c-0.603,0-0.885,0.082-0.885,0.362
		c0,0.281,0.242,0.361,0.686,0.361c0.563,0,1.247,0.041,1.568,0.121c1.327,0.281,1.648,0.926,1.729,2.293
		c0.081,1.287,0.081,2.412,0.081,8.528v7.081c0,3.699,0,6.878-0.202,8.566c-0.16,1.166-0.361,2.053-1.166,2.214
		c-0.2,0.045-0.438,0.09-0.71,0.12c0.31,0.029,0.604,0.042,0.862,0.042c0.323,0,0.524,0.038,0.524,0.319
		c0,0.271-0.259,0.371-1.233,0.396c1.562-0.022,3.521-0.112,4.178-0.112c0.603,0,3.582,0.119,5.913,0.119
		c0.523,0,0.805-0.119,0.805-0.4c0-0.201-0.16-0.319-0.482-0.319c-0.482,0-1.366-0.081-1.973-0.162
		c-1.206-0.161-1.446-1.048-1.566-2.214c-0.198-1.688-0.198-4.867-0.198-8.606v-0.563c0-0.24,0.119-0.321,0.318-0.321l3.5,0.081
		c0.282,0,0.522,0.041,0.726,0.279c0.521,0.604,2.373,3.339,3.979,5.552c2.254,3.099,3.783,4.989,5.512,5.915
		c1.048,0.563,2.052,0.763,4.307,0.763h3.822c0.479,0,0.762-0.081,0.762-0.399c0-0.201-0.16-0.32-0.48-0.32
		c-0.321,0-0.684-0.041-1.129-0.121c-0.602-0.121-2.25-0.402-4.504-2.736c-2.374-2.492-5.148-6.074-8.728-10.578
		c4.063-3.3,5.309-6.035,5.309-9.013c0-2.696-1.608-4.748-2.733-5.512C580.222,43.584,577.527,43.343,574.992,43.343"/>
	<path fill="#FFFFFF" d="M564.91,72.991c-0.224,0.024-0.468,0.042-0.739,0.042c-0.481,0-0.641,0.119-0.641,0.32
		c0,0.279,0.276,0.398,0.798,0.399c0.003,0,0.007,0,0.011,0c0.226,0,0.47-0.002,0.725-0.007c0.978-0.021,1.234-0.124,1.234-0.396
		c0-0.279-0.202-0.318-0.525-0.318C565.513,73.033,565.219,73.021,564.91,72.991"/>
	<path fill="#FFFFFF" d="M608.692,42.616c-0.769,0-1.13,0.081-1.13,0.401c0,0.281,0.324,0.321,0.687,0.321
		c0.522,0,1.125,0.041,1.61,0.202c0.358,0.12,0.521,0.441,0.521,0.766c0,0.36-0.162,0.965-0.361,1.486
		c-0.968,2.656-6.195,15.609-7.927,20.032h-0.16l-6.918-18.263c-0.563-1.448-0.926-2.574-0.926-3.099
		c0-0.362,0.119-0.644,0.402-0.845c0.321-0.241,0.926-0.282,1.567-0.282c0.359,0,0.604-0.081,0.604-0.36
		c0-0.283-0.441-0.362-0.926-0.362c-2.013,0-3.941,0.12-4.945,0.12c-1.41,0-3.702-0.12-5.835-0.12c-0.604,0-1.045,0.038-1.045,0.362
		c0,0.239,0.119,0.36,0.481,0.36c0.32,0,0.963,0,1.566,0.161c1.449,0.402,2.134,0.846,3.06,3.059l10.138,24.578
		c0.764,1.893,1.006,2.454,1.528,2.454c0.563,0,0.806-0.644,1.851-2.978c0.885-2.014,2.774-6.396,5.352-12.271
		c2.173-4.946,3.259-7.118,4.827-10.901c1.086-2.572,1.688-3.258,2.211-3.619c0.361-0.238,0.748-0.359,1.098-0.422
		c-0.348-0.041-0.813-0.062-1.217-0.062c-0.438,0-0.684-0.081-0.684-0.36c0-0.146,0.073-0.236,0.227-0.293
		c-0.604,0.026-1.135,0.051-1.432,0.051C612.392,42.736,610.701,42.616,608.692,42.616 M616.697,42.616
		c-0.195,0-0.408,0.003-0.633,0.008c0.356,0.006,0.719,0.013,1.073,0.022C617.013,42.625,616.867,42.616,616.697,42.616"/>
	<path fill="#FFFFFF" d="M615.005,42.616c-0.293,0-0.51,0.019-0.656,0.071c0.554-0.024,1.164-0.052,1.718-0.063
		C615.708,42.619,615.351,42.616,615.005,42.616 M633.261,42.294c-0.201,0-0.44,0.121-0.645,0.161
		c-0.322,0.081-0.967,0.161-1.729,0.24c-0.766,0.041-8.803,0.041-10.09,0.041c-0.762,0-2.17-0.055-3.662-0.09
		c0.256,0.043,0.402,0.143,0.402,0.332c0,0.279-0.24,0.36-0.644,0.36c-0.205,0-0.52,0-0.875,0.063
		c0.142,0.017,0.261,0.035,0.353,0.059c1.33,0.281,1.647,0.925,1.729,2.292c0.08,1.288,0.08,2.413,0.08,8.528v7.078
		c0,3.701,0,6.881-0.201,8.567c-0.161,1.168-0.362,2.054-1.168,2.214c-0.36,0.079-0.844,0.159-1.444,0.159
		c-0.484,0-0.646,0.122-0.646,0.325c0,0.279,0.279,0.4,0.806,0.4c1.608,0,4.143-0.121,5.065-0.121c2.379,0,5.094,0.242,11.174,0.242
		c1.529,0,1.894,0,2.174-1.049c0.201-0.806,0.522-3.539,0.522-4.465c0-0.402,0-0.724-0.321-0.724c-0.28,0-0.36,0.159-0.442,0.604
		c-0.279,1.647-0.765,2.492-1.812,2.978c-1.045,0.481-2.731,0.481-3.778,0.481c-4.121,0-4.771-0.604-4.853-3.38
		c-0.039-1.166,0-4.866,0-6.233v-3.178c0-0.242,0.041-0.402,0.242-0.402c0.973,0,4.971,0.039,5.733,0.121
		c1.488,0.162,2.054,0.765,2.255,1.567c0.116,0.523,0.116,1.046,0.157,1.449c0,0.2,0.08,0.36,0.363,0.36
		c0.361,0,0.361-0.441,0.361-0.764c0-0.283,0.08-1.891,0.16-2.695c0.123-2.051,0.321-2.693,0.321-2.938c0-0.24-0.12-0.32-0.28-0.32
		c-0.201,0-0.361,0.199-0.646,0.522c-0.363,0.403-0.967,0.522-1.93,0.603c-0.926,0.082-5.568,0.082-6.459,0.082
		c-0.242,0-0.283-0.162-0.283-0.441V45.15c0-0.282,0.082-0.403,0.283-0.403c0.811,0,5.051,0.081,5.733,0.162
		c2.013,0.241,2.412,0.724,2.693,1.446c0.201,0.482,0.242,1.168,0.242,1.449c0,0.36,0.078,0.563,0.361,0.563
		c0.28,0,0.36-0.242,0.401-0.444c0.08-0.481,0.16-2.251,0.201-2.651c0.119-1.853,0.322-2.334,0.322-2.616
		C633.503,42.455,633.462,42.294,633.261,42.294"/>
	<path fill="#FFFFFF" d="M616.064,42.624c-0.552,0.015-1.162,0.04-1.716,0.063c-0.151,0.055-0.227,0.146-0.227,0.291
		c0,0.279,0.242,0.36,0.684,0.36c0.402,0,0.867,0.021,1.218,0.063c0.354-0.063,0.672-0.063,0.875-0.063
		c0.399,0,0.643-0.081,0.643-0.36c0-0.19-0.146-0.289-0.402-0.332C616.783,42.637,616.421,42.629,616.064,42.624"/>
	<path fill="#FFFFFF" d="M650.094,58.586c-1.004,0-2.213-0.121-3.057-0.4c-0.281-0.121-0.361-0.283-0.361-0.725V45.23
		c0-0.32,0.08-0.482,0.361-0.563c0.402-0.12,1.127-0.16,2.131-0.16c2.375,0,6.156,1.649,6.156,7.363
		c0,3.298-1.168,5.146-2.373,6.032C652.227,58.425,651.706,58.586,650.094,58.586 M649.934,42.616c-1.248,0-4.303,0.12-5.672,0.12
		c-0.844,0-3.377-0.12-5.51-0.12c-0.604,0-0.885,0.081-0.885,0.362c0,0.279,0.238,0.36,0.684,0.36c0.563,0,1.246,0.041,1.568,0.121
		c1.328,0.281,1.646,0.925,1.729,2.292c0.08,1.288,0.08,2.413,0.08,8.528v7.079c0,3.701,0,6.88-0.201,8.566
		c-0.159,1.168-0.358,2.055-1.166,2.213c-0.36,0.08-0.844,0.16-1.444,0.16c-0.484,0-0.646,0.122-0.646,0.325
		c0,0.28,0.283,0.401,0.808,0.401c1.608,0,4.143-0.121,4.905-0.121c0.604,0,3.578,0.121,5.912,0.121
		c0.523,0,0.806-0.121,0.806-0.401c0-0.203-0.16-0.325-0.48-0.325c-0.484,0-1.369-0.08-1.971-0.16
		c-1.209-0.158-1.447-1.045-1.568-2.213c-0.203-1.688-0.203-4.865-0.203-8.605v-0.563c0-0.241,0.121-0.321,0.324-0.321l3.496,0.08
		c0.283,0,0.523,0.041,0.725,0.282c0.525,0.603,2.375,3.338,3.984,5.552c2.251,3.096,3.78,4.985,5.511,5.911
		c1.045,0.564,2.051,0.769,4.303,0.769h3.822c0.482,0,0.767-0.082,0.767-0.401c0-0.203-0.162-0.325-0.484-0.325
		c-0.32,0-0.684-0.039-1.125-0.119c-0.604-0.119-2.254-0.4-4.504-2.736c-2.375-2.491-5.15-6.071-8.731-10.578
		c4.065-3.299,5.313-6.034,5.313-9.01c0-2.695-1.607-4.75-2.734-5.512C655.165,42.857,652.469,42.616,649.934,42.616"/>
	<path fill="#FFFFFF" d="M755.58,42.616c-1.57,0-4.504,0.12-5.471,0.12c-1.086,0-3.62-0.12-5.514-0.12
		c-0.604,0-0.883,0.081-0.883,0.362c0,0.279,0.24,0.36,0.682,0.36c0.523,0,1.007,0.041,1.328,0.121
		c1.326,0.281,1.648,0.925,1.73,2.292c0.08,1.288,0.08,2.413,0.08,8.528v7.079c0,3.701,0,6.88-0.201,8.566
		c-0.162,1.168-0.361,2.055-1.166,2.213c-0.363,0.08-0.846,0.16-1.449,0.16c-0.479,0-0.643,0.122-0.643,0.325
		c0,0.28,0.281,0.401,0.805,0.401c1.609,0,4.145-0.121,5.071-0.121c3.258,0,5.91,0.242,11.701,0.242
		c2.094,0,2.295-0.203,2.534-1.088c0.32-1.168,0.605-4.187,0.605-4.627c0-0.481-0.041-0.685-0.324-0.685
		c-0.32,0-0.399,0.241-0.44,0.603c-0.08,0.767-0.563,1.892-1.045,2.416c-1.007,1.084-2.574,1.125-4.707,1.125
		c-3.138,0-4.185-0.281-4.867-0.886c-0.844-0.726-0.844-3.5-0.844-8.647v-7.08c0-6.114,0-7.239,0.077-8.527
		c0.082-1.407,0.404-2.092,1.488-2.292c0.484-0.081,1.129-0.121,1.57-0.121c0.481,0,0.725-0.081,0.725-0.36
		C756.425,42.695,756.144,42.616,755.58,42.616"/>
	<path fill="#FFFFFF" d="M776.303,42.616c-1.567,0-4.505,0.12-5.472,0.12c-1.084,0-3.619-0.12-5.512-0.12
		c-0.603,0-0.884,0.081-0.884,0.362c0,0.279,0.24,0.36,0.687,0.36c0.521,0,1.004,0.041,1.326,0.121
		c1.325,0.281,1.646,0.925,1.729,2.292c0.08,1.288,0.08,2.413,0.08,8.528v7.079c0,3.701,0,6.88-0.201,8.566
		c-0.159,1.168-0.358,2.055-1.166,2.213c-0.358,0.08-0.844,0.16-1.446,0.16c-0.48,0-0.646,0.122-0.646,0.325
		c0,0.28,0.283,0.401,0.805,0.401c1.609,0,4.146-0.121,5.068-0.121c3.259,0,5.915,0.242,11.708,0.242
		c2.09,0,2.291-0.203,2.533-1.088c0.32-1.168,0.604-4.187,0.604-4.627c0-0.481-0.041-0.685-0.319-0.685
		c-0.322,0-0.404,0.241-0.443,0.603c-0.082,0.767-0.564,1.892-1.045,2.416c-1.006,1.084-2.576,1.125-4.707,1.125
		c-3.137,0-4.186-0.281-4.867-0.886c-0.844-0.726-0.844-3.5-0.844-8.647v-7.08c0-6.114,0-7.239,0.08-8.527
		c0.078-1.407,0.399-2.092,1.488-2.292c0.481-0.081,1.127-0.121,1.565-0.121c0.482,0,0.725-0.081,0.725-0.36
		C777.149,42.695,776.87,42.616,776.303,42.616"/>
	<path fill="#FFFFFF" d="M806.433,42.294c-0.2,0-0.442,0.121-0.645,0.161c-0.322,0.081-0.967,0.161-1.73,0.24
		c-0.764,0.041-8.77,0.041-10.056,0.041c-1.125,0-3.662-0.12-5.795-0.12c-0.604,0-0.883,0.081-0.883,0.362
		c0,0.279,0.24,0.36,0.682,0.36c0.564,0,1.25,0.041,1.57,0.121c1.326,0.281,1.647,0.925,1.729,2.292
		c0.082,1.288,0.082,2.413,0.082,8.528v7.079c0,3.701,0,6.88-0.203,8.566c-0.159,1.168-0.36,2.055-1.164,2.213
		c-0.362,0.08-0.846,0.16-1.448,0.16c-0.482,0-0.646,0.122-0.646,0.325c0,0.28,0.281,0.401,0.803,0.401
		c1.611,0,4.146-0.121,5.07-0.121c2.376,0,5.071,0.242,11.145,0.242c1.528,0,1.891,0,2.174-1.051
		c0.201-0.805,0.521-3.539,0.521-4.464c0-0.403,0-0.724-0.319-0.724c-0.281,0-0.363,0.16-0.443,0.604
		c-0.281,1.648-0.766,2.493-1.811,2.979c-1.048,0.48-2.734,0.48-3.781,0.48c-4.104,0-4.746-0.604-4.826-3.379
		c-0.041-1.166,0-4.867,0-6.234V58.18c0-0.242,0.039-0.402,0.242-0.402c0.963,0,4.944,0.039,5.709,0.121
		c1.487,0.162,2.055,0.766,2.254,1.568c0.121,0.523,0.121,1.045,0.16,1.449c0,0.2,0.08,0.361,0.362,0.361
		c0.361,0,0.361-0.442,0.361-0.764c0-0.283,0.08-1.892,0.162-2.695c0.121-2.051,0.318-2.694,0.318-2.938
		c0-0.239-0.119-0.319-0.279-0.319c-0.201,0-0.363,0.198-0.646,0.521c-0.36,0.402-0.967,0.521-1.932,0.604
		c-0.924,0.082-5.549,0.082-6.436,0.082c-0.242,0-0.281-0.162-0.281-0.442V45.15c0-0.282,0.08-0.403,0.281-0.403
		c0.805,0,5.024,0.081,5.713,0.162c2.012,0.241,2.412,0.724,2.69,1.446c0.201,0.482,0.242,1.168,0.242,1.449
		c0,0.36,0.082,0.563,0.363,0.563c0.278,0,0.36-0.242,0.399-0.444c0.082-0.481,0.162-2.251,0.203-2.651
		c0.121-1.853,0.32-2.334,0.32-2.616C806.673,42.455,806.634,42.294,806.433,42.294"/>
	<path fill="#FFFFFF" d="M826.327,42.053c-3.381,0-6.959,0.281-10.821,2.614c-3.662,2.213-7,6.718-7,13.153
		c0,11.104,8.729,15.771,18.585,15.771c3.14,0,7.08-0.441,9.695-1.811c0.479-0.282,0.521-0.363,0.521-1.448v-4.426
		c0-2.013,0-3.619,0.039-4.827c0.041-1.408,0.441-2.094,1.529-2.292c0.48-0.081,0.766-0.121,1.086-0.121
		c0.281,0,0.521-0.081,0.521-0.323c0-0.32-0.281-0.4-0.804-0.4c-1.327,0-3.459,0.121-4.707,0.121c-1.206,0-3.741-0.121-5.831-0.121
		c-0.564,0-0.849,0.082-0.849,0.4c0,0.242,0.242,0.323,0.604,0.323c0.563,0,1.25,0.04,1.569,0.121
		c1.326,0.28,1.688,0.924,1.729,2.292c0.041,1.208,0.041,2.734,0.041,4.746v3.781c0,0.686-0.16,1.207-0.764,1.488
		c-0.966,0.441-2.373,0.441-3.419,0.441c-8.487,0-14.001-6.477-14.001-15.125c0-4.948,1.449-7.964,3.699-9.854
		c2.819-2.334,5.755-2.496,7.966-2.496c4.548,0,7.767,1.852,8.972,3.14c1.049,1.126,1.248,2.414,1.369,3.339
		c0.041,0.32,0.12,0.521,0.401,0.521c0.32,0,0.441-0.203,0.441-0.846c0-5.027,0.28-6.154,0.28-6.598c0-0.282-0.079-0.442-0.563-0.48
		c-0.924-0.041-2.334-0.283-3.178-0.443C832.639,42.536,829.1,42.053,826.327,42.053"/>
	<path fill="#FFFFFF" d="M859.056,42.294c-0.198,0-0.44,0.121-0.643,0.161c-0.322,0.081-0.967,0.161-1.73,0.24
		c-0.764,0.041-8.768,0.041-10.057,0.041c-1.125,0-3.66-0.12-5.792-0.12c-0.604,0-0.887,0.081-0.887,0.362
		c0,0.279,0.242,0.36,0.684,0.36c0.563,0,1.249,0.041,1.571,0.121c1.326,0.281,1.646,0.925,1.729,2.292
		c0.08,1.288,0.08,2.413,0.08,8.528v7.079c0,3.701,0,6.88-0.198,8.566c-0.162,1.168-0.361,2.055-1.168,2.213
		c-0.359,0.08-0.845,0.16-1.449,0.16c-0.481,0-0.645,0.122-0.645,0.325c0,0.28,0.283,0.401,0.807,0.401
		c1.608,0,4.145-0.121,5.069-0.121c2.371,0,5.066,0.242,11.144,0.242c1.526,0,1.891,0,2.172-1.051
		c0.199-0.805,0.52-3.539,0.52-4.464c0-0.403,0-0.724-0.319-0.724c-0.281,0-0.359,0.16-0.441,0.604
		c-0.281,1.648-0.764,2.493-1.811,2.979c-1.045,0.48-2.734,0.48-3.779,0.48c-4.104,0-4.746-0.604-4.828-3.379
		c-0.039-1.166,0-4.867,0-6.234V58.18c0-0.242,0.041-0.402,0.24-0.402c0.967,0,4.947,0.039,5.711,0.121
		c1.49,0.162,2.053,0.766,2.256,1.568c0.119,0.523,0.119,1.045,0.16,1.449c0,0.2,0.078,0.361,0.359,0.361
		c0.36,0,0.36-0.442,0.36-0.764c0-0.283,0.082-1.892,0.162-2.695c0.121-2.051,0.322-2.694,0.322-2.938
		c0-0.239-0.119-0.319-0.281-0.319c-0.203,0-0.361,0.198-0.645,0.521c-0.361,0.402-0.968,0.521-1.931,0.604
		c-0.928,0.082-5.553,0.082-6.438,0.082c-0.24,0-0.281-0.162-0.281-0.442V45.15c0-0.282,0.082-0.403,0.281-0.403
		c0.805,0,5.026,0.081,5.711,0.162c2.012,0.241,2.414,0.724,2.695,1.446c0.2,0.482,0.241,1.168,0.241,1.449
		c0,0.36,0.08,0.563,0.361,0.563s0.361-0.242,0.402-0.444c0.08-0.481,0.162-2.251,0.201-2.651c0.118-1.853,0.319-2.334,0.319-2.616
		C859.298,42.455,859.259,42.294,859.056,42.294"/>
	<path fill="#FFFFFF" d="M706.287,71.477c1.621-2.5,1.393-7.517,1.393-7.517h-1.158c-0.2,0.634-0.229,0.756-0.262,0.914
		c-0.209,0.856-0.875,2.235-1.748,3.142c-2.057,2.188-4.829,2.664-9.402,2.664c-6.884,0-16.184-5.611-16.184-16.937
		c0-4.614,0.979-9.132,4.729-12.319c2.258-1.902,5.188-2.949,9.655-2.949c4.728,0,8.732,1.283,10.43,2.949
		c1.143,1.1,1.983,2.344,1.961,5.43h1.192v-9.347c-0.104-0.038-0.229-0.068-0.383-0.08c-1.539-0.143-3.182-0.571-5.138-0.808
		c-2.361-0.284-4.264-0.477-7.447-0.477c-7.651,0-12.533,1.904-16.232,5.042c-4.933,4.188-6.013,9.801-6.013,13.035
		c0,4.616,1.338,9.942,6.371,14.033c4.677,3.759,10.583,5.188,17.62,5.188c3.289,0,8.974-0.323,9.614-0.666
		C705.847,72.475,705.939,72.014,706.287,71.477z"/>
	<path fill="#FFFFFF" d="M887.673,71.902c-6.503,0-10.396-5.588-10.396-12.631c0-8.437,4.438-10.604,8.332-10.604
		c5.552,0,9.923,4.711,9.923,12.295C895.531,70.751,890.044,71.902,887.673,71.902 M886.588,47.041
		c-10.158,0-13.986,7.486-13.986,13.279c0,5.996,3.931,13.274,13.646,13.274c8.604,0,14.021-6.13,14.021-13.883
		C900.271,51.954,895.021,47.041,886.588,47.041"/>
	<path fill="#FFFFFF" d="M917.928,47.244c-0.168,0-0.338,0.136-0.543,0.205c-0.338,0.101-0.744,0.101-1.391,0.135
		c-0.777,0.032-7.653,0.032-8.94,0.032c-0.979,0-3.112-0.101-4.875-0.101c-0.508,0-0.776,0.067-0.776,0.338
		c0,0.205,0.233,0.271,0.573,0.271c0.478,0,1.052,0.035,1.32,0.104c1.117,0.234,1.391,0.779,1.457,1.932
		c0.064,1.085,0.064,2.031,0.064,7.181v5.958c0,3.252,0,5.794-0.169,7.215c-0.135,0.983-0.303,1.73-0.979,1.863
		c-0.307,0.068-0.711,0.139-1.219,0.139c-0.373,0-0.508,0.102-0.508,0.271c0,0.271,0.233,0.339,0.709,0.339
		c1.286,0,3.422-0.102,4.301-0.102c0.883,0,3.016,0.102,5.148,0.102c0.509,0,0.746-0.102,0.746-0.339
		c0-0.169-0.137-0.271-0.576-0.271c-0.476,0-1.22-0.07-1.695-0.139c-1.015-0.133-1.217-0.88-1.318-1.863
		c-0.17-1.421-0.17-3.963-0.17-7.215v-2.742c0-0.234,0.068-0.304,0.238-0.304c0.571,0,4.163,0,5.011,0.103
		c1.051,0.138,1.559,0.746,1.729,1.219c0.138,0.406,0.203,0.813,0.203,1.053c0,0.234,0.066,0.473,0.271,0.473
		c0.338,0,0.338-0.339,0.338-0.642c0-0.237,0.066-1.795,0.135-2.474c0.103-1.049,0.271-1.896,0.271-2.104
		c0-0.201-0.066-0.302-0.203-0.302c-0.201,0-0.271,0.133-0.438,0.339c-0.34,0.439-0.813,0.577-1.457,0.607
		c-0.475,0.033-0.946,0.033-1.524,0.033l-4.333,0.037c-0.205,0-0.238-0.102-0.238-0.308v-8.466c0-0.373,0.103-0.475,0.305-0.475
		l5.217,0.102c1.286,0.033,2,0.543,2.235,1.017c0.203,0.476,0.203,1.017,0.203,1.287c0.033,0.371,0.103,0.541,0.338,0.541
		c0.236,0,0.306-0.202,0.34-0.472c0.064-0.407,0.136-2.406,0.169-2.745c0.102-0.884,0.271-1.29,0.271-1.526
		C918.165,47.38,918.063,47.244,917.928,47.244"/>
	<path fill="#FFFFFF" d="M967.778,34.615c-0.455,0-0.756,0.403-1.109,1.212l-13.751,28.872l-13.801-28.517
		c-0.656-1.315-0.961-1.567-1.365-1.567c-0.406,0-0.707,0.454-0.859,1.313l-5.005,32.967c-0.254,1.719-0.657,3.688-2.073,3.994
		c-0.759,0.149-1.109,0.149-1.517,0.149c-0.504,0-0.809,0.101-0.809,0.354c0,0.455,0.401,0.558,0.908,0.558
		c1.616,0,4.045-0.154,5.006-0.154c0.911,0,3.185,0.154,5.31,0.154c0.758,0,1.211-0.103,1.211-0.558
		c0-0.256-0.354-0.354-0.758-0.354c-0.504,0-1.211-0.05-2.121-0.25c-0.859-0.206-1.52-0.659-1.52-1.619
		c0-0.813,0.053-1.469,0.151-2.376l2.629-20.126h0.203c1.771,3.795,4.804,10.166,5.256,11.228c0.607,1.416,4.603,9.149,5.814,11.479
		c0.809,1.52,1.313,2.525,1.77,2.525c0.455,0,0.707-0.457,1.869-2.834l11.021-22.953h0.201l3.034,22.248
		c0.203,1.416,0.054,2.074-0.252,2.176c-0.354,0.148-0.555,0.303-0.555,0.558c0,0.304,0.303,0.451,1.463,0.558
		c2.021,0.147,9,0.304,10.264,0.304c0.707,0,1.314-0.154,1.314-0.558c0-0.304-0.354-0.354-0.809-0.354
		c-0.658,0-1.67-0.049-3.138-0.505c-1.516-0.457-2.02-1.921-2.477-5.107l-4.601-31.244
		C968.536,35.119,968.233,34.615,967.778,34.615"/>
</g>
</svg>
