<?xml version="1.0" encoding="utf-8"?>
<!-- Generator: Adobe Illustrator 15.0.2, SVG Export Plug-In  -->
<!DOCTYPE svg PUBLIC "-//W3C//DTD SVG 1.1//EN" "http://www.w3.org/Graphics/SVG/1.1/DTD/svg11.dtd" [
	<!ENTITY ns_flows "http://ns.adobe.com/Flows/1.0/">
]>
<svg version="1.1"
	 xmlns="http://www.w3.org/2000/svg" xmlns:xlink="http://www.w3.org/1999/xlink" xmlns:a="http://ns.adobe.com/AdobeSVGViewerExtensions/3.0/"
	 x="0px" y="0px" width="654px" height="46px" viewBox="-7.571 -7.539 654 46" enable-background="new -7.571 -7.539 654 46"
	 xml:space="preserve">
<defs>
</defs>
<path fill="#FFC000" d="M22.869,23.966c-2.959,2.021-6.126,2.674-9.332,2.674C5.026,26.641,0,20.703,0,13.317
	C0,6.189,5.347,0,14.272,0c3.567,0,6.078,0.726,8.754,2.419v4.459c0,0.797-0.48,1.262-1.059,1.262c-0.768,0-1.169-0.178-1.572-1.19
	l-1.258-3.185c-0.407-1.013-2.721-1.594-4.866-1.594c-5.476,0-9.897,3.836-9.897,11.146c0,7.203,3.737,11.153,9.162,11.153
	c2.719,0,4.829-0.799,5.356-1.957l1.703-3.582c0.204-0.399,0.571-0.727,1.133-0.727c0.689,0,1.14,0.398,1.14,1.016V23.966z"/>
<path fill="#FFC000" d="M36.902,2.873c7.571,0,12.046,5.285,12.046,11.858c0,6.353-5.052,11.861-12.046,11.861
	c-7.577,0-12.052-5.287-12.052-11.861C24.851,8.381,29.901,2.873,36.902,2.873z M36.902,24.657c4.222,0,8.152-3.418,8.152-9.926
	c0-6.417-3.321-9.927-8.152-9.927c-4.227,0-8.155,3.416-8.155,9.927C28.748,21.147,32.068,24.657,36.902,24.657z"/>
<path fill="#FFC000" d="M52.635,5.642c0-0.583-0.25-0.774-0.535-0.838l-1.515-0.387c-0.473-0.126-0.764-0.257-0.764-0.548
	c0-0.453,0.472-0.614,1.017-0.614h7.065c0.545,0,1.014,0.161,1.014,0.614c0,0.291-0.292,0.422-0.76,0.548L56.64,4.804
	c-0.286,0.064-0.535,0.255-0.535,0.838v17.919c0,0.45,0.287,0.711,0.79,0.711h6.173c0.39,0,0.713-0.261,0.935-0.513l1.833-2.454
	c0.221-0.29,0.512-0.513,0.943-0.513c0.323,0,0.684,0.356,0.684,0.646c0,0.287-0.106,0.642-0.215,1.062l-1.01,3.702H50.837
	c-0.545,0-1.017-0.16-1.017-0.611c0-0.288,0.291-0.417,0.764-0.545l1.515-0.39c0.286-0.06,0.535-0.254,0.535-0.833V5.642z"/>
<path fill="#FFC000" d="M71.366,5.642c0-0.583-0.255-0.774-0.541-0.838l-1.514-0.387c-0.469-0.126-0.76-0.257-0.76-0.548
	c0-0.453,0.472-0.614,1.008-0.614h7.074c0.541,0,1.01,0.161,1.01,0.614c0,0.291-0.29,0.422-0.755,0.548l-1.516,0.387
	c-0.29,0.064-0.541,0.255-0.541,0.838v17.919c0,0.45,0.284,0.711,0.791,0.711h6.165c0.402,0,0.726-0.261,0.942-0.513l1.842-2.454
	c0.213-0.29,0.502-0.513,0.934-0.513c0.321,0,0.689,0.356,0.689,0.646c0,0.287-0.111,0.642-0.219,1.062l-1.005,3.702H69.56
	c-0.536,0-1.008-0.16-1.008-0.611c0-0.288,0.291-0.417,0.76-0.545l1.514-0.39c0.286-0.06,0.541-0.254,0.541-0.833V5.642z"/>
<path fill="#FFC000" d="M90.098,5.642c0-0.583-0.25-0.774-0.549-0.838l-1.506-0.387c-0.474-0.126-0.764-0.257-0.764-0.548
	c0-0.453,0.469-0.614,1.017-0.614h15.542l0.361,3.161c0.033,0.259,0.033,0.513,0.033,0.77c0,0.391-0.323,0.81-0.793,0.81
	c-0.29,0-0.573-0.162-0.792-0.612l-0.906-1.774c-0.141-0.256-0.356-0.417-0.75-0.417h-7.43v8.314h6.235
	c0.542,0,0.906-0.127,1.05-0.612l0.398-1.226c0.095-0.356,0.32-0.548,0.719-0.548c0.576,0,0.792,0.129,0.792,0.678v5.348
	c0,0.549-0.217,0.68-0.792,0.68c-0.399,0-0.624-0.197-0.719-0.546l-0.398-1.227c-0.144-0.485-0.507-0.61-1.05-0.61H93.56v8.118
	c0,0.45,0.281,0.711,0.792,0.711h6.567c0.395,0,0.722-0.261,0.935-0.513l1.84-2.454c0.215-0.29,0.505-0.513,0.937-0.513
	c0.325,0,0.689,0.356,0.689,0.646c0,0.287-0.111,0.642-0.22,1.062l-1.012,3.702H88.295c-0.547,0-1.017-0.16-1.017-0.611
	c0-0.288,0.29-0.417,0.764-0.545l1.506-0.39c0.299-0.06,0.549-0.254,0.549-0.833V5.642z"/>
<path fill="#FFC000" d="M128.016,8.928c0,0.776-0.507,0.935-1.05,0.935c-0.615,0-0.938-0.253-1.153-0.838l-0.935-2.35
	c-0.549-1.355-2.023-1.872-4.189-1.872c-6.058,0-9.162,4.19-9.162,9.927c0,6.417,3.326,9.926,8.152,9.926
	c2.017,0.064,4.039-0.708,5.231-1.479v-4.804c0-0.257-0.146-0.354-0.361-0.419l-1.621-0.577c-0.328-0.129-0.58-0.423-0.58-0.68
	c0-0.388,0.215-0.582,0.684-0.582h7.647c0.47,0,0.688,0.194,0.688,0.582c0,0.257-0.252,0.485-0.575,0.583l-1.736,0.611
	c-0.323,0.098-0.469,0.29-0.469,0.611v5.123c-2.092,1.906-5.409,3-8.872,2.967c-7.615,0-12.084-5.287-12.084-11.861
	c0-6.35,5.263-11.858,12.549-11.858c3.396,0,5.564,0.863,7.833,2.253V8.928z"/>
<path fill="#FFC000" d="M135.307,5.642c0-0.583-0.25-0.774-0.536-0.838l-1.517-0.387c-0.467-0.126-0.76-0.257-0.76-0.548
	c0-0.453,0.47-0.614,1.014-0.614h15.543l0.361,3.161c0.038,0.259,0.038,0.513,0.038,0.77c0,0.391-0.321,0.81-0.793,0.81
	c-0.292,0-0.577-0.162-0.792-0.612l-0.906-1.774c-0.142-0.256-0.356-0.417-0.755-0.417h-7.428v8.314h6.235
	c0.54,0,0.91-0.127,1.043-0.612l0.398-1.226c0.113-0.356,0.328-0.548,0.726-0.548c0.574,0,0.788,0.129,0.788,0.678v5.348
	c0,0.549-0.214,0.68-0.788,0.68c-0.398,0-0.613-0.197-0.726-0.546l-0.398-1.227c-0.133-0.485-0.503-0.61-1.043-0.61h-6.235v8.118
	c0,0.45,0.286,0.711,0.793,0.711h6.56c0.398,0,0.727-0.261,0.939-0.513l1.842-2.454c0.219-0.29,0.502-0.513,0.935-0.513
	c0.328,0,0.688,0.356,0.688,0.646c0,0.287-0.112,0.642-0.215,1.062l-1.014,3.702h-15.795c-0.544,0-1.014-0.16-1.014-0.611
	c0-0.288,0.293-0.417,0.76-0.545l1.517-0.39c0.286-0.06,0.536-0.254,0.536-0.833V5.642z"/>
<path fill="#FFC000" d="M172.979,2.873c7.576,0,12.044,5.285,12.044,11.858c0,6.353-5.048,11.861-12.044,11.861
	c-7.572,0-12.047-5.287-12.047-11.861C160.932,8.381,165.98,2.873,172.979,2.873z M172.979,24.657c4.217,0,8.154-3.418,8.154-9.926
	c0-6.417-3.316-9.927-8.154-9.927c-4.223,0-8.152,3.416-8.152,9.927C164.827,21.147,168.144,24.657,172.979,24.657z"/>
<path fill="#FFC000" d="M188.464,5.642c0-0.583-0.252-0.774-0.541-0.838l-1.515-0.387c-0.469-0.126-0.755-0.257-0.755-0.548
	c0-0.453,0.465-0.614,1.008-0.614h15.543l0.36,3.161c0.038,0.259,0.038,0.513,0.038,0.77c0,0.391-0.324,0.81-0.797,0.81
	c-0.29,0-0.576-0.162-0.789-0.612l-0.901-1.774c-0.148-0.256-0.36-0.417-0.764-0.417h-7.426v8.314h6.24
	c0.542,0,0.905-0.127,1.045-0.612l0.396-1.226c0.111-0.356,0.324-0.548,0.726-0.548c0.571,0,0.793,0.129,0.793,0.678v5.348
	c0,0.549-0.222,0.68-0.793,0.68c-0.402,0-0.615-0.197-0.726-0.546l-0.396-1.227c-0.14-0.485-0.503-0.61-1.045-0.61h-6.24v8.381
	c0,0.578,0.14,0.735,0.436,0.833l1.362,0.39c0.51,0.128,0.726,0.288,0.726,0.68c0,0.255-0.179,0.476-0.611,0.476h-7.178
	c-0.542,0-1.008-0.16-1.008-0.611c0-0.288,0.286-0.417,0.755-0.545l1.515-0.39c0.288-0.06,0.541-0.254,0.541-0.833V5.642z"/>
<path fill="#FFC000" d="M214.488,3.114c0-0.654-0.281-0.868-0.6-0.943l-1.707-0.432c-0.522-0.15-0.854-0.294-0.854-0.618
	c0-0.507,0.527-0.689,1.131-0.689h7.951c0.616,0,1.143,0.183,1.143,0.689c0,0.324-0.328,0.468-0.857,0.618l-1.705,0.432
	c-0.324,0.075-0.607,0.289-0.607,0.943v20.122c0,0.505,0.323,0.802,0.893,0.802h6.932c0.45,0,0.815-0.297,1.056-0.581l2.066-2.754
	c0.241-0.324,0.568-0.581,1.056-0.581c0.361,0,0.772,0.398,0.772,0.722c0,0.332-0.126,0.73-0.241,1.202l-1.143,4.156h-17.316
	c-0.604,0-1.131-0.177-1.131-0.684c0-0.323,0.333-0.467,0.854-0.616l1.707-0.432c0.319-0.073,0.6-0.292,0.6-0.941V3.114z"/>
<path fill="#FFC000" d="M235.21,5.642c0-0.583-0.259-0.774-0.545-0.838l-1.519-0.387c-0.46-0.126-0.757-0.257-0.757-0.548
	c0-0.453,0.465-0.614,1.01-0.614h7.074c0.536,0,1.005,0.161,1.005,0.614c0,0.291-0.288,0.422-0.76,0.548l-1.508,0.387
	c-0.29,0.064-0.544,0.255-0.544,0.838v18.183c0,0.578,0.254,0.773,0.544,0.833l1.508,0.39c0.472,0.128,0.76,0.257,0.76,0.545
	c0,0.451-0.469,0.611-1.005,0.611h-7.074c-0.545,0-1.01-0.16-1.01-0.611c0-0.288,0.297-0.417,0.757-0.545l1.519-0.39
	c0.286-0.06,0.545-0.254,0.545-0.833V5.642z"/>
<path fill="#FFC000" d="M246.459,5.642c0-0.583-0.25-0.774-0.536-0.838l-1.519-0.387c-0.469-0.126-0.757-0.257-0.757-0.548
	c0-0.453,0.465-0.614,1.01-0.614h8.478c4.038,0,7.145,2.127,7.145,5.482c0,2.061-1.517,3.962-3.752,4.801v0.066
	c3.246,0.706,5.517,2.803,5.517,5.868c0,4.058-3.751,6.73-8.112,6.73h-9.275c-0.544,0-1.01-0.16-1.01-0.611
	c0-0.288,0.288-0.417,0.757-0.545l1.519-0.39c0.286-0.06,0.536-0.254,0.536-0.833V5.642z M249.92,12.83h2.346
	c2.89,0,4.332-1.679,4.332-4.093c0-1.937-1.366-3.544-4.149-3.544h-2.528V12.83z M249.92,23.561c0,0.45,0.292,0.711,0.797,0.711
	h2.276c3.605,0,5.371-2.413,5.371-4.8c0-2.648-1.804-4.709-5.517-4.709h-2.927V23.561z"/>
<path fill="#FFC000" d="M266.381,5.642c0-0.583-0.254-0.774-0.544-0.838l-1.515-0.387c-0.469-0.126-0.75-0.257-0.75-0.548
	c0-0.453,0.465-0.614,1.003-0.614h15.542l0.37,3.161c0.034,0.259,0.034,0.513,0.034,0.77c0,0.391-0.324,0.81-0.793,0.81
	c-0.29,0-0.583-0.162-0.792-0.612l-0.901-1.774c-0.146-0.256-0.366-0.417-0.76-0.417h-7.431v8.314h6.239
	c0.542,0,0.906-0.127,1.045-0.612l0.398-1.226c0.104-0.356,0.325-0.548,0.724-0.548c0.576,0,0.793,0.129,0.793,0.678v5.348
	c0,0.549-0.217,0.68-0.793,0.68c-0.398,0-0.62-0.197-0.724-0.546l-0.398-1.227c-0.139-0.485-0.503-0.61-1.045-0.61h-6.239v8.118
	c0,0.45,0.286,0.711,0.797,0.711h6.558c0.403,0,0.722-0.261,0.943-0.513l1.835-2.454c0.219-0.29,0.509-0.513,0.937-0.513
	c0.328,0,0.687,0.356,0.687,0.646c0,0.287-0.109,0.642-0.213,1.062l-1.012,3.702h-15.802c-0.538,0-1.003-0.16-1.003-0.611
	c0-0.288,0.281-0.417,0.75-0.545l1.515-0.39c0.29-0.06,0.544-0.254,0.544-0.833V5.642z"/>
<path fill="#FFC000" d="M286.441,5.642c0-0.583-0.25-0.774-0.536-0.838l-1.519-0.387c-0.464-0.126-0.755-0.257-0.755-0.548
	c0-0.453,0.465-0.614,1.012-0.614h8.44c5.153,0,7.896,2.127,7.896,6.256c0,2.479-2.121,4.961-4.829,5.866l4.979,8.798
	c0.139,0.259,0.319,0.385,0.608,0.482l1.267,0.39c0.826,0.226,1.005,0.354,1.005,0.708c0,0.323-0.324,0.447-0.645,0.447h-5.089
	l-5.662-10.149h-2.708v7.771c0,0.578,0.146,0.735,0.434,0.833l1.369,0.39c0.507,0.128,0.727,0.288,0.727,0.68
	c0,0.255-0.182,0.476-0.613,0.476h-7.179c-0.546,0-1.012-0.16-1.012-0.611c0-0.288,0.291-0.417,0.755-0.545l1.519-0.39
	c0.286-0.06,0.536-0.254,0.536-0.833V5.642z M289.906,14.123h2.238c2.779,0,5.376-1.391,5.376-4.58c0-2.71-1.371-4.351-4.869-4.351
	h-2.745V14.123z"/>
<path fill="#FFC000" d="M315.165,3.255h2.49l8.117,20.822c0.104,0.292,0.291,0.521,0.538,0.58l1.295,0.39
	c0.583,0.159,0.873,0.319,0.873,0.643c0,0.354-0.323,0.513-0.684,0.513h-7.25c-0.474,0-0.726-0.221-0.726-0.513
	c0-0.257,0.224-0.354,1.017-0.643l0.967-0.354c0.29-0.095,0.361-0.229,0.361-0.421c0-0.097-0.071-0.288-0.144-0.513l-1.587-4.194
	h-9.016l-1.518,3.965c-0.071,0.192-0.18,0.521-0.18,0.676c0,0.164,0.109,0.392,0.328,0.451l1.225,0.39
	c0.573,0.159,0.755,0.354,0.755,0.609c0,0.326-0.248,0.547-0.717,0.547h-6.458c-0.474,0-0.686-0.221-0.686-0.513
	c0-0.257,0.179-0.447,0.868-0.643l1.404-0.39c0.181-0.031,0.469-0.354,0.764-1.191L315.165,3.255z M312.317,17.249h7.211
	l-3.496-9.543h-0.071L312.317,17.249z"/>
<path fill="#FFC000" d="M331.841,5.642c0-0.583-0.252-0.774-0.54-0.838l-1.515-0.387c-0.469-0.126-0.757-0.257-0.757-0.548
	c0-0.453,0.464-0.614,1.005-0.614h7.078c0.536,0,1.005,0.161,1.005,0.614c0,0.291-0.29,0.422-0.759,0.548l-1.513,0.387
	c-0.29,0.064-0.542,0.255-0.542,0.838v17.919c0,0.45,0.285,0.711,0.792,0.711h6.168c0.394,0,0.722-0.261,0.938-0.513l1.843-2.454
	c0.217-0.29,0.502-0.513,0.938-0.513c0.318,0,0.678,0.356,0.678,0.646c0,0.287-0.108,0.642-0.213,1.062l-1.01,3.702h-15.405
	c-0.541,0-1.005-0.16-1.005-0.611c0-0.288,0.288-0.417,0.757-0.545l1.515-0.39c0.288-0.06,0.54-0.254,0.54-0.833V5.642z"/>
<path fill="#FFC000" d="M367.842,0.432h2.799l9.124,23.388c0.119,0.323,0.323,0.578,0.606,0.651l1.461,0.432
	c0.646,0.18,0.975,0.364,0.975,0.727c0,0.396-0.37,0.573-0.772,0.573h-8.152c-0.522,0-0.806-0.248-0.806-0.573
	c0-0.294,0.24-0.399,1.134-0.727l1.091-0.396c0.325-0.108,0.407-0.257,0.407-0.469c0-0.111-0.082-0.33-0.157-0.581l-1.793-4.709
	h-10.134l-1.698,4.455c-0.08,0.214-0.204,0.574-0.204,0.764c0,0.177,0.124,0.432,0.361,0.504l1.384,0.432
	c0.642,0.18,0.846,0.401,0.846,0.682c0,0.37-0.281,0.618-0.811,0.618h-7.256c-0.521,0-0.772-0.248-0.772-0.573
	c0-0.294,0.208-0.507,0.977-0.727l1.581-0.432c0.203-0.038,0.524-0.4,0.853-1.344L367.842,0.432z M364.636,16.141h8.107
	L368.816,5.43h-0.082L364.636,16.141z"/>
<path fill="#FFC000" d="M386.104,5.642c0-0.583-0.253-0.774-0.545-0.838l-1.52-0.387c-0.464-0.126-0.75-0.257-0.75-0.548
	c0-0.453,0.47-0.614,1.008-0.614h8.439c5.157,0,7.9,2.127,7.9,6.256c0,2.479-2.13,4.961-4.836,5.866l4.978,8.798
	c0.146,0.259,0.323,0.385,0.62,0.482l1.262,0.39c0.828,0.226,1.003,0.354,1.003,0.708c0,0.323-0.323,0.447-0.643,0.447h-5.09
	l-5.668-10.149h-2.696v7.771c0,0.578,0.142,0.735,0.427,0.833l1.375,0.39c0.501,0.128,0.718,0.288,0.718,0.68
	c0,0.255-0.18,0.476-0.616,0.476h-7.173c-0.538,0-1.008-0.16-1.008-0.611c0-0.288,0.286-0.417,0.75-0.545l1.52-0.39
	c0.292-0.06,0.545-0.254,0.545-0.833V5.642z M389.566,14.123h2.229c2.781,0,5.375-1.391,5.375-4.58c0-2.71-1.37-4.351-4.866-4.351
	h-2.738V14.123z"/>
<path fill="#FFC000" d="M410.958,5.193h-4.111c-0.432,0-0.613,0.127-0.792,0.417l-1.187,2.028c-0.258,0.458-0.541,0.712-1.121,0.712
	c-0.465,0-0.83-0.321-0.83-0.84c0-0.386,0.075-0.774,0.142-1.158l0.618-3.097h18.033l0.613,3.097
	c0.07,0.384,0.146,0.772,0.146,1.158c0,0.519-0.361,0.84-0.83,0.84c-0.578,0-0.873-0.254-1.121-0.712l-1.185-2.028
	c-0.177-0.29-0.37-0.417-0.797-0.417h-4.118v18.631c0,0.578,0.259,0.773,0.55,0.833l1.507,0.39c0.473,0.128,0.76,0.257,0.76,0.545
	c0,0.451-0.465,0.611-1.01,0.611h-7.064c-0.545,0-1.015-0.16-1.015-0.611c0-0.288,0.288-0.417,0.758-0.545l1.519-0.39
	c0.281-0.06,0.535-0.254,0.535-0.833V5.193z"/>
<path fill="#FFC000" d="M424.243,21.404c-0.033-0.228-0.033-0.52-0.033-0.71c0-0.58,0.214-0.873,0.754-0.873
	c0.545,0,0.718,0.388,0.973,0.873l1.3,2.453c0.505,0.997,1.373,1.51,3.682,1.51c2.486,0,4.864-1.643,4.864-4.253
	c0-1.355-1.224-2.708-2.378-3.321l-5.052-2.706c-2.416-1.287-3.782-2.931-3.782-5.448c0-4.25,4.109-6.055,7.576-6.055
	c1.91,0,4.144,0.351,5.841,1.224l0.324,3.061c0.033,0.227,0.033,0.519,0.033,0.709c0,0.581-0.391,0.87-0.863,0.87
	c-0.507,0-0.793-0.324-1.044-0.87l-0.759-1.71c-0.437-0.934-1.734-1.353-3.393-1.353c-2.235,0-4.474,1.165-4.474,3.387
	c0,1.32,1.01,2.673,2.632,3.512l4.982,2.545c2.269,1.16,3.823,3.032,3.823,5.512c0,3.514-3.72,6.833-8.294,6.833
	c-2.023,0-4.406-0.323-6.138-1.289L424.243,21.404z"/>
<path fill="#FFC000" d="M464.307,24.347c-1.897,1.437-3.498,2.183-5.945,2.183c-3.728,0-7.554-2.342-7.554-6.022
	c0-3.326,2.88-5.867,5.551-7.724c-1.357-1.853-2.123-3.256-2.123-4.95c0-2.574,1.972-4.819,5.331-4.819
	c2.444,0,4.669,1.365,4.669,3.91c0,1.855-1.202,3.385-4.233,5.859l5.259,7.625c0.653-1.109,1.309-2.801,1.309-4.041
	c0-0.456-0.403-0.683-0.91-0.846l-1.094-0.292c-0.44-0.098-0.695-0.262-0.695-0.688c0-0.485,0.403-0.485,1.209-0.485h5.617
	c0.474,0,0.727,0.066,0.727,0.584c0,0.327-0.47,0.491-0.76,0.588l-1.574,0.521c-0.257,0.095-0.285,0.294-0.332,0.519
	c-0.14,1.179-0.361,2.212-0.688,3.029c-0.361,0.976-0.91,2.023-1.523,2.931l1.305,1.988c0.219,0.323,0.438,0.523,0.874,0.618
	l1.461,0.394c0.365,0.094,0.441,0.293,0.441,0.554c0,0.294-0.215,0.418-0.622,0.418h-4.308L464.307,24.347z M457.593,14.705
	c-1.708,1.14-3.72,3.424-3.72,5.508c0,2.411,2.221,4.168,4.787,4.168c1.665,0,3.277-0.584,4.483-1.66L457.593,14.705z
	 M458.765,11.059c2.367-2.081,3.064-2.996,3.064-4.039c0-1.236-1.021-2.248-2.409-2.248c-1.462,0-2.553,1.077-2.553,2.377
	C456.867,8.195,457.157,9.04,458.765,11.059z"/>
<path fill="#FFC000" d="M477.989,20.811c-0.044-0.255-0.044-0.573-0.044-0.793c0-0.657,0.239-0.976,0.851-0.976
	c0.61,0,0.816,0.432,1.096,0.976l1.452,2.75c0.578,1.122,1.55,1.702,4.145,1.702c2.797,0,5.476-1.851,5.476-4.782
	c0-1.519-1.384-3.038-2.679-3.726l-5.679-3.043c-2.715-1.445-4.257-3.292-4.257-6.115c0-4.778,4.622-6.804,8.512-6.804
	c2.154,0,4.668,0.398,6.571,1.374l0.361,3.439c0.05,0.251,0.05,0.579,0.05,0.797c0,0.65-0.448,0.977-0.976,0.977
	c-0.564,0-0.896-0.36-1.179-0.977l-0.847-1.915c-0.49-1.055-1.946-1.524-3.815-1.524c-2.511,0-5.024,1.3-5.024,3.803
	c0,1.482,1.13,3.004,2.961,3.944l5.592,2.858c2.558,1.306,4.298,3.401,4.298,6.19c0,3.946-4.178,7.674-9.329,7.674
	c-2.266,0-4.94-0.359-6.887-1.445L477.989,20.811z"/>
<path fill="#FFC000" d="M517.79,24.206c-2.633,1.811-5.447,2.386-8.299,2.386c-7.572,0-12.04-5.287-12.04-11.861
	c0-6.35,4.758-11.858,12.699-11.858c3.169,0,5.405,0.643,7.783,2.154v3.967c0,0.71-0.429,1.13-0.933,1.13
	c-0.686,0-1.051-0.166-1.403-1.068l-1.129-2.834c-0.353-0.901-2.411-1.418-4.318-1.418c-4.877,0-8.809,3.416-8.809,9.927
	c0,6.417,3.325,9.926,8.149,9.926c2.425,0,4.296-0.708,4.77-1.735l1.512-3.198c0.178-0.354,0.509-0.639,1.008-0.639
	c0.619,0,1.01,0.351,1.01,0.901V24.206z"/>
<path fill="#FFC000" d="M524.182,5.642c0-0.583-0.247-0.774-0.532-0.838l-1.518-0.387c-0.475-0.126-0.76-0.257-0.76-0.548
	c0-0.453,0.475-0.614,1.01-0.614h7.064c0.548,0,1.017,0.161,1.017,0.614c0,0.291-0.289,0.422-0.76,0.548l-1.514,0.387
	c-0.293,0.064-0.535,0.255-0.535,0.838v18.183c0,0.578,0.242,0.773,0.535,0.833l1.514,0.39c0.471,0.128,0.76,0.257,0.76,0.545
	c0,0.451-0.469,0.611-1.017,0.611h-7.064c-0.535,0-1.01-0.16-1.01-0.611c0-0.288,0.285-0.417,0.76-0.545l1.518-0.39
	c0.285-0.06,0.532-0.254,0.532-0.833V5.642z"/>
<path fill="#FFC000" d="M535.449,5.642c0-0.583-0.257-0.774-0.542-0.838l-1.521-0.387c-0.466-0.126-0.751-0.257-0.751-0.548
	c0-0.453,0.465-0.614,1.005-0.614h15.55l0.361,3.161c0.035,0.259,0.035,0.513,0.035,0.77c0,0.391-0.321,0.81-0.791,0.81
	c-0.294,0-0.579-0.162-0.797-0.612l-0.905-1.774c-0.14-0.256-0.36-0.417-0.756-0.417h-7.425v8.314h6.234
	c0.545,0,0.901-0.127,1.048-0.612l0.394-1.226c0.111-0.356,0.332-0.548,0.726-0.548c0.574,0,0.794,0.129,0.794,0.678v5.348
	c0,0.549-0.22,0.68-0.794,0.68c-0.394,0-0.614-0.197-0.726-0.546l-0.394-1.227c-0.146-0.485-0.503-0.61-1.048-0.61h-6.234v8.118
	c0,0.45,0.28,0.711,0.787,0.711h6.567c0.396,0,0.721-0.261,0.935-0.513l1.84-2.454c0.224-0.29,0.51-0.513,0.943-0.513
	c0.323,0,0.68,0.356,0.68,0.646c0,0.287-0.108,0.642-0.212,1.062l-1.018,3.702H533.64c-0.54,0-1.005-0.16-1.005-0.611
	c0-0.288,0.285-0.417,0.751-0.545l1.521-0.39c0.285-0.06,0.542-0.254,0.542-0.833V5.642z"/>
<path fill="#FFC000" d="M555.152,5.48c0-0.354-0.253-0.612-0.545-0.676l-1.585-0.387c-0.545-0.126-0.688-0.454-0.688-0.738
	c0-0.263,0.29-0.424,0.688-0.424h4.724l13.856,17.76h0.064V5.418c0-0.359-0.137-0.518-0.432-0.614l-1.371-0.387
	c-0.498-0.126-0.72-0.292-0.72-0.681c0-0.254,0.175-0.481,0.612-0.481h6.643c0.389,0,0.682,0.161,0.682,0.424
	c0,0.284-0.146,0.612-0.682,0.738l-1.596,0.387c-0.281,0.064-0.54,0.323-0.54,0.676v20.722h-2.203L557.817,8.096h-0.071V24.05
	c0,0.352,0.144,0.509,0.433,0.606l1.372,0.39c0.504,0.128,0.717,0.288,0.717,0.68c0,0.255-0.175,0.476-0.607,0.476h-6.638
	c-0.398,0-0.688-0.16-0.688-0.414c0-0.29,0.144-0.613,0.688-0.742l1.585-0.39c0.292-0.06,0.545-0.321,0.545-0.673V5.48z"/>
<path fill="#FFC000" d="M598.085,24.206c-2.639,1.811-5.451,2.386-8.299,2.386c-7.571,0-12.042-5.287-12.042-11.861
	c0-6.35,4.761-11.858,12.694-11.858c3.172,0,5.412,0.643,7.793,2.154v3.967c0,0.71-0.433,1.13-0.935,1.13
	c-0.688,0-1.059-0.166-1.415-1.068l-1.117-2.834c-0.361-0.901-2.411-1.418-4.326-1.418c-4.869,0-8.808,3.416-8.808,9.927
	c0,6.417,3.322,9.926,8.155,9.926c2.416,0,4.293-0.708,4.764-1.735l1.514-3.198c0.175-0.354,0.507-0.639,1.014-0.639
	c0.609,0,1.008,0.351,1.008,0.901V24.206z"/>
<path fill="#FFC000" d="M603.616,5.642c0-0.583-0.251-0.774-0.545-0.838l-1.512-0.387c-0.468-0.126-0.76-0.257-0.76-0.548
	c0-0.453,0.47-0.614,1.005-0.614h15.556l0.357,3.161c0.028,0.259,0.028,0.513,0.028,0.77c0,0.391-0.319,0.81-0.788,0.81
	c-0.286,0-0.574-0.162-0.793-0.612l-0.9-1.774c-0.151-0.256-0.361-0.417-0.76-0.417h-7.428v8.314h6.239
	c0.544,0,0.9-0.127,1.051-0.612l0.386-1.226c0.113-0.356,0.337-0.548,0.724-0.548c0.58,0,0.793,0.129,0.793,0.678v5.348
	c0,0.549-0.213,0.68-0.793,0.68c-0.387,0-0.61-0.197-0.724-0.546l-0.386-1.227c-0.15-0.485-0.507-0.61-1.051-0.61h-6.239v8.118
	c0,0.45,0.287,0.711,0.792,0.711h6.568c0.396,0,0.723-0.261,0.936-0.513l1.838-2.454c0.216-0.29,0.507-0.513,0.938-0.513
	c0.323,0,0.679,0.356,0.679,0.646c0,0.287-0.097,0.642-0.21,1.062l-1.016,3.702h-15.798c-0.535,0-1.005-0.16-1.005-0.611
	c0-0.288,0.292-0.417,0.76-0.545l1.512-0.39c0.294-0.06,0.545-0.254,0.545-0.833V5.642z"/>
<path fill="#FFC000" d="M620.645,21.404c-0.042-0.228-0.042-0.52-0.042-0.71c0-0.58,0.224-0.873,0.768-0.873
	c0.536,0,0.713,0.388,0.973,0.873l1.295,2.453c0.505,0.997,1.373,1.51,3.682,1.51c2.486,0,4.874-1.643,4.874-4.253
	c0-1.355-1.233-2.708-2.388-3.321l-5.047-2.706c-2.416-1.287-3.791-2.931-3.791-5.448c0-4.25,4.113-6.055,7.581-6.055
	c1.904,0,4.146,0.351,5.841,1.224l0.323,3.061c0.042,0.227,0.042,0.519,0.042,0.709c0,0.581-0.403,0.87-0.872,0.87
	c-0.504,0-0.789-0.324-1.041-0.87l-0.759-1.71c-0.435-0.934-1.732-1.353-3.396-1.353c-2.23,0-4.473,1.165-4.473,3.387
	c0,1.32,1.018,2.673,2.637,3.512l4.978,2.545c2.271,1.16,3.823,3.032,3.823,5.512c0,3.514-3.72,6.833-8.294,6.833
	c-2.021,0-4.397-0.323-6.138-1.289L620.645,21.404z"/>
</svg>
