<?xml version="1.0" encoding="utf-8"?>
<!-- Generator: Adobe Illustrator 15.0.2, SVG Export Plug-In  -->
<!DOCTYPE svg PUBLIC "-//W3C//DTD SVG 1.1//EN" "http://www.w3.org/Graphics/SVG/1.1/DTD/svg11.dtd" [
	<!ENTITY ns_flows "http://ns.adobe.com/Flows/1.0/">
]>
<svg version="1.1"
	 xmlns="http://www.w3.org/2000/svg" xmlns:xlink="http://www.w3.org/1999/xlink" xmlns:a="http://ns.adobe.com/AdobeSVGViewerExtensions/3.0/"
	 x="0px" y="0px" width="445px" height="46px" viewBox="-8.768 -6.646 445 46" enable-background="new -8.768 -6.646 445 46"
	 xml:space="preserve">
<defs>
</defs>
<path fill="#FFC000" d="M265.558,19.952c0.477-0.711,1.038-1.61,1.703-2.608c0.997-1.561,1.801-2.697,2.606-3.927
	c0.855-1.188,1.712-2.419,3.411-4.17h-6.391l-0.714,1.563h1.04c0.759,0,0.949,0.188,0.999,0.518c0.045,0.383,0,1.283-0.807,2.419
	l-3.933,5.732L257.69,9.246h-0.129h-4.891h-15.383l-0.481,4.786h1.899l0.189-1.091c0.05-0.618,0.285-0.902,0.903-1.328
	c0.992-0.661,3.502-0.71,5.495-0.71V28.34c0,0.805-0.048,1.32-0.285,2.036c-0.142,0.285-0.285,0.9-0.659,1.183h7.052l0.572-1.514
	h-1.044c-0.802,0-1.377-0.144-1.849-0.666c-0.232-0.235-0.28-0.81-0.28-1.423V10.902c1.042,0,4.642-0.049,5.351,0.617
	c0.954,0.898,2.319,2.886,2.319,2.886c0.469,0.793,0.997,1.656,1.514,2.465c1.368,2.133,2.266,3.695,2.985,5.453v5.687
	c0,0.802,0.043,1.65-0.242,2.367c-0.141,0.426-0.524,0.805-0.805,1.183h7.107l0.615-1.562h-1.046c-0.803,0-1.418-0.142-1.845-0.618
	c-0.232-0.283-0.283-0.81-0.283-1.466c0,0-0.096-5.308-0.05-5.974C264.701,21.281,265.086,20.663,265.558,19.952z"/>
<path fill="#FFC000" d="M220.204,18.648l-2.271-0.993c-2.275-1-4.309-2.089-4.029-4.125c0.57-3.788,8.815-4.265,8.056,0.573h2.086
	l1.04-4.455c-1.801-0.522-3.794-0.856-6.062-0.856c-4.741,0.051-9.002,2.277-8.578,6.114c0.29,2.702,2.515,4.025,5.116,5.166
	l2.328,1.042c2.606,1.183,4.731,2.228,4.685,4.549c-0.088,2.51-2.462,4.235-5.542,4.263c-4.348,0.036-5.753-1.365-5.753-1.365
	c-0.067-0.067-8.269-9.011-8.269-9.011c3.124-0.618,5.495-2.75,5.356-5.638c-0.101-3.553-4.125-4.833-7.588-4.786l-9.236,0.049
	l-0.613,1.462h0.853c0.613,0,0.996,0.098,1.32,0.527c0.527,0.521,0.623,1.944,0.623,3.412v14.118c0,1.087-0.288,1.94-0.946,2.793
	h6.535l0.57-1.562h-0.944c-1.329,0-1.71-0.711-1.71-1.799l-0.048-17.151c3.557-0.617,7.344,0.472,7.344,3.647
	c0,2.51-2.558,4.168-6.534,4.359l10.851,12.458c0,0,6.026,0.44,7.816,0.474c5.119,0.096,9.476-2.889,9.425-7.248
	C226.082,21.441,223.236,19.976,220.204,18.648z"/>
<path fill="#FFC000" d="M25.443,6.821h-2.086l0.194-0.945c0.182-1.233,0.043-2.133-0.81-3.08c-1.042-1.137-5.021-0.95-7.677-1.044
	v25.018c0,0.949,0.093,1.847,0.477,2.323c0.711,0.805,1.607,0.992,2.702,0.992h0.946l-0.567,1.612h-8.439
	c0.333-0.427,0.573-0.855,0.711-1.325c0.381-1.092,0.431-1.897,0.431-3.083l0.046-25.537c-2.705,0-6.302,0.048-7.816,1.09
	C2.697,3.505,2.323,4.026,2.22,4.974L2.036,6.25H0L0.704,0h25.922L25.443,6.821z"/>
<path fill="#FFC000" d="M48.229,31.552h-6.302c0.474-1.087,0.567-1.511,0.567-2.651v-9.334c-0.946,0.664-2.038,0.759-3.174,0.85
	c-0.996,0.05-2.177,0.096-3.267,0.144c-1.945,0.141-2.982,0.141-4.833,0.098v7.533c0,1.277,0.474,1.849,1.895,1.849h0.901
	l-0.52,1.559h-6.635c0.527-0.943,0.759-1.75,0.853-2.843c0.048-0.424,0.048-0.848,0.048-1.423V13.836
	c0-0.759,0.139-2.044-0.374-2.658c-0.386-0.377-0.812-0.377-1.523-0.377H25.06l0.613-1.518h6.021
	c-0.191,0.473-0.283,0.57-0.333,0.902c-0.091,0.616-0.141,2.223-0.141,2.937v5.354h11.274l-0.045-4.64
	c0-0.759,0.093-1.993-0.426-2.608c-0.335-0.381-0.805-0.426-1.471-0.426h-0.857l0.67-1.518h6.063
	c-0.141,0.57-0.237,0.57-0.285,0.902c-0.144,0.661-0.187,2.223-0.187,2.937v15.112c0,1.234,0.472,1.806,1.94,1.806h0.949
	L48.229,31.552z"/>
<path fill="#FFC000" d="M66.8,31.552L50.977,31.6c0.331-0.429,0.664-0.9,0.805-1.42c0.237-0.9,0.187-1.657,0.187-2.606v-12.84
	c0-0.709,0-2.511-0.328-3.127c-0.381-0.617-0.759-0.851-1.516-0.851h-0.805l0.57-1.472c0,0,15.631-0.044,16.393,0l-0.661,4.883
	h-1.993c0.096-1.187-0.096-1.898-0.757-2.561c-0.666-0.663-2.75-0.805-4.743-0.805c-1.04,0-1.703,0.045-2.649,0.237v7.488h8.954
	c-0.567,1.516-1.705,1.847-3.27,2.034c-0.664,0.05-1.329,0.098-2.086,0.141c-1.42,0.098-2.275,0.05-3.598,0.05v6.537
	c0,0.76,0.278,1.66,0.518,1.943c0.429,0.477,1.99,0.618,3.65,0.618c1.749,0,3.124,0,4.218-1.141
	c0.709-0.709,1.037-1.279,1.229-2.462h2.275L66.8,31.552z"/>
<path fill="#FFC000" d="M110.672,31.6h-7.203l-0.045-2.843c-4.93,2.558-9.667,4.407-15.114,2.843
	c-6.254-1.799-5.924-9.282-5.969-15.87c-0.048-5.07,1.274-11.228,0.378-12.889c-0.426-0.758-1.279-1.23-2.271-1.23h-0.805L80.017,0
	h7.914c-0.378,0.616-0.424,0.995-0.565,1.611c-0.429,2.084-1.279,9.475-1.231,14.831c0.043,5.876,0.469,11.177,5.59,12.65
	c4.451,1.227,8.146,0.046,11.607-2.228V5.399c0-1.278,0-2.318-0.953-3.076c-0.714-0.617-1.375-0.712-2.266-0.712h-0.474L100.013,0
	h7.912c-0.381,0.706-0.52,1.134-0.707,1.895c-0.337,1.328-0.194,2.132-0.194,3.504v20.042c0,1.612-0.048,2.982,1.281,3.933
	c0.762,0.522,1.375,0.666,2.271,0.666h0.57L110.672,31.6z"/>
<path fill="#FFC000" d="M134.218,10.99c-0.187,0.617-0.28,2.561-0.28,3.317L133.889,31.6h-2.747
	c-0.096-0.943-0.378-1.135-0.853-1.892c-0.426-0.668-0.807-1.284-1.279-1.799l-12.223-14.264v12.413c0,1.33,0.187,2.982,0.424,3.265
	c0.474,0.527,1.04,0.719,1.61,0.719l0.903,0.043l-0.524,1.516h-6.252c0.475-0.429,0.848-0.991,1.04-1.516
	c0.475-1.279,0.426-1.892,0.475-3.219l0.048-12.885c0-0.714,0-2.136-0.568-2.751c-0.333-0.381-0.807-0.472-1.468-0.472h-0.853
	l0.618-1.472h6.252c0.331,1.138,1.044,1.895,1.99,3.08l11.131,13.123V14.357c0-1.28-0.043-2.514-0.565-3.081
	c-0.335-0.381-0.808-0.521-1.471-0.521h-0.805l0.522-1.472h5.682C134.649,9.9,134.313,10.66,134.218,10.99z"/>
<path fill="#FFC000" d="M146.297,31.6h-6.963c0.239-0.378,0.57-0.759,0.714-1.135c0.285-0.757,0.331-1.281,0.331-2.086V13.024
	c0-0.703,0-1.232-0.378-1.654c-0.379-0.381-0.762-0.615-1.325-0.615h-0.762l0.52-1.472h6.355c-0.383,0.375-0.475,0.759-0.664,1.138
	c-0.29,0.617-0.29,1.754-0.29,2.939V28c0,0.616,0.146,1.184,0.338,1.469c0.47,0.472,0.896,0.572,1.703,0.572h1.037L146.297,31.6z"/>
<path fill="#FFC000" d="M166.624,15.017c-0.848,1.756-1.56,3.555-2.599,5.874c-1.715,3.792-3.463,8.247-3.559,10.855h-2.884
	c-0.335-2.039-2.232-7.16-3.981-11.469c-1.375-3.459-3.65-7.771-4.316-8.528c-0.474-0.521-0.996-0.993-1.705-0.993h-0.8l0.422-1.424
	l5.641-0.048l6.865,16.866l5.119-12.27c0.378-0.946,0.565-1.8,0.378-2.227c-0.235-0.522-0.709-0.898-1.375-0.898h-0.901l0.383-1.424
	h6.87C168.379,11.654,167.476,13.265,166.624,15.017z"/>
<path fill="#FFC000" d="M188.849,31.552L173.026,31.6c0.326-0.429,0.659-0.9,0.8-1.42c0.239-0.9,0.187-1.657,0.187-2.606v-12.84
	c0-0.709,0-2.511-0.328-3.127c-0.381-0.617-0.759-0.851-1.511-0.851h-0.81l0.565-1.472c0,0,15.636-0.044,16.393,0l-0.661,4.883
	h-1.988c0.091-1.187-0.099-1.898-0.76-2.561c-0.659-0.663-2.752-0.805-4.74-0.805c-1.04,0-1.701,0.045-2.654,0.237v7.488h8.954
	c-0.565,1.516-1.703,1.847-3.265,2.034c-0.664,0.05-1.33,0.098-2.082,0.141c-1.425,0.098-2.28,0.05-3.607,0.05v6.537
	c0,0.76,0.29,1.66,0.527,1.943c0.426,0.477,1.983,0.618,3.648,0.618c1.751,0,3.126,0,4.213-1.141
	c0.711-0.709,1.044-1.279,1.229-2.462h2.278L188.849,31.552z"/>
<path fill="#FFC000" d="M236.18,31.6h-6.963c0.232-0.378,0.567-0.759,0.709-1.135c0.285-0.757,0.333-1.281,0.333-2.086V13.024
	c0-0.703,0-1.232-0.376-1.654c-0.386-0.381-0.764-0.615-1.329-0.615h-0.759l0.52-1.472h6.353c-0.378,0.375-0.475,0.759-0.666,1.138
	c-0.28,0.617-0.28,1.754-0.28,2.939V28c0,0.616,0.137,1.184,0.328,1.469c0.47,0.472,0.9,0.572,1.708,0.572h1.042L236.18,31.6z"/>
<path fill="#FFC000" d="M304.252,19.046c0.999,5.021-1.516,10.092-6.867,11.038c-5.447,0.997-9.759-3.08-10.75-8.197
	c-0.956-5.021,1.131-10.232,6.623-11.184C298.757,9.804,303.308,13.979,304.252,19.046z M308.235,18.998
	c-0.858-6.491-6.443-10.991-14.353-9.902c-7.588,1.042-11.993,6.253-11.085,13.078c0.843,6.491,6.103,10.75,13.876,9.758
	C304.396,30.984,309.083,25.487,308.235,18.998z"/>
<path fill="#FFC000" d="M324.77,14.212h-1.991c0-0.995-0.096-1.891-0.805-2.558c-0.613-0.665-2.372-0.807-4.17-0.807
	c-1.044,0-1.708,0.049-2.656,0.238v7.486h8.911c-0.192,0.522-0.518,1.423-1.135,1.658c-0.906,0.381-2.467,0.472-4.08,0.522
	c-1.42,0.048-2.366,0.091-3.696,0v7.011c0,0.759,0.283,1.516,0.57,1.801c0.239,0.237,0.857,0.52,1.566,0.52
	c0.235,0.048,0.85-0.043,1.087-0.043c-0.237,0.8-0.469,1.559-0.469,1.559h-7.253c0.329-0.429,0.664-0.9,0.808-1.42
	c0.232-0.9,0.189-1.612,0.189-2.561V14.783c0-0.714,0.043-2.654-0.283-3.271c-0.385-0.568-0.905-0.756-1.662-0.756h-0.805
	l0.618-1.472c0,0,15.062,0.048,15.967,0L324.77,14.212z"/>
<path fill="#FFC000" d="M347.841,31.6h-8.434c0.287-0.429,0.565-0.802,0.714-1.281c0.373-1.135,0.426-1.895,0.426-3.081
	l0.048-22.264c0-0.947,0-1.804-0.622-2.509c-0.518-0.57-1.133-0.854-1.988-0.854h-0.565L337.889,0h7.588
	c-0.239,0.376-0.436,0.518-0.671,1.09c-0.429,0.993-0.518,2.702-0.518,4.454v21.174c0,0.9,0.089,1.804,0.475,2.278
	c0.714,0.805,1.609,1.044,2.697,1.044h0.948L347.841,31.6z"/>
<path fill="#FFC000" d="M369.966,19.046c0.997,5.021-1.514,10.092-6.867,11.038c-5.449,0.997-9.761-3.08-10.757-8.197
	c-0.949-5.021,1.14-10.232,6.632-11.184C364.476,9.804,369.018,13.979,369.966,19.046z M373.948,18.998
	c-0.851-6.491-6.443-10.991-14.357-9.902c-7.584,1.042-11.991,6.253-11.081,13.078c0.853,6.491,6.108,10.75,13.879,9.758
	C370.11,30.984,374.8,25.487,373.948,18.998z"/>
<path fill="#FFC000" d="M404.597,14.972c-0.848,1.703-1.606,3.555-2.601,5.828c-1.701,3.837-2.987,8.292-3.081,10.846h-2.941
	c-0.33-1.991-1.982-6.491-3.598-10.944c-0.239-0.707-0.569-1.703-0.948-2.506c-0.475,0.899-0.8,1.51-1.657,3.455
	c-1.66,3.837-2.894,7.442-2.984,9.996h-2.989c-0.326-1.991-2.221-7.152-3.981-11.416c-1.365-3.457-3.641-7.821-4.307-8.527
	c-0.475-0.523-0.992-0.946-1.705-0.946h-0.762l0.479-1.472h5.734l6.491,16.962c0.992-2.18,4.496-10.185,4.45-10.282
	c-0.8-2.181-1.705-3.836-2.086-4.262c-0.52-0.523-0.991-0.946-1.753-0.946h-0.803l0.522-1.472h5.777
	c1.799,4.785,4.546,12.416,6.017,16.675l4.69-11.697c0.376-0.95,0.805-2.227,0.569-2.655c-0.239-0.568-0.757-0.851-1.427-0.851
	h-0.796l0.427-1.472h6.864C406.399,11.606,405.456,13.217,404.597,14.972z"/>
<path fill="#FFC000" d="M416.732,21.415c-2.229,0.141-4.269,0.093-6.443-0.141l3.268-8.151L416.732,21.415z M426.582,30.041h-0.8
	c-0.76,0-1.233-0.477-1.751-1.001c-0.668-0.707-2.608-5.207-4.034-8.666c-1.703-4.312-3.504-9.241-3.83-11.277h-5.07
	c1.085,2.274-0.808,6.917-2.565,10.803c-2.033,4.594-3.22,7.296-6.486,11.701h7.205l0.417-1.559h-0.901
	c-0.658,0-1.23-0.333-1.468-0.857c-0.183-0.426,0.103-1.42,0.477-2.367l1.425-3.368h5.162c1.092,0,2.132-0.235,2.795-1.042
	l3.365,9.193h5.589L426.582,30.041z"/>
</svg>
