<?xml version="1.0" encoding="utf-8"?>
<!-- Generator: Adobe Illustrator 15.1.0, SVG Export Plug-In  -->
<!DOCTYPE svg PUBLIC "-//W3C//DTD SVG 1.1//EN" "http://www.w3.org/Graphics/SVG/1.1/DTD/svg11.dtd" [
	<!ENTITY ns_flows "http://ns.adobe.com/Flows/1.0/">
]>
<svg version="1.1"
	 xmlns="http://www.w3.org/2000/svg" xmlns:xlink="http://www.w3.org/1999/xlink" xmlns:a="http://ns.adobe.com/AdobeSVGViewerExtensions/3.0/"
	 x="0px" y="0px" width="281px" height="39px" viewBox="0 0 281 39" enable-background="new 0 0 281 39" xml:space="preserve">
<defs>
</defs>
<path fill="#FFFFFF" d="M33.313,29.325l-3.501-4.453c-0.088-0.112-0.25-0.129-0.366-0.039l-0.604,0.476
	c-0.115,0.09-0.137,0.251-0.049,0.365l3.502,4.453c0.085,0.109,0.25,0.127,0.365,0.039l0.604-0.476
	C33.38,29.6,33.402,29.434,33.313,29.325z"/>
<path fill="#FFFFFF" d="M36.136,24.872c-0.089-0.112-0.25-0.129-0.367-0.039l-0.605,0.476c-0.114,0.09-0.136,0.251-0.047,0.365
	l3.498,4.453c0.089,0.109,0.252,0.127,0.366,0.039l0.605-0.476c0.116-0.09,0.137-0.256,0.049-0.365L36.136,24.872z"/>
<path fill="#FFFFFF" d="M42.661,24.833l-0.604,0.476c-0.114,0.09-0.135,0.251-0.048,0.365l3.5,4.453
	c0.089,0.109,0.252,0.127,0.368,0.039l0.605-0.476c0.114-0.09,0.137-0.256,0.047-0.365l-3.499-4.453
	C42.94,24.759,42.776,24.743,42.661,24.833z"/>
<polygon fill="#FFFFFF" points="90.735,29.301 87.323,21.075 83.929,29.301 80.697,21.917 78.579,21.917 83.953,33.605 
	87.323,25.467 90.689,33.605 96.104,21.917 93.99,21.917 "/>
<path fill="#FFFFFF" d="M104.589,28.001c0,1.83-0.208,3.421-2.47,3.421c-2.248,0-2.456-1.591-2.456-3.421v-6.084H97.8v6.295
	c0,2.903,1.091,4.925,4.319,4.925c3.237,0,4.328-2.021,4.328-4.925v-6.295h-1.858V28.001z"/>
<path fill="#FFFFFF" d="M114.863,21.61c-1.35,0-2.348,0.587-3.12,1.628H111.7v-1.32h-1.856V32.83h1.856v-5.17
	c0-1.961,0.158-4.325,2.723-4.325c2.16,0,2.298,1.586,2.298,3.339v6.156h1.858v-6.472C118.58,23.797,117.885,21.61,114.863,21.61z"
	/>
<path fill="#FFFFFF" d="M130.225,23.478h-0.05c-0.887-1.167-2.274-1.868-3.736-1.868c-3.282,0-5.255,2.671-5.255,5.789
	c0,3.021,2.021,5.738,5.227,5.738c1.491,0,2.854-0.626,3.765-1.807h0.05v1.499h1.858v-19.16h-1.858V23.478z M126.666,31.422
	c-2.324,0-3.581-2.021-3.581-4.166c0-2.04,1.395-3.922,3.559-3.922c2.303,0,3.674,1.763,3.674,3.948
	C130.318,29.488,129.06,31.422,126.666,31.422z"/>
<path fill="#FFFFFF" d="M139.849,21.61c-3.428,0-5.308,2.671-5.308,5.906c0,3.139,2.095,5.621,5.348,5.621
	c2.225,0,3.993-1.115,5.039-3.063l-1.576-0.908c-0.722,1.298-1.744,2.256-3.32,2.256c-2.118,0-3.561-1.627-3.58-3.649h8.577
	C145.206,24.519,143.352,21.61,139.849,21.61z M136.545,26.195c0.229-1.586,1.712-2.86,3.323-2.86c1.625,0,2.949,1.274,3.207,2.86
	H136.545z"/>
<path fill="#FFFFFF" d="M149.396,23.104h-0.053v-1.187h-1.854V32.83h1.854v-5.454c0-1.419,0.096-4.041,2.135-4.041
	c0.488,0,0.75,0.238,1.123,0.487l0.884-1.697c-0.535-0.298-1.046-0.515-1.677-0.515C150.6,21.61,150.041,22.246,149.396,23.104z"/>
<path fill="#FFFFFF" d="M163.36,23.478h-0.048c-0.884-1.19-2.211-1.868-3.717-1.868c-3.239,0-5.274,2.746-5.274,5.812
	c0,3.043,2.016,5.716,5.203,5.716c1.466,0,2.904-0.674,3.788-1.807h0.048v1.29c0,2.466-0.63,4.582-3.511,4.582
	c-1.997,0-3.459-1.275-3.492-3.296h-1.844c0.063,3.091,2.317,5.021,5.365,5.021c1.619,0,3.205-0.635,4.218-1.93
	c1.118-1.438,1.118-2.948,1.118-4.696V21.917h-1.854V23.478z M159.801,31.422c-2.317,0-3.579-2.021-3.579-4.166
	c0-2.04,1.4-3.922,3.56-3.922c2.293,0,3.669,1.763,3.669,3.948C163.451,29.488,162.194,31.422,159.801,31.422z"/>
<path fill="#FFFFFF" d="M170.649,23.104h-0.042v-1.187h-1.858V32.83h1.858v-5.454c0-1.419,0.091-4.041,2.14-4.041
	c0.488,0,0.741,0.238,1.119,0.487l0.883-1.697c-0.539-0.298-1.051-0.515-1.676-0.515C171.868,21.61,171.3,22.246,170.649,23.104z"/>
<path fill="#FFFFFF" d="M181.39,21.61c-3.2,0-5.737,2.584-5.737,5.789c0,3.211,2.556,5.738,5.737,5.738s5.738-2.527,5.738-5.738
	C187.128,24.194,184.596,21.61,181.39,21.61z M181.39,31.422c-2.297,0-3.879-1.82-3.879-4.047c0-2.207,1.582-4.041,3.879-4.041
	c2.303,0,3.885,1.834,3.885,4.041C185.274,29.602,183.692,31.422,181.39,31.422z"/>
<path fill="#FFFFFF" d="M196.329,28.001c0,1.83-0.205,3.421-2.461,3.421c-2.25,0-2.469-1.591-2.469-3.421v-6.084h-1.85v6.295
	c0,2.903,1.09,4.925,4.318,4.925c3.234,0,4.324-2.021,4.324-4.925v-6.295h-1.863V28.001z"/>
<path fill="#FFFFFF" d="M206.608,21.61c-1.352,0-2.355,0.587-3.115,1.628h-0.049v-1.32h-1.863V32.83h1.863v-5.17
	c0-1.961,0.158-4.325,2.719-4.325c2.16,0,2.303,1.586,2.303,3.339v6.156h1.85v-6.472C210.315,23.797,209.626,21.61,206.608,21.61z"
	/>
<path fill="#FFFFFF" d="M221.968,23.478h-0.053c-0.875-1.167-2.279-1.868-3.742-1.868c-3.277,0-5.244,2.671-5.244,5.789
	c0,3.021,2.021,5.738,5.23,5.738c1.477,0,2.852-0.626,3.756-1.807h0.053v1.499h1.857v-19.16h-1.857V23.478z M218.407,31.422
	c-2.32,0-3.578-2.021-3.578-4.166c0-2.04,1.4-3.922,3.561-3.922c2.297,0,3.664,1.763,3.664,3.948
	C222.054,29.488,220.796,31.422,218.407,31.422z"/>
<path fill="#FFFFFF" d="M229.071,30.543c-0.723,0-1.301,0.572-1.301,1.278c0,0.714,0.578,1.315,1.301,1.315
	c0.721,0,1.305-0.602,1.305-1.315C230.376,31.116,229.792,30.543,229.071,30.543z"/>
<path fill="#FFFFFF" d="M238.999,31.422c-2.279,0-3.77-1.883-3.77-4.047c0-2.186,1.609-4.041,3.865-4.041
	c1.457,0,2.527,0.74,3.387,1.834h0.043v-2.466c-0.975-0.697-2.178-1.093-3.363-1.093c-3.211,0-5.838,2.512-5.838,5.766
	c0,3.306,2.508,5.762,5.809,5.762c1.305,0,2.398-0.392,3.465-1.115V29.54h-0.043C241.646,30.729,240.552,31.422,238.999,31.422z"/>
<path fill="#FFFFFF" d="M250.245,21.61c-3.207,0-5.738,2.584-5.738,5.789c0,3.211,2.551,5.738,5.738,5.738s5.742-2.527,5.742-5.738
	C255.987,24.194,253.45,21.61,250.245,21.61z M250.245,31.422c-2.309,0-3.879-1.82-3.879-4.047c0-2.207,1.57-4.041,3.879-4.041
	c2.297,0,3.879,1.834,3.879,4.041C254.124,29.602,252.542,31.422,250.245,31.422z"/>
<path fill="#FFFFFF" d="M269.364,21.61c-1.318,0-2.617,0.6-3.273,1.816c-0.582-1.139-1.742-1.816-3.023-1.816
	c-1.113,0-2.041,0.587-2.623,1.494h-0.053v-1.187h-1.848V32.83h1.848v-5.638c0-1.65,0.23-3.857,2.418-3.857
	c1.797,0,1.953,1.95,1.953,3.306v6.189h1.859v-5.778c0-1.646,0.234-3.717,2.375-3.717c1.906,0,1.996,1.748,1.996,3.162v6.333h1.863
	v-6.635C272.856,23.893,272.159,21.61,269.364,21.61z"/>
<path fill="#FFFFFF" d="M25.588,23.306c-1.622,2.911-2.549,6.251-2.549,9.801h1.308c0-3.58,1.009-6.933,2.757-9.801H25.588z"/>
<path fill="#FFFFFF" d="M43.759,13.998c10.695,0,19.398,8.584,19.398,19.14h1.308c0-11.276-9.288-20.447-20.706-20.447
	c-1.508,0-2.978,0.164-4.396,0.467c0.667,0.344,1.623,0.671,2.996,0.896C42.823,14.021,43.289,13.998,43.759,13.998z"/>
<path fill="#FFFFFF" d="M24.471,23.306l-5.892-0.007c-1.227,3.038-1.9,6.354-1.9,9.822h5.346
	C22.03,29.581,22.917,26.243,24.471,23.306z"/>
<path fill="#FFFFFF" d="M43.759,6.472c-3.422,0-6.695,0.625-9.708,1.765l4.284,4.199c1.734-0.438,3.551-0.671,5.424-0.671
	c11.967,0,21.674,9.593,21.729,21.356h5.352C70.84,18.406,58.714,6.472,43.759,6.472z"/>
<path fill="#FFFFFF" d="M51.774,21.547c0-0.832-0.16-1.028-2.363-1.912c-2.138-0.855-2.516-1.453-2.998-2.44
	c-0.068-0.138-0.142-0.286-0.226-0.447c-0.588-1.084-1.189-1.701-2.689-1.852c-1.29-0.131-2.313-0.346-3.127-0.602l0,0
	c-0.312-0.097-0.591-0.202-0.845-0.308c-0.02-0.009-0.041-0.018-0.061-0.025c-0.069-0.03-0.133-0.061-0.199-0.091
	c-0.024-0.011-0.049-0.023-0.072-0.034c-0.06-0.03-0.12-0.059-0.176-0.088c-0.024-0.014-0.045-0.026-0.067-0.037
	c-0.056-0.03-0.112-0.061-0.166-0.09c-0.009-0.005-0.016-0.011-0.025-0.016c-0.124-0.07-0.238-0.144-0.344-0.217
	c-0.217-0.15-0.396-0.299-0.538-0.438L37.52,12.6l-4.168-4.085H33.35l-7.487-7.339c-0.717-0.706-2.075-1.251-2.978-1.167
	c-0.872,0.077-2.043,0.869-2.569,1.729c-0.116,0.254-1.186,2.574-2.408,4.169c-1.308,1.714-6.366,3.255-6.581,3.32
	c-0.929,0.349-2.017,1.451-2.364,2.406c-0.067,0.269-0.747,2.922-1.958,4.55c-1.455,1.955-3.797,3.477-5.134,3.768
	c-1.077,0.234-1.811,0.832-1.868,1.522c-0.024,0.277,0.112,0.492,0.232,0.621c0.287,0.313,0.787,0.501,1.335,0.503L26.52,22.62
	h1.023l0,0l22.467,0.024C50.541,22.644,51.774,22.534,51.774,21.547z"/>
<path fill="#FFFFFF" d="M277.778,14.059c-1.611,0-2.891,1.28-2.891,2.882s1.279,2.882,2.891,2.882c1.613,0,2.889-1.28,2.889-2.882
	S279.392,14.059,277.778,14.059z M277.778,19.381c-1.314,0-2.443-1.078-2.443-2.44c0-1.361,1.129-2.44,2.443-2.44
	c1.326,0,2.455,1.079,2.455,2.44C280.233,18.303,279.104,19.381,277.778,19.381z"/>
<path fill="#FFFFFF" d="M279.196,16.179c0-0.68-0.551-0.828-1.119-0.828h-1.375v3.152h0.445v-1.459h0.529l0.945,1.459h0.535
	l-0.965-1.459C278.761,17.035,279.196,16.805,279.196,16.179z M277.677,16.603h-0.529v-0.813h0.836c0.348,0,0.773,0.062,0.773,0.382
	C278.757,16.674,278.067,16.603,277.677,16.603z"/>
</svg>
