<?xml version="1.0" encoding="utf-8"?>
<!-- Generator: Adobe Illustrator 15.0.2, SVG Export Plug-In  -->
<!DOCTYPE svg PUBLIC "-//W3C//DTD SVG 1.1//EN" "http://www.w3.org/Graphics/SVG/1.1/DTD/svg11.dtd" [
	<!ENTITY ns_flows "http://ns.adobe.com/Flows/1.0/">
]>
<svg version="1.1"
	 xmlns="http://www.w3.org/2000/svg" xmlns:xlink="http://www.w3.org/1999/xlink" xmlns:a="http://ns.adobe.com/AdobeSVGViewerExtensions/3.0/"
	 x="0px" y="0px" width="120px" height="120px" viewBox="-10.612 -13.188 120 120" enable-background="new -10.612 -13.188 120 120"
	 xml:space="preserve">
<defs>
</defs>
<path fill-rule="evenodd" clip-rule="evenodd" fill="#C6C6C6" d="M75.606,12.097c-1.003,0-1.996,0.071-2.984,0.213
	C66.976,4.615,58.063,0,48.388,0c-9.675,0-18.583,4.615-24.233,12.31c-0.988-0.142-1.981-0.213-2.987-0.213
	C9.497,12.097,0,21.595,0,33.267c0,11.671,9.497,21.17,21.168,21.17c2.589,0,5.121-0.473,7.508-1.387
	c5.472,4.772,12.434,7.435,19.711,7.435c7.287,0,14.239-2.662,19.713-7.435c2.386,0.914,4.918,1.387,7.505,1.387
	c11.673,0,21.171-9.499,21.171-21.17C96.777,21.595,87.279,12.097,75.606,12.097z M75.606,48.389c-3.237,0-6.22-1.04-8.683-2.772
	c-4.438,5.347-11.046,8.821-18.536,8.821c-7.489,0-14.098-3.474-18.535-8.821c-2.457,1.732-5.446,2.772-8.685,2.772
	c-8.351,0-15.121-6.77-15.121-15.122s6.77-15.122,15.121-15.122c2.044,0,3.983,0.417,5.754,1.149
	c4.014-7.828,12.071-13.247,21.466-13.247s17.453,5.419,21.462,13.247c1.775-0.732,3.717-1.149,5.756-1.149
	c8.353,0,15.122,6.77,15.122,15.122S83.959,48.389,75.606,48.389z"/>
<path fill-rule="evenodd" clip-rule="evenodd" fill="#C6C6C6" d="M42.528,90.729c0,3.344,2.705,6.049,6.049,6.049
	c3.343,0,6.048-2.705,6.048-6.049c0-3.343-6.048-12.096-6.048-12.096S42.528,87.385,42.528,90.729z"/>
<path fill-rule="evenodd" clip-rule="evenodd" fill="#C6C6C6" d="M66.534,84.68c0,3.344,2.706,6.049,6.047,6.049
	c3.345,0,6.051-2.705,6.051-6.049c0-3.343-6.051-12.097-6.051-12.097S66.534,81.336,66.534,84.68z"/>
<path fill-rule="evenodd" clip-rule="evenodd" fill="#C6C6C6" d="M18.145,72.583c0,3.343,2.707,6.05,6.049,6.05
	c3.343,0,6.049-2.707,6.049-6.05c0-3.343-6.049-12.098-6.049-12.098S18.145,69.24,18.145,72.583z"/>
</svg>
