<?xml version="1.0" encoding="utf-8"?>
<!-- Generator: Adobe Illustrator 15.0.2, SVG Export Plug-In  -->
<!DOCTYPE svg PUBLIC "-//W3C//DTD SVG 1.1//EN" "http://www.w3.org/Graphics/SVG/1.1/DTD/svg11.dtd" [
	<!ENTITY ns_flows "http://ns.adobe.com/Flows/1.0/">
]>
<svg version="1.1"
	 xmlns="http://www.w3.org/2000/svg" xmlns:xlink="http://www.w3.org/1999/xlink" xmlns:a="http://ns.adobe.com/AdobeSVGViewerExtensions/3.0/"
	 x="0px" y="0px" width="120px" height="120px" viewBox="-12.041 -13.425 120 120" enable-background="new -12.041 -13.425 120 120"
	 xml:space="preserve">
<defs>
</defs>
<path fill-rule="evenodd" clip-rule="evenodd" fill="#C6C6C6" d="M77.917,12.467c-1.035,0-2.057,0.074-3.076,0.218
	C69.021,4.757,59.837,0,49.867,0S30.716,4.757,24.893,12.685c-1.019-0.144-2.041-0.218-3.076-0.218C9.788,12.467,0,22.255,0,34.283
	S9.788,56.1,21.817,56.1c2.666,0,5.275-0.486,7.735-1.428c4.196,3.656,9.236,6.095,14.63,7.113L37.4,68.566l6.233,6.233L37.4,93.5
	l18.7-18.7l-6.233-6.233l2.143-6.428c6.712-0.475,13.076-3.028,18.172-7.467c2.459,0.941,5.069,1.428,7.735,1.428
	c12.028,0,21.817-9.788,21.817-21.816S89.945,12.467,77.917,12.467z M77.917,49.866c-3.335,0-6.412-1.071-8.949-2.856
	c-3.688,4.448-8.875,7.524-14.779,8.591L49.867,56.1c-7.719,0-14.528-3.578-19.101-9.09c-2.533,1.785-5.613,2.856-8.949,2.856
	c-8.607,0-15.583-6.976-15.583-15.583S13.21,18.7,21.817,18.7c2.106,0,4.103,0.431,5.928,1.185
	c4.136-8.067,12.438-13.651,22.122-13.651s17.986,5.584,22.117,13.651c1.83-0.754,3.832-1.185,5.933-1.185
	c8.607,0,15.583,6.976,15.583,15.583S86.523,49.866,77.917,49.866z"/>
</svg>
