<?xml version="1.0" encoding="utf-8"?>
<!-- Generator: Adobe Illustrator 15.0.2, SVG Export Plug-In  -->
<!DOCTYPE svg PUBLIC "-//W3C//DTD SVG 1.1//EN" "http://www.w3.org/Graphics/SVG/1.1/DTD/svg11.dtd" [
	<!ENTITY ns_flows "http://ns.adobe.com/Flows/1.0/">
]>
<svg version="1.1"
	 xmlns="http://www.w3.org/2000/svg" xmlns:xlink="http://www.w3.org/1999/xlink" xmlns:a="http://ns.adobe.com/AdobeSVGViewerExtensions/3.0/"
	 x="0px" y="0px" width="120px" height="120px" viewBox="-21.247 -19.729 120 120" enable-background="new -21.247 -19.729 120 120"
	 xml:space="preserve">
<defs>
</defs>
<path fill-rule="evenodd" clip-rule="evenodd" fill="#C6C6C6" d="M41.753,19.271c-12.396,0-22.482,10.087-22.482,22.482
	c0,12.396,10.087,22.483,22.482,22.483c12.396,0,22.482-10.087,22.482-22.483C64.236,29.358,54.149,19.271,41.753,19.271z
	 M41.753,57.813c-8.87,0-16.059-7.188-16.059-16.06c0-8.87,7.189-16.058,16.059-16.058c8.87,0,16.059,7.188,16.059,16.058
	C57.813,50.624,50.624,57.813,41.753,57.813z"/>
<path fill-rule="evenodd" clip-rule="evenodd" fill="#C6C6C6" d="M41.753,0c-1.773,0-3.212,1.438-3.212,3.212v6.424
	c0,1.772,1.438,3.211,3.212,3.211s3.211-1.439,3.211-3.211V3.212C44.965,1.438,43.527,0,41.753,0z"/>
<path fill-rule="evenodd" clip-rule="evenodd" fill="#C6C6C6" d="M41.753,70.659c-1.773,0-3.212,1.438-3.212,3.212v6.423
	c0,1.774,1.438,3.212,3.212,3.212s3.211-1.438,3.211-3.212v-6.423C44.965,72.098,43.527,70.659,41.753,70.659z"/>
<path fill-rule="evenodd" clip-rule="evenodd" fill="#C6C6C6" d="M71.274,12.228c-1.255-1.254-3.287-1.254-4.542,0l-4.541,4.542
	c-1.254,1.254-1.254,3.286,0,4.542c1.254,1.255,3.286,1.255,4.541,0l4.542-4.542C72.529,15.515,72.529,13.482,71.274,12.228z"/>
<path fill-rule="evenodd" clip-rule="evenodd" fill="#C6C6C6" d="M21.316,62.195c-1.255-1.255-3.288-1.259-4.542,0l-4.542,4.542
	c-1.254,1.254-1.254,3.287,0,4.542c1.254,1.254,3.287,1.254,4.542,0l4.542-4.542C22.571,65.478,22.571,63.45,21.316,62.195z"/>
<path fill-rule="evenodd" clip-rule="evenodd" fill="#C6C6C6" d="M0,41.753c0,1.773,1.439,3.212,3.211,3.212h6.423
	c1.774,0,3.212-1.438,3.212-3.212c0-1.773-1.438-3.212-3.212-3.212H3.211C1.439,38.541,0,39.98,0,41.753z"/>
<path fill-rule="evenodd" clip-rule="evenodd" fill="#C6C6C6" d="M70.66,41.753c0,1.773,1.438,3.212,3.211,3.212h6.423
	c1.774,0,3.213-1.438,3.213-3.212c0-1.773-1.438-3.212-3.213-3.212h-6.423C72.098,38.541,70.66,39.98,70.66,41.753z"/>
<path fill-rule="evenodd" clip-rule="evenodd" fill="#C6C6C6" d="M12.228,12.228c-1.254,1.254-1.254,3.287,0,4.542l4.542,4.542
	c1.254,1.255,3.287,1.255,4.541,0c1.254-1.255,1.254-3.287,0-4.542l-4.541-4.542C15.516,10.974,13.483,10.974,12.228,12.228z"/>
<path fill-rule="evenodd" clip-rule="evenodd" fill="#C6C6C6" d="M62.194,62.19c-1.253,1.255-1.257,3.288,0,4.542l4.542,4.542
	c1.255,1.255,3.287,1.255,4.542,0c1.254-1.255,1.254-3.287,0-4.542l-4.542-4.542C65.477,60.936,63.449,60.936,62.194,62.19z"/>
</svg>
