<?xml version="1.0" encoding="utf-8"?>
<!-- Generator: Adobe Illustrator 15.0.2, SVG Export Plug-In  -->
<!DOCTYPE svg PUBLIC "-//W3C//DTD SVG 1.1//EN" "http://www.w3.org/Graphics/SVG/1.1/DTD/svg11.dtd" [
	<!ENTITY ns_flows "http://ns.adobe.com/Flows/1.0/">
]>
<svg version="1.1"
	 xmlns="http://www.w3.org/2000/svg" xmlns:xlink="http://www.w3.org/1999/xlink" xmlns:a="http://ns.adobe.com/AdobeSVGViewerExtensions/3.0/"
	 x="0px" y="0px" width="120px" height="120px" viewBox="-9.354 -21.168 120 120" enable-background="new -9.354 -21.168 120 120"
	 xml:space="preserve">
<defs>
</defs>
<path fill-rule="evenodd" clip-rule="evenodd" fill="#C6C6C6" d="M80.296,12.846c-1.066,0-2.121,0.078-3.17,0.227
	C71.129,4.902,61.663,0,51.389,0C41.113,0,31.654,4.902,25.652,13.072c-1.049-0.148-2.104-0.227-3.17-0.227
	C10.088,12.846,0,22.934,0,35.33c0,12.395,10.088,22.479,22.482,22.479c2.749,0,5.437-0.498,7.972-1.469
	c5.813,5.068,13.206,7.895,20.935,7.895c7.738,0,15.122-2.826,20.936-7.895c2.534,0.971,5.224,1.469,7.972,1.469
	c12.396,0,22.482-10.084,22.482-22.479C102.778,22.934,92.691,12.846,80.296,12.846z"/>
</svg>
