<?xml version="1.0" encoding="utf-8"?>
<!-- Generator: Adobe Illustrator 15.0.2, SVG Export Plug-In  -->
<!DOCTYPE svg PUBLIC "-//W3C//DTD SVG 1.1//EN" "http://www.w3.org/Graphics/SVG/1.1/DTD/svg11.dtd" [
	<!ENTITY ns_flows "http://ns.adobe.com/Flows/1.0/">
]>
<svg version="1.1"
	 xmlns="http://www.w3.org/2000/svg" xmlns:xlink="http://www.w3.org/1999/xlink" xmlns:a="http://ns.adobe.com/AdobeSVGViewerExtensions/3.0/"
	 x="0px" y="0px" width="120px" height="120px" viewBox="-10 -10 120 120" enable-background="new -10 -10 120 120"
	 xml:space="preserve">
<defs>
</defs>
<path fill="#C6C6C6" d="M98,25.809c0-9.407-7.656-17.06-17.067-17.06c-0.458,0-0.913,0.016-1.368,0.052
	C75.139,3.282,68.468,0,61.25,0c-7.213,0-13.889,3.282-18.315,8.801c-0.455-0.036-0.914-0.052-1.376-0.052
	c-9.403,0-17.059,7.652-17.059,17.06c0,0.984,0.131,1.937,0.287,2.878c-0.104,0.136-0.227,0.26-0.327,0.398
	c-1-0.143-2.005-0.214-3.022-0.214C9.618,28.871,0,38.488,0,50.309c0,11.818,9.618,21.438,21.438,21.438
	c2.62,0,5.184-0.479,7.601-1.404c3.513,3.063,7.676,5.156,12.099,6.356l-4.387,2.927l6.125,6.125L36.75,98l18.375-12.25L49,79.625
	l0.921-1.834c7.034-0.216,13.733-2.819,19.041-7.449c2.417,0.926,4.981,1.404,7.601,1.404C88.382,71.746,98,62.127,98,50.309
	c0-4.914-1.73-9.396-4.53-13.016C96.262,34.253,98,30.246,98,25.809z"/>
</svg>
