<?xml version="1.0" encoding="utf-8"?>
<!-- Generator: Adobe Illustrator 15.0.2, SVG Export Plug-In  -->
<!DOCTYPE svg PUBLIC "-//W3C//DTD SVG 1.1//EN" "http://www.w3.org/Graphics/SVG/1.1/DTD/svg11.dtd" [
	<!ENTITY ns_flows "http://ns.adobe.com/Flows/1.0/">
]>
<svg version="1.1"
	 xmlns="http://www.w3.org/2000/svg" xmlns:xlink="http://www.w3.org/1999/xlink" xmlns:a="http://ns.adobe.com/AdobeSVGViewerExtensions/3.0/"
	 x="0px" y="0px" width="120px" height="120px" viewBox="-15.598 -25.308 120 120" enable-background="new -15.598 -25.308 120 120"
	 xml:space="preserve">
<defs>
</defs>
<path fill-rule="evenodd" clip-rule="evenodd" fill="#C6C6C6" d="M93.142,25.695H76.757C75.139,11.283,63.019,0,48.177,0
	c-9.998,0-18.818,5.11-24.013,12.849H3.212C1.438,12.849,0,14.286,0,16.06s1.438,3.212,3.212,3.212h17.834
	c-0.729,2.05-1.201,4.193-1.45,6.424h-9.96c-1.773,0-3.213,1.438-3.213,3.212c0,1.772,1.439,3.211,3.213,3.211h9.96
	c0.249,2.225,0.722,4.379,1.45,6.424H3.797C1.698,38.542,0,39.979,0,41.753s1.698,3.213,3.797,3.213h20.367
	c5.194,7.74,14.015,12.846,24.013,12.846c9.999,0,18.818-5.105,24.013-12.846h7.52c2.1,0,3.798-1.439,3.798-3.213
	s-1.698-3.211-3.798-3.211H75.31c0.729-2.045,1.196-4.199,1.447-6.424h16.385c1.772,0,3.212-1.438,3.212-3.211
	C96.354,27.134,94.914,25.695,93.142,25.695z M27.948,19.271h20.229c1.774,0,3.213-1.438,3.213-3.212s-1.438-3.211-3.213-3.211
	H32.492c4.054-3.961,9.579-6.426,15.685-6.426c11.301,0,20.584,8.406,22.157,19.272H26.021
	C26.348,23.424,26.993,21.271,27.948,19.271z M48.177,51.389c-6.105,0-11.631-2.467-15.685-6.423h31.366
	C59.808,48.922,54.281,51.389,48.177,51.389z M68.401,38.542H27.948c-0.955-1.998-1.601-4.152-1.928-6.424h44.313
	C70.007,34.39,69.363,36.544,68.401,38.542z"/>
</svg>
