<?xml version="1.0" encoding="utf-8"?>
<!-- Generator: Adobe Illustrator 15.0.2, SVG Export Plug-In  -->
<!DOCTYPE svg PUBLIC "-//W3C//DTD SVG 1.1//EN" "http://www.w3.org/Graphics/SVG/1.1/DTD/svg11.dtd" [
	<!ENTITY ns_flows "http://ns.adobe.com/Flows/1.0/">
]>
<svg version="1.1"
	 xmlns="http://www.w3.org/2000/svg" xmlns:xlink="http://www.w3.org/1999/xlink" xmlns:a="http://ns.adobe.com/AdobeSVGViewerExtensions/3.0/"
	 x="0px" y="0px" width="120px" height="120px" viewBox="-10 -12 120 120" enable-background="new -10 -12 120 120"
	 xml:space="preserve">
<defs>
</defs>
<path fill-rule="evenodd" clip-rule="evenodd" fill="#C6C6C6" d="M61.77,84.058l-3.41-1.965c0.103-0.593,0.182-1.196,0.182-1.824
	c0-0.627-0.079-1.231-0.189-1.823l3.418-1.97c1.595-0.931,2.14-2.979,1.224-4.566c-0.924-1.606-2.968-2.155-4.57-1.231l-3.446,1.989
	c-0.923-0.785-1.965-1.401-3.126-1.819v-3.959c0-1.851-1.504-3.351-3.351-3.351c-1.848,0-3.347,1.5-3.347,3.351v3.955
	c-1.161,0.414-2.207,1.038-3.13,1.823l-3.438-1.989c-1.606-0.924-3.654-0.379-4.578,1.228c-0.924,1.595-0.367,3.647,1.231,4.57
	l3.402,1.966c-0.11,0.596-0.182,1.2-0.182,1.827c0,0.628,0.071,1.231,0.182,1.824l-3.402,1.965
	c-1.603,0.924-2.155,2.984-1.231,4.583s2.972,2.143,4.57,1.22l3.442-1.978c0.923,0.781,1.969,1.396,3.134,1.812v3.967
	c0,1.847,1.499,3.339,3.347,3.339c1.847,0,3.351-1.492,3.351-3.339v-3.967c1.161-0.415,2.215-1.03,3.13-1.823l3.442,1.989
	c1.603,0.923,3.646,0.379,4.57-1.22S63.372,84.993,61.77,84.058z M48.5,83.62c-1.848,0-3.351-1.504-3.351-3.352
	c0-1.847,1.503-3.343,3.351-3.343c1.847,0,3.347,1.496,3.347,3.343C51.847,82.116,50.347,83.62,48.5,83.62z"/>
<path fill-rule="evenodd" clip-rule="evenodd" fill="#C6C6C6" d="M75.781,12.125c-1.007,0-2.001,0.071-2.992,0.213
	C67.13,4.626,58.197,0,48.5,0S29.874,4.626,24.211,12.338c-0.991-0.142-1.985-0.213-2.992-0.213C9.52,12.125,0,21.645,0,33.344
	s9.52,21.219,21.219,21.219c2.593,0,5.131-0.474,7.522-1.39c5.486,4.784,12.465,7.452,19.759,7.452
	c7.302,0,14.272-2.668,19.759-7.452c2.392,0.916,4.93,1.39,7.522,1.39C87.479,54.563,97,45.043,97,33.344
	S87.479,12.125,75.781,12.125z"/>
</svg>
