<?xml version="1.0" encoding="utf-8"?>
<!-- Generator: Adobe Illustrator 15.0.2, SVG Export Plug-In  -->
<!DOCTYPE svg PUBLIC "-//W3C//DTD SVG 1.1//EN" "http://www.w3.org/Graphics/SVG/1.1/DTD/svg11.dtd" [
	<!ENTITY ns_flows "http://ns.adobe.com/Flows/1.0/">
]>
<svg version="1.1"
	 xmlns="http://www.w3.org/2000/svg" xmlns:xlink="http://www.w3.org/1999/xlink" xmlns:a="http://ns.adobe.com/AdobeSVGViewerExtensions/3.0/"
	 x="0px" y="0px" width="120px" height="120px" viewBox="-13 -18.639 120 120" enable-background="new -13 -18.639 120 120"
	 xml:space="preserve">
<defs>
</defs>
<path fill="#C6C6C6" d="M72.227,37.081c0.81-0.603,1.629-1.193,2.362-1.927c2.193-2.196,3.863-4.87,4.946-7.944
	c0.346-0.962,0.101-2.041-0.626-2.761c-0.723-0.726-1.795-0.972-2.76-0.629c-5.876,2.075-12.233,0.664-16.584-3.693
	c-4.358-4.358-5.776-10.712-3.694-16.585c0.339-0.965,0.097-2.037-0.629-2.764c-0.719-0.719-1.795-0.968-2.76-0.629
	c-3.078,1.093-5.748,2.76-7.941,4.952c-5.568,5.563-7.301,13.447-5.392,20.552c-7.18,0.917-13.634,4.731-17.933,10.591
	c-0.868-0.125-1.74-0.188-2.622-0.188C8.342,36.057,0,44.399,0,54.65c0,10.252,8.342,18.594,18.594,18.594
	c2.272,0,4.496-0.415,6.592-1.217c4.808,4.191,10.922,6.529,17.314,6.529c6.398,0,12.506-2.338,17.314-6.529
	c2.096,0.802,4.32,1.217,6.592,1.217C76.658,73.244,85,64.902,85,54.65C85,46.443,79.618,39.54,72.227,37.081z M48.297,8.858
	c0.422-0.429,0.875-0.827,1.352-1.2c-0.374,5.973,1.781,11.85,6.16,16.225c4.378,4.379,10.255,6.529,16.228,6.159
	c-2.29,2.92-5.444,4.735-8.82,5.51c-4.544-5.769-11.223-9.4-18.587-9.992C42.593,19.922,43.787,13.368,48.297,8.858z"/>
</svg>
