<?xml version="1.0" encoding="utf-8"?>
<!-- Generator: Adobe Illustrator 15.0.2, SVG Export Plug-In  -->
<!DOCTYPE svg PUBLIC "-//W3C//DTD SVG 1.1//EN" "http://www.w3.org/Graphics/SVG/1.1/DTD/svg11.dtd" [
	<!ENTITY ns_flows "http://ns.adobe.com/Flows/1.0/">
]>
<svg version="1.1"
	 xmlns="http://www.w3.org/2000/svg" xmlns:xlink="http://www.w3.org/1999/xlink" xmlns:a="http://ns.adobe.com/AdobeSVGViewerExtensions/3.0/"
	 x="0px" y="0px" width="120px" height="120px" viewBox="-10 -10 120 120" enable-background="new -10 -10 120 120"
	 xml:space="preserve">
<defs>
</defs>
<path fill="#C6C6C6" d="M77.344,12.125c-1.027,0-2.042,0.071-3.054,0.214C68.514,4.626,59.397,0,49.5,0S30.49,4.626,24.71,12.339
	c-1.011-0.143-2.026-0.214-3.054-0.214C9.716,12.125,0,21.646,0,33.344s9.716,21.219,21.656,21.219c2.646,0,5.237-0.474,7.678-1.389
	c5.6,4.784,12.722,7.451,20.166,7.451c7.452,0,14.566-2.667,20.166-7.451c2.441,0.915,5.031,1.389,7.678,1.389
	C89.284,54.563,99,45.042,99,33.344S89.284,12.125,77.344,12.125z"/>
<path fill="#C6C6C6" d="M18.563,60.625c-3.42,0-6.188,2.711-6.188,6.063s2.768,6.063,6.188,6.063s6.188-2.711,6.188-6.063
	S21.982,60.625,18.563,60.625z"/>
<path fill="#C6C6C6" d="M49.5,66.688c-3.42,0-6.188,2.711-6.188,6.063s2.768,6.063,6.188,6.063s6.188-2.711,6.188-6.063
	S52.92,66.688,49.5,66.688z"/>
<path fill="#C6C6C6" d="M80.438,60.625c-3.42,0-6.188,2.711-6.188,6.063s2.768,6.063,6.188,6.063s6.188-2.711,6.188-6.063
	S83.857,60.625,80.438,60.625z"/>
<path fill="#C6C6C6" d="M68.063,84.875c-3.42,0-6.188,2.711-6.188,6.063S64.643,97,68.063,97s6.188-2.711,6.188-6.063
	S71.482,84.875,68.063,84.875z"/>
<path fill="#C6C6C6" d="M30.938,84.875c-3.42,0-6.188,2.711-6.188,6.063S27.518,97,30.938,97s6.188-2.711,6.188-6.063
	S34.357,84.875,30.938,84.875z"/>
</svg>
