<?xml version="1.0" encoding="utf-8"?>
<!-- Generator: Adobe Illustrator 15.0.2, SVG Export Plug-In  -->
<!DOCTYPE svg PUBLIC "-//W3C//DTD SVG 1.1//EN" "http://www.w3.org/Graphics/SVG/1.1/DTD/svg11.dtd" [
	<!ENTITY ns_flows "http://ns.adobe.com/Flows/1.0/">
]>
<svg version="1.1"
	 xmlns="http://www.w3.org/2000/svg" xmlns:xlink="http://www.w3.org/1999/xlink" xmlns:a="http://ns.adobe.com/AdobeSVGViewerExtensions/3.0/"
	 x="0px" y="0px" width="120px" height="120px" viewBox="-6.813 -16.73 120 120" enable-background="new -6.813 -16.73 120 120"
	 xml:space="preserve">
<defs>
</defs>
<path fill="#C6C6C6" d="M102.777,27.068c0-9.869-8.028-17.896-17.898-17.896c-0.481,0-0.958,0.021-1.435,0.061
	C78.803,3.439,71.804,0,64.236,0C56.67,0,49.67,3.439,45.029,9.232c-0.479-0.039-0.96-0.061-1.444-0.061
	c-9.862,0-17.891,8.027-17.891,17.896c0,1.031,0.138,2.027,0.302,3.02c-0.11,0.141-0.239,0.27-0.344,0.416
	c-1.052-0.152-2.103-0.227-3.17-0.227C10.087,30.277,0,40.363,0,52.762c0,12.395,10.087,22.48,22.482,22.48
	c2.748,0,5.437-0.498,7.972-1.469c5.813,5.066,13.207,7.893,20.935,7.893c7.736,0,15.123-2.826,20.937-7.893
	c2.533,0.971,5.223,1.469,7.971,1.469c12.395,0,22.481-10.086,22.481-22.48c0-5.158-1.813-9.854-4.75-13.65
	C100.956,35.92,102.777,31.717,102.777,27.068z M80.296,68.82c-3.438,0-6.607-1.105-9.222-2.943
	c-4.713,5.68-11.73,9.365-19.686,9.365c-7.953,0-14.971-3.686-19.684-9.365c-2.61,1.838-5.785,2.943-9.223,2.943
	c-8.871,0-16.06-7.188-16.06-16.059s7.188-16.059,16.06-16.059c2.17,0,4.228,0.438,6.11,1.215c0.113-0.213,0.251-0.4,0.364-0.604
	c1.129-2.063,2.521-3.953,4.149-5.631c4.633-4.803,11.074-7.828,18.282-7.828c9.978,0,18.535,5.756,22.793,14.063
	c1.133-0.463,2.342-0.764,3.588-0.965l2.526-0.25c2.476,0,4.791,0.611,6.889,1.604c2.27,1.09,4.219,2.686,5.75,4.654
	c2.106,2.717,3.42,6.094,3.42,9.801C96.354,61.633,89.165,68.82,80.296,68.82z M93.456,34.621c-3.708-2.703-8.23-4.344-13.16-4.344
	c-1.067,0-2.12,0.074-3.171,0.227c-5.997-8.172-15.46-13.072-25.736-13.072c-6.849,0-13.31,2.217-18.655,6.088
	c1.502-4.586,5.766-7.924,10.852-7.924c1.556,0,3.024,0.313,4.368,0.871C51,10.531,57.11,6.426,64.236,6.426
	s13.24,4.105,16.275,10.041c1.353-0.559,2.83-0.871,4.367-0.871c6.339,0,11.476,5.135,11.476,11.473
	C96.354,29.973,95.237,32.594,93.456,34.621z"/>
</svg>
