<?xml version="1.0" encoding="utf-8"?>
<!-- Generator: Adobe Illustrator 15.0.2, SVG Export Plug-In  -->
<!DOCTYPE svg PUBLIC "-//W3C//DTD SVG 1.1//EN" "http://www.w3.org/Graphics/SVG/1.1/DTD/svg11.dtd" [
	<!ENTITY ns_flows "http://ns.adobe.com/Flows/1.0/">
]>
<svg version="1.1"
	 xmlns="http://www.w3.org/2000/svg" xmlns:xlink="http://www.w3.org/1999/xlink" xmlns:a="http://ns.adobe.com/AdobeSVGViewerExtensions/3.0/"
	 x="0px" y="0px" width="120px" height="120px" viewBox="-8.613 -6.458 120 120" enable-background="new -8.613 -6.458 120 120"
	 xml:space="preserve">
<defs>
</defs>
<path fill="#C6C6C6" d="M41.751,12.847c1.773,0,3.213-1.438,3.213-3.211V3.212C44.964,1.439,43.524,0,41.751,0
	c-1.771,0-3.211,1.439-3.211,3.212v6.424C38.54,11.409,39.979,12.847,41.751,12.847z"/>
<path fill="#C6C6C6" d="M66.731,21.312l4.541-4.542c1.255-1.255,1.255-3.287,0-4.542c-1.254-1.254-3.288-1.254-4.541,0l-4.543,4.542
	c-1.253,1.254-1.253,3.287,0,4.542C63.444,22.566,65.477,22.566,66.731,21.312z"/>
<path fill="#C6C6C6" d="M3.211,44.965h6.422c1.774,0,3.212-1.439,3.212-3.212c0-1.773-1.438-3.211-3.212-3.211H3.211
	C1.438,38.542,0,39.98,0,41.753C0,43.526,1.438,44.965,3.211,44.965z"/>
<path fill="#C6C6C6" d="M70.657,41.753c0,1.773,1.439,3.212,3.213,3.212h6.424c1.773,0,3.211-1.439,3.211-3.212
	c0-1.773-1.438-3.211-3.211-3.211H73.87C72.097,38.542,70.657,39.98,70.657,41.753z"/>
<path fill="#C6C6C6" d="M16.771,21.312c1.253,1.254,3.284,1.254,4.541,0c1.254-1.255,1.254-3.288,0-4.542l-4.541-4.542
	c-1.257-1.254-3.288-1.254-4.544,0c-1.255,1.255-1.255,3.287,0,4.542L16.771,21.312z"/>
<path fill="#C6C6C6" d="M80.294,51.389c-1.066,0-2.121,0.075-3.17,0.226c-3.367-4.592-7.854-8.097-12.939-10.338
	c-0.261-12.169-10.201-22.006-22.434-22.006c-12.395,0-22.481,10.086-22.481,22.482c0,3.5,0.87,6.775,2.309,9.723
	C9.607,51.966,0,61.79,0,73.872c0,12.396,10.085,22.482,22.481,22.482c2.748,0,5.436-0.502,7.971-1.473
	c5.814,5.069,13.207,7.896,20.935,7.896c7.738,0,15.122-2.827,20.936-7.896c2.535,0.97,5.225,1.473,7.972,1.473
	c12.395,0,22.482-10.086,22.482-22.482C102.776,61.476,92.688,51.389,80.294,51.389z M41.751,25.693
	c7.993,0,14.567,5.856,15.8,13.501c-2.011-0.402-4.063-0.653-6.164-0.653c-9.222,0-17.765,3.978-23.763,10.689
	c-1.19-2.241-1.933-4.759-1.933-7.478C25.691,32.883,32.882,25.693,41.751,25.693z M80.294,89.93c-3.439,0-6.607-1.104-9.223-2.943
	c-4.712,5.679-11.729,9.368-19.685,9.368c-7.953,0-14.972-3.688-19.685-9.368c-2.609,1.839-5.782,2.943-9.221,2.943
	c-8.872,0-16.058-7.188-16.058-16.058c0-8.87,7.186-16.06,16.058-16.06c1.555,0,3.022,0.293,4.442,0.711
	c0.563,0.159,1.137,0.285,1.666,0.507c0.88-1.719,1.984-3.292,3.207-4.768c4.693-5.646,11.673-9.296,19.59-9.296
	c2.032,0,3.981,0.292,5.873,0.745c2.12,0.501,4.122,1.262,5.988,2.266c4.675,2.484,8.515,6.332,10.932,11.054
	c1.885-0.778,3.946-1.218,6.114-1.218c8.87,0,16.058,7.19,16.058,16.06C96.352,82.742,89.164,89.93,80.294,89.93z"/>
</svg>
