<?xml version="1.0" encoding="utf-8"?>
<!-- Generator: Adobe Illustrator 15.0.2, SVG Export Plug-In  -->
<!DOCTYPE svg PUBLIC "-//W3C//DTD SVG 1.1//EN" "http://www.w3.org/Graphics/SVG/1.1/DTD/svg11.dtd" [
	<!ENTITY ns_flows "http://ns.adobe.com/Flows/1.0/">
]>
<svg version="1.1"
	 xmlns="http://www.w3.org/2000/svg" xmlns:xlink="http://www.w3.org/1999/xlink" xmlns:a="http://ns.adobe.com/AdobeSVGViewerExtensions/3.0/"
	 x="0px" y="0px" width="120px" height="120px" viewBox="-19.304 -16.066 120 120" enable-background="new -19.304 -16.066 120 120"
	 xml:space="preserve">
<defs>
</defs>
<path fill-rule="evenodd" clip-rule="evenodd" fill="#C6C6C6" d="M41.753,19.271c-12.396,0-22.482,10.087-22.482,22.482
	s10.087,22.481,22.482,22.481c12.395,0,22.483-10.086,22.483-22.481S54.148,19.271,41.753,19.271z"/>
<path fill-rule="evenodd" clip-rule="evenodd" fill="#C6C6C6" d="M41.753,0c-1.777,0-3.212,1.438-3.212,3.212v6.423
	c0,1.777,1.436,3.213,3.212,3.213c1.773,0,3.211-1.436,3.211-3.213V3.212C44.964,1.438,43.526,0,41.753,0z"/>
<path fill-rule="evenodd" clip-rule="evenodd" fill="#C6C6C6" d="M41.753,70.659c-1.777,0-3.212,1.439-3.212,3.212v6.425
	c0,1.776,1.436,3.21,3.212,3.21c1.773,0,3.211-1.434,3.211-3.21v-6.425C44.964,72.099,43.526,70.659,41.753,70.659z"/>
<path fill-rule="evenodd" clip-rule="evenodd" fill="#C6C6C6" d="M71.27,12.229c-1.254-1.255-3.287-1.255-4.542,0l-4.542,4.541
	c-1.254,1.255-1.254,3.287,0,4.542s3.287,1.255,4.542,0l4.542-4.542C72.524,15.516,72.524,13.483,71.27,12.229z"/>
<path fill-rule="evenodd" clip-rule="evenodd" fill="#C6C6C6" d="M21.312,62.199c-1.254-1.254-3.288-1.264-4.542,0l-4.542,4.542
	c-1.254,1.255-1.254,3.286,0,4.542c1.254,1.254,3.287,1.254,4.542,0l4.542-4.542C22.565,65.478,22.565,63.453,21.312,62.199z"/>
<path fill-rule="evenodd" clip-rule="evenodd" fill="#C6C6C6" d="M0,41.754c0,1.777,1.434,3.211,3.211,3.211h6.423
	c1.774,0,3.212-1.434,3.212-3.211c0-1.773-1.438-3.212-3.212-3.212H3.211C1.434,38.542,0,39.98,0,41.754z"/>
<path fill-rule="evenodd" clip-rule="evenodd" fill="#C6C6C6" d="M70.659,41.754c0,1.777,1.435,3.211,3.211,3.211h6.424
	c1.773,0,3.211-1.434,3.211-3.211c0-1.773-1.438-3.212-3.211-3.212h-6.424C72.094,38.542,70.659,39.98,70.659,41.754z"/>
<path fill-rule="evenodd" clip-rule="evenodd" fill="#C6C6C6" d="M12.224,12.229c-1.255,1.255-1.255,3.287,0,4.541l4.541,4.542
	c1.255,1.255,3.288,1.255,4.542,0s1.255-3.287,0-4.542l-4.542-4.541C15.511,10.974,13.479,10.974,12.224,12.229z"/>
<path fill-rule="evenodd" clip-rule="evenodd" fill="#C6C6C6" d="M62.195,62.191c-1.255,1.254-1.263,3.286,0,4.541l4.542,4.542
	c1.255,1.255,3.287,1.255,4.542,0c1.254-1.254,1.254-3.286,0-4.542l-4.542-4.541C65.474,60.936,63.449,60.936,62.195,62.191z"/>
</svg>
