<?xml version="1.0" encoding="utf-8"?>
<!-- Generator: Adobe Illustrator 15.0.2, SVG Export Plug-In  -->
<!DOCTYPE svg PUBLIC "-//W3C//DTD SVG 1.1//EN" "http://www.w3.org/Graphics/SVG/1.1/DTD/svg11.dtd" [
	<!ENTITY ns_flows "http://ns.adobe.com/Flows/1.0/">
]>
<svg version="1.1"
	 xmlns="http://www.w3.org/2000/svg" xmlns:xlink="http://www.w3.org/1999/xlink" xmlns:a="http://ns.adobe.com/AdobeSVGViewerExtensions/3.0/"
	 x="0px" y="0px" width="120px" height="120px" viewBox="-8.258 -9.469 120 120" enable-background="new -8.258 -9.469 120 120"
	 xml:space="preserve">
<defs>
</defs>
<path fill="#C6C6C6" d="M80.295,12.846c-1.066,0-2.12,0.076-3.17,0.227C71.129,4.902,61.664,0,51.389,0S31.654,4.902,25.653,13.072
	c-1.05-0.15-2.104-0.227-3.17-0.227C10.088,12.846,0,22.934,0,35.33c0,12.395,10.088,22.482,22.483,22.482
	c2.747,0,5.437-0.506,7.971-1.473c5.813,5.068,13.206,7.895,20.935,7.895c7.738,0,15.123-2.826,20.936-7.895
	c2.535,0.967,5.225,1.473,7.971,1.473c12.396,0,22.482-10.088,22.482-22.482C102.777,22.934,92.69,12.846,80.295,12.846z
	 M80.295,51.389c-1.948,0-3.855-0.354-5.672-1.049l-3.612-1.387l-2.909,2.543c-4.668,4.074-10.602,6.316-16.713,6.316
	c-6.109,0-12.043-2.242-16.711-6.316l-2.911-2.543l-3.612,1.387c-1.807,0.695-3.723,1.049-5.671,1.049
	c-8.858,0-16.06-7.207-16.06-16.059c0-8.855,7.201-16.061,16.06-16.061c0.761,0,1.505,0.057,2.258,0.16l3.806,0.551l2.279-3.104
	C35.707,10.232,43.2,6.424,51.389,6.424c8.193,0,15.684,3.805,20.559,10.449l2.284,3.107l3.814-0.551
	c0.744-0.104,1.488-0.16,2.249-0.16c8.857,0,16.06,7.205,16.06,16.061C96.354,44.182,89.152,51.389,80.295,51.389z"/>
<path fill="#C6C6C6" d="M19.271,64.234c-3.55,0-6.423,2.873-6.423,6.424c0,3.553,2.873,6.424,6.423,6.424
	c3.552,0,6.425-2.871,6.425-6.424C25.695,67.107,22.822,64.234,19.271,64.234z"/>
<path fill="#C6C6C6" d="M51.389,70.658c-3.551,0-6.423,2.873-6.423,6.424c0,3.553,2.872,6.422,6.423,6.422s6.424-2.869,6.424-6.422
	C57.813,73.531,54.939,70.658,51.389,70.658z"/>
<path fill="#C6C6C6" d="M83.506,64.234c-3.549,0-6.422,2.873-6.422,6.424c0,3.553,2.873,6.424,6.422,6.424
	c3.551,0,6.426-2.871,6.426-6.424C89.932,67.107,87.057,64.234,83.506,64.234z"/>
<path fill="#C6C6C6" d="M70.66,89.928c-3.551,0-6.424,2.873-6.424,6.426c0,3.551,2.873,6.424,6.424,6.424s6.424-2.873,6.424-6.424
	C77.084,92.801,74.211,89.928,70.66,89.928z"/>
<path fill="#C6C6C6" d="M32.118,89.928c-3.55,0-6.423,2.873-6.423,6.426c0,3.551,2.873,6.424,6.423,6.424s6.425-2.873,6.425-6.424
	C38.543,92.801,35.668,89.928,32.118,89.928z"/>
</svg>
