<?xml version="1.0" encoding="utf-8"?>
<!-- Generator: Adobe Illustrator 15.0.2, SVG Export Plug-In  -->
<!DOCTYPE svg PUBLIC "-//W3C//DTD SVG 1.1//EN" "http://www.w3.org/Graphics/SVG/1.1/DTD/svg11.dtd" [
	<!ENTITY ns_flows "http://ns.adobe.com/Flows/1.0/">
]>
<svg version="1.1"
	 xmlns="http://www.w3.org/2000/svg" xmlns:xlink="http://www.w3.org/1999/xlink" xmlns:a="http://ns.adobe.com/AdobeSVGViewerExtensions/3.0/"
	 x="0px" y="0px" width="120px" height="120px" viewBox="-12.844 13.381 120 120" enable-background="new -12.844 13.381 120 120"
	 xml:space="preserve">
<defs>
</defs>
<text transform="matrix(1 0 0 1 25.3564 10.8813)" font-family="'MyriadPro-Regular'" font-size="13">cloudy</text>
<path fill-rule="evenodd" clip-rule="evenodd" fill="#C6C6C6" d="M76.875,54.741c-1.021,0-2.029,0.073-3.035,0.217
	c-5.741-7.824-14.802-12.517-24.64-12.517c-9.838,0-18.894,4.692-24.64,12.517c-1.005-0.144-2.015-0.217-3.035-0.217
	C9.657,54.741,0,64.397,0,76.266c0,11.866,9.657,21.524,21.525,21.524c2.631,0,5.205-0.48,7.631-1.409
	c5.565,4.853,12.645,7.56,20.044,7.56c7.407,0,14.478-2.707,20.043-7.56c2.426,0.929,5.001,1.409,7.631,1.409
	c11.868,0,21.525-9.658,21.525-21.524C98.4,64.397,88.743,54.741,76.875,54.741z M76.875,91.641c-3.291,0-6.326-1.058-8.829-2.819
	c-4.512,5.438-11.231,8.969-18.846,8.969c-7.616,0-14.334-3.531-18.846-8.969c-2.499,1.762-5.538,2.819-8.829,2.819
	c-8.492,0-15.375-6.884-15.375-15.375c0-8.492,6.883-15.375,15.375-15.375c2.078,0,4.047,0.423,5.85,1.169
	c4.08-7.96,12.272-13.469,21.826-13.469c9.553,0,17.745,5.509,21.821,13.469c1.806-0.746,3.779-1.169,5.854-1.169
	c8.493,0,15.375,6.883,15.375,15.375C92.25,84.757,85.368,91.641,76.875,91.641z"/>
</svg>
