<?xml version="1.0" encoding="utf-8"?>
<!-- Generator: Adobe Illustrator 15.0.2, SVG Export Plug-In  -->
<!DOCTYPE svg PUBLIC "-//W3C//DTD SVG 1.1//EN" "http://www.w3.org/Graphics/SVG/1.1/DTD/svg11.dtd" [
	<!ENTITY ns_flows "http://ns.adobe.com/Flows/1.0/">
]>
<svg version="1.1"
	 xmlns="http://www.w3.org/2000/svg" xmlns:xlink="http://www.w3.org/1999/xlink" xmlns:a="http://ns.adobe.com/AdobeSVGViewerExtensions/3.0/"
	 x="0px" y="0px" width="120px" height="120px" viewBox="-10 -10 120 120" enable-background="new -10 -10 120 120"
	 xml:space="preserve">
<defs>
</defs>
<path fill="#C6C6C6" d="M78.906,12.625c-1.049,0-2.084,0.074-3.115,0.223C69.898,4.816,60.598,0,50.5,0S31.105,4.816,25.209,12.848
	c-1.031-0.148-2.066-0.223-3.115-0.223C9.912,12.625,0,22.538,0,34.719s9.912,22.094,22.094,22.094c2.699,0,5.343-0.493,7.833-1.446
	c5.712,4.981,12.979,7.759,20.573,7.759c7.603,0,14.861-2.777,20.573-7.759c2.49,0.953,5.134,1.446,7.833,1.446
	c12.182,0,22.094-9.913,22.094-22.094S91.088,12.625,78.906,12.625z"/>
<path fill="#C6C6C6" d="M18.938,63.125c-3.488,0-6.313,2.823-6.313,6.313s2.824,6.313,6.313,6.313s6.313-2.823,6.313-6.313
	S22.426,63.125,18.938,63.125z"/>
<path fill="#C6C6C6" d="M50.5,69.438c-3.488,0-6.313,2.823-6.313,6.313s2.824,6.313,6.313,6.313s6.313-2.823,6.313-6.313
	S53.988,69.438,50.5,69.438z"/>
<path fill="#C6C6C6" d="M82.063,63.125c-3.488,0-6.313,2.823-6.313,6.313s2.824,6.313,6.313,6.313s6.313-2.823,6.313-6.313
	S85.551,63.125,82.063,63.125z"/>
<path fill="#C6C6C6" d="M69.438,88.375c-3.488,0-6.313,2.823-6.313,6.313S65.949,101,69.438,101s6.313-2.823,6.313-6.313
	S72.926,88.375,69.438,88.375z"/>
<path fill="#C6C6C6" d="M31.563,88.375c-3.488,0-6.313,2.823-6.313,6.313S28.074,101,31.563,101s6.313-2.823,6.313-6.313
	S35.051,88.375,31.563,88.375z"/>
</svg>
