<?xml version="1.0" encoding="utf-8"?>
<!-- Generator: Adobe Illustrator 15.0.2, SVG Export Plug-In  -->
<!DOCTYPE svg PUBLIC "-//W3C//DTD SVG 1.1//EN" "http://www.w3.org/Graphics/SVG/1.1/DTD/svg11.dtd" [
	<!ENTITY ns_flows "http://ns.adobe.com/Flows/1.0/">
]>
<svg version="1.1"
	 xmlns="http://www.w3.org/2000/svg" xmlns:xlink="http://www.w3.org/1999/xlink" xmlns:a="http://ns.adobe.com/AdobeSVGViewerExtensions/3.0/"
	 x="0px" y="0px" width="120px" height="120px" viewBox="-8.48 -7.934 120 120" enable-background="new -8.48 -7.934 120 120"
	 xml:space="preserve">
<defs>
</defs>
<path fill-rule="evenodd" clip-rule="evenodd" fill="#C6C6C6" d="M80.296,12.85c-1.067,0-2.12,0.074-3.171,0.223
	C71.127,4.902,61.665,0,51.389,0C41.115,0,31.654,4.902,25.652,13.072c-1.049-0.148-2.103-0.223-3.168-0.223
	C10.087,12.85,0,22.934,0,35.33c0,12.395,10.087,22.482,22.484,22.482c2.746,0,5.435-0.502,7.969-1.473
	c5.816,5.068,13.207,7.896,20.936,7.896c7.736,0,15.122-2.828,20.936-7.896c2.533,0.971,5.225,1.473,7.972,1.473
	c12.396,0,22.481-10.088,22.481-22.482C102.777,22.934,92.691,12.85,80.296,12.85z"/>
<path fill-rule="evenodd" clip-rule="evenodd" fill="#C6C6C6" d="M45.166,96.354c0,3.551,2.873,6.424,6.424,6.424
	c3.55,0,6.424-2.873,6.424-6.424c0-3.549-6.424-12.848-6.424-12.848S45.166,92.805,45.166,96.354z"/>
<path fill-rule="evenodd" clip-rule="evenodd" fill="#C6C6C6" d="M70.659,89.932c0,3.547,2.872,6.422,6.423,6.422
	c3.553,0,6.426-2.875,6.426-6.422c0-3.551-6.426-12.85-6.426-12.85S70.659,86.381,70.659,89.932z"/>
<path fill-rule="evenodd" clip-rule="evenodd" fill="#C6C6C6" d="M19.271,77.082c0,3.551,2.872,6.424,6.423,6.424
	s6.425-2.873,6.425-6.424s-6.425-12.846-6.425-12.846S19.271,73.531,19.271,77.082z"/>
</svg>
