<?xml version="1.0" encoding="utf-8"?>
<!-- Generator: Adobe Illustrator 15.0.2, SVG Export Plug-In  -->
<!DOCTYPE svg PUBLIC "-//W3C//DTD SVG 1.1//EN" "http://www.w3.org/Graphics/SVG/1.1/DTD/svg11.dtd" [
	<!ENTITY ns_flows "http://ns.adobe.com/Flows/1.0/">
]>
<svg version="1.1"
	 xmlns="http://www.w3.org/2000/svg" xmlns:xlink="http://www.w3.org/1999/xlink" xmlns:a="http://ns.adobe.com/AdobeSVGViewerExtensions/3.0/"
	 x="0px" y="0px" width="120px" height="120px" viewBox="-13 -10 120 120" enable-background="new -13 -10 120 120"
	 xml:space="preserve">
<defs>
</defs>
<path fill="#C6C6C6" d="M38.594,11.875c1.639,0,2.969-1.33,2.969-2.969V2.969C41.563,1.33,40.232,0,38.594,0
	s-2.969,1.33-2.969,2.969v5.938C35.625,10.545,36.955,11.875,38.594,11.875z"/>
<path fill="#C6C6C6" d="M61.683,19.699l4.198-4.198c1.159-1.16,1.159-3.039,0-4.198c-1.16-1.16-3.038-1.16-4.198,0l-4.198,4.198
	c-1.159,1.16-1.159,3.038,0,4.198C58.645,20.858,60.523,20.858,61.683,19.699z"/>
<path fill="#C6C6C6" d="M2.969,41.563h5.938c1.639,0,2.969-1.33,2.969-2.969s-1.33-2.969-2.969-2.969H2.969
	C1.33,35.625,0,36.955,0,38.594S1.33,41.563,2.969,41.563z"/>
<path fill="#C6C6C6" d="M65.313,38.594c0,1.639,1.33,2.969,2.969,2.969h5.938c1.639,0,2.969-1.33,2.969-2.969
	s-1.33-2.969-2.969-2.969h-5.938C66.643,35.625,65.313,36.955,65.313,38.594z"/>
<path fill="#C6C6C6" d="M15.501,19.699c1.159,1.16,3.038,1.16,4.198,0c1.159-1.16,1.159-3.038,0-4.198l-4.198-4.198
	c-1.16-1.16-3.038-1.16-4.198,0c-1.159,1.16-1.159,3.039,0,4.198L15.501,19.699z"/>
<path fill="#C6C6C6" d="M74.219,47.5c-0.985,0-1.96,0.07-2.93,0.209c-3.112-4.245-7.26-7.484-11.961-9.556
	C59.089,26.904,49.9,17.813,38.594,17.813c-11.457,0-20.781,9.324-20.781,20.781c0,3.235,0.804,6.262,2.134,8.987
	C8.883,48.034,0,57.114,0,68.281c0,11.458,9.324,20.781,20.781,20.781c2.54,0,5.025-0.464,7.368-1.361
	C33.522,92.387,40.356,95,47.5,95c7.151,0,13.978-2.613,19.351-7.298c2.343,0.897,4.828,1.361,7.368,1.361
	C85.676,89.063,95,79.739,95,68.281S85.676,47.5,74.219,47.5z M38.594,23.75c7.387,0,13.464,5.412,14.604,12.478
	c-1.859-0.371-3.758-0.603-5.698-0.603c-8.523,0-16.421,3.676-21.964,9.88c-1.102-2.072-1.786-4.399-1.786-6.912
	C23.75,30.395,30.395,23.75,38.594,23.75z"/>
</svg>
