<?xml version="1.0" encoding="utf-8"?>
<!-- Generator: Adobe Illustrator 15.0.2, SVG Export Plug-In  -->
<!DOCTYPE svg PUBLIC "-//W3C//DTD SVG 1.1//EN" "http://www.w3.org/Graphics/SVG/1.1/DTD/svg11.dtd" [
	<!ENTITY ns_flows "http://ns.adobe.com/Flows/1.0/">
]>
<svg version="1.1"
	 xmlns="http://www.w3.org/2000/svg" xmlns:xlink="http://www.w3.org/1999/xlink" xmlns:a="http://ns.adobe.com/AdobeSVGViewerExtensions/3.0/"
	 x="0px" y="0px" width="120px" height="120px" viewBox="-10 -11 120 120" enable-background="new -10 -11 120 120"
	 xml:space="preserve">
<defs>
</defs>
<path fill-rule="evenodd" clip-rule="evenodd" fill="#C6C6C6" d="M78.906,12.625c-1.048,0-2.083,0.074-3.115,0.222
	C69.898,4.816,60.598,0,50.5,0S31.106,4.816,25.209,12.847c-1.032-0.147-2.067-0.222-3.115-0.222C9.913,12.625,0,22.537,0,34.719
	s9.913,22.094,22.094,22.094c2.7,0,5.343-0.493,7.833-1.447c5.712,4.981,12.979,7.76,20.573,7.76c7.603,0,14.861-2.778,20.573-7.76
	c2.49,0.954,5.133,1.447,7.833,1.447C91.087,56.813,101,46.9,101,34.719S91.087,12.625,78.906,12.625z M78.906,50.5
	c-3.378,0-6.493-1.085-9.062-2.893c-4.631,5.58-11.527,9.205-19.344,9.205c-7.816,0-14.713-3.625-19.344-9.205
	c-2.564,1.808-5.684,2.893-9.062,2.893c-8.717,0-15.781-7.064-15.781-15.781s7.064-15.781,15.781-15.781
	c2.133,0,4.155,0.436,6.004,1.2C32.286,11.967,40.694,6.313,50.5,6.313s18.214,5.654,22.398,13.825c1.854-0.765,3.879-1.2,6.008-1.2
	c8.717,0,15.781,7.064,15.781,15.781S87.623,50.5,78.906,50.5z"/>
<path fill-rule="evenodd" clip-rule="evenodd" fill="#C6C6C6" d="M44.385,94.688c0,3.489,2.823,6.313,6.313,6.313
	s6.313-2.823,6.313-6.313s-6.313-12.625-6.313-12.625S44.385,91.198,44.385,94.688z"/>
<path fill-rule="evenodd" clip-rule="evenodd" fill="#C6C6C6" d="M69.438,88.375c0,3.489,2.823,6.313,6.313,6.313
	s6.313-2.823,6.313-6.313S75.75,75.75,75.75,75.75S69.438,84.886,69.438,88.375z"/>
<path fill-rule="evenodd" clip-rule="evenodd" fill="#C6C6C6" d="M18.938,75.75c0,3.489,2.823,6.313,6.313,6.313
	s6.313-2.823,6.313-6.313S25.25,63.125,25.25,63.125S18.938,72.261,18.938,75.75z"/>
</svg>
