<?xml version="1.0" encoding="utf-8"?>
<!-- Generator: Adobe Illustrator 15.0.2, SVG Export Plug-In  -->
<!DOCTYPE svg PUBLIC "-//W3C//DTD SVG 1.1//EN" "http://www.w3.org/Graphics/SVG/1.1/DTD/svg11.dtd" [
	<!ENTITY ns_flows "http://ns.adobe.com/Flows/1.0/">
]>
<svg version="1.1"
	 xmlns="http://www.w3.org/2000/svg" xmlns:xlink="http://www.w3.org/1999/xlink" xmlns:a="http://ns.adobe.com/AdobeSVGViewerExtensions/3.0/"
	 x="0px" y="0px" width="120px" height="120px" viewBox="-11.697 -11.124 120 120" enable-background="new -11.697 -11.124 120 120"
	 xml:space="preserve">
<defs>
</defs>
<polygon fill="#C6C6C6" points="36.625,73.25 42.729,79.354 36.625,97.667 54.938,79.354 48.834,73.25 54.938,61.042 "/>
<path fill="#C6C6C6" d="M97.667,25.72c0-9.374-7.63-17-17.009-17c-0.457,0-0.91,0.015-1.363,0.052C74.883,3.271,68.235,0,61.042,0
	C53.853,0,47.2,3.271,42.789,8.771c-0.454-0.037-0.91-0.052-1.372-0.052c-9.371,0-17,7.626-17,17c0,0.982,0.131,1.932,0.286,2.869
	c-0.104,0.136-0.227,0.259-0.326,0.398c-0.998-0.143-2-0.215-3.013-0.215C9.585,28.772,0,38.358,0,50.137
	c0,11.779,9.585,21.364,21.364,21.364c2.611,0,5.167-0.477,7.575-1.398c0.211,0.183,0.461,0.311,0.676,0.488l5.401-3.6
	c-1.8-1.275-3.482-2.695-4.889-4.388c-2.479,1.744-5.496,2.794-8.763,2.794c-8.429,0-15.26-6.827-15.26-15.261
	c0-8.425,6.831-15.261,15.26-15.261c2.063,0,4.018,0.422,5.806,1.161c0.108-0.207,0.239-0.382,0.346-0.581
	c1.073-1.959,2.397-3.75,3.943-5.349c4.403-4.558,10.523-7.439,17.375-7.439c9.482,0,17.613,5.469,21.658,13.369
	c1.077-0.445,2.225-0.731,3.409-0.922l2.401-0.239c2.352,0,4.554,0.58,6.545,1.526c2.158,1.034,4.01,2.552,5.464,4.428
	c2.003,2.578,3.251,5.785,3.251,9.307c0,8.434-6.831,15.261-15.26,15.261c-3.268,0-6.279-1.05-8.763-2.794
	c-2.671,3.219-6.187,5.639-10.138,7.166l-1.14,2.276l3.481,3.481c3.255-1.268,6.299-3.087,8.986-5.425
	c2.408,0.922,4.963,1.398,7.575,1.398c11.779,0,21.364-9.585,21.364-21.364c0-4.896-1.725-9.363-4.514-12.972
	C95.935,34.138,97.667,30.143,97.667,25.72z M88.809,32.897c-3.525-2.563-7.821-4.125-12.506-4.125
	c-1.014,0-2.015,0.072-3.013,0.215c-5.698-7.762-14.692-12.424-24.456-12.424c-6.511,0-12.65,2.111-17.729,5.791
	c1.427-4.36,5.48-7.53,10.313-7.53c1.478,0,2.874,0.297,4.149,0.826c2.898-5.644,8.704-9.546,15.476-9.546
	s12.582,3.902,15.467,9.546c1.284-0.529,2.686-0.826,4.149-0.826c6.025,0,10.905,4.879,10.905,10.896
	C91.563,28.486,90.501,30.979,88.809,32.897z"/>
</svg>
