<?xml version="1.0" encoding="utf-8"?>
<!-- Generator: Adobe Illustrator 15.1.0, SVG Export Plug-In . SVG Version: 6.00 Build 0)  -->
<!DOCTYPE svg PUBLIC "-//W3C//DTD SVG 1.1//EN" "http://www.w3.org/Graphics/SVG/1.1/DTD/svg11.dtd">
<svg version="1.1" id="Layer_1" xmlns="http://www.w3.org/2000/svg" xmlns:xlink="http://www.w3.org/1999/xlink" x="0px" y="0px"
	 width="416.744px" height="50px" viewBox="0 0 416.744 50" enable-background="new 0 0 416.744 50" xml:space="preserve">
<g>
	<path fill="#FFFFFF" d="M63.094,25.288V8.468h5.664c5.469,0,6.757,2.819,6.757,8.119c0,5.395-1.142,8.702-6.757,8.702H63.094z
		 M68.758,11.189h-2.845v11.377h2.845c3.33,0,3.816-2.505,3.816-5.98C72.574,13.135,72.088,11.189,68.758,11.189z"/>
	<path fill="#FFFFFF" d="M78.375,8.468h2.868v16.82h-2.868V8.468z"/>
	<path fill="#FFFFFF" d="M97.234,8.468l-4.06,16.82h-5.518l-4.035-16.82h2.99l3.233,14.099h1.167l3.233-14.099H97.234z"/>
	<path fill="#FFFFFF" d="M99.607,8.468h2.868v16.82h-2.868V8.468z"/>
	<path fill="#FFFFFF" d="M115.792,11.334c0,0-3.403-0.388-4.813-0.388c-1.994,0-2.99,0.633-2.99,1.994
		c0,1.434,0.827,1.798,3.646,2.601c3.5,1.021,4.74,1.968,4.74,4.91c0,3.5-2.333,5.105-5.736,5.105c-1.847,0-5.128-0.633-5.128-0.633
		l0.291-2.551c0,0,3.088,0.413,4.813,0.413c1.993,0,2.893-0.632,2.893-2.261c0-1.313-0.705-1.823-3.209-2.454
		c-3.646-0.95-5.153-2.068-5.153-5.082c0-3.209,2.212-4.813,5.834-4.813c1.872,0,5.032,0.608,5.032,0.608L115.792,11.334z"/>
	<path fill="#FFFFFF" d="M119.018,8.468h2.868v16.82h-2.868V8.468z"/>
	<path fill="#FFFFFF" d="M124.775,16.999c0-5.64,1.581-8.799,6.782-8.799c5.202,0,6.782,3.159,6.782,8.799
		c0,5.688-1.58,8.557-6.782,8.557C126.355,25.556,124.775,22.639,124.775,16.999z M135.397,16.999c0-3.914-0.753-6.053-3.841-6.053
		c-3.086,0-3.84,2.139-3.84,6.053s0.729,5.81,3.84,5.81S135.397,20.961,135.397,16.999z"/>
	<path fill="#FFFFFF" d="M141.272,8.468h4.618l5.348,13.271h0.414V8.468h2.868v16.82h-4.497l-5.494-13.271h-0.413v13.271h-2.844
		V8.468z"/>
	<path fill="#FFFFFF" d="M163.136,16.999c0-5.64,1.581-8.799,6.782-8.799c5.202,0,6.782,3.159,6.782,8.799
		c0,5.688-1.58,8.557-6.782,8.557C164.716,25.556,163.136,22.639,163.136,16.999z M173.758,16.999c0-3.914-0.753-6.053-3.84-6.053
		c-3.086,0-3.84,2.139-3.84,6.053s0.729,5.81,3.84,5.81S173.758,20.961,173.758,16.999z"/>
	<path fill="#FFFFFF" d="M179.633,8.468h10.5v2.722h-7.682v5.42h6.223v2.699h-6.223v5.98h-2.819V8.468z"/>
	<path fill="#FFFFFF" d="M200.332,8.468l2.722,13.904h0.486l2.771-13.856h3.232l2.82,13.856h0.461l2.698-13.904h2.99l-3.694,16.82
		h-4.448l-2.455-12.591l-2.407,12.591h-4.448l-3.719-16.82H200.332z"/>
	<path fill="#FFFFFF" d="M220.251,16.999c0-5.64,1.581-8.799,6.782-8.799c5.202,0,6.782,3.159,6.782,8.799
		c0,5.688-1.58,8.557-6.782,8.557C221.832,25.556,220.251,22.639,220.251,16.999z M230.874,16.999c0-3.914-0.753-6.053-3.84-6.053
		c-3.086,0-3.84,2.139-3.84,6.053s0.729,5.81,3.84,5.81S230.874,20.961,230.874,16.999z"/>
	<path fill="#FFFFFF" d="M243.335,19.551h-3.743v5.737h-2.844V8.468h6.344c3.841,0,5.688,1.579,5.688,5.42
		c0,2.528-0.923,3.987-2.649,4.837l2.649,6.563h-3.135L243.335,19.551z M243.092,11.189h-3.5v5.64h3.549
		c1.969,0,2.698-1.167,2.698-2.894C245.839,12.089,244.939,11.189,243.092,11.189z"/>
	<path fill="#FFFFFF" d="M251.737,25.288V8.468h2.844v14.074h6.514v2.747H251.737z"/>
	<path fill="#FFFFFF" d="M263.787,25.288V8.468h5.664c5.469,0,6.757,2.819,6.757,8.119c0,5.395-1.142,8.702-6.757,8.702H263.787z
		 M269.451,11.189h-2.845v11.377h2.845c3.33,0,3.815-2.505,3.815-5.98C273.266,13.135,272.781,11.189,269.451,11.189z"/>
	<path fill="#FFFFFF" d="M284.826,25.288V8.468h2.844v14.074h6.514v2.747H284.826z"/>
	<path fill="#FFFFFF" d="M299.573,8.468h5.615l3.962,16.82h-2.868l-0.924-3.307h-6.101l-0.827,3.307h-2.868L299.573,8.468z
		 M299.865,19.235h4.934l-1.871-8.144h-1.143L299.865,19.235z"/>
	<path fill="#FFFFFF" d="M311.574,8.468h4.618l5.348,13.271h0.413V8.468h2.868v16.82h-4.497l-5.494-13.271h-0.412v13.271h-2.844
		V8.468z"/>
	<path fill="#FFFFFF" d="M335.239,16.489h4.741v8.507c0,0-3.452,0.56-5.566,0.56c-5.202,0-6.686-3.111-6.686-8.702
		c0-5.883,1.63-8.654,6.588-8.654c2.553,0,5.664,0.68,5.664,0.68l-0.074,2.479c0,0-2.965-0.388-5.177-0.388
		c-3.208,0-4.06,1.434-4.06,5.883c0,4.327,0.681,5.93,3.986,5.93c1.143,0,2.48-0.17,2.504-0.17v-3.574h-1.921V16.489z"/>
	<path fill="#FFFFFF" d="M348.941,22.711c1.993,0,3.33-0.68,3.33-2.844v-11.4h2.869v11.4c0,4.035-2.164,5.638-6.199,5.638
		c-3.986,0-6.125-1.604-6.125-5.638v-11.4h2.867v11.4C345.684,22.054,346.997,22.711,348.941,22.711z"/>
	<path fill="#FFFFFF" d="M361.307,8.468h5.614l3.962,16.82h-2.868l-0.923-3.307h-6.103l-0.826,3.307h-2.868L361.307,8.468z
		 M361.597,19.235h4.935l-1.871-8.144h-1.143L361.597,19.235z"/>
	<path fill="#FFFFFF" d="M380.016,16.489h4.739v8.507c0,0-3.451,0.56-5.567,0.56c-5.202,0-6.684-3.111-6.684-8.702
		c0-5.883,1.629-8.654,6.587-8.654c2.553,0,5.664,0.68,5.664,0.68l-0.072,2.479c0,0-2.967-0.388-5.178-0.388
		c-3.209,0-4.06,1.434-4.06,5.883c0,4.327,0.681,5.93,3.985,5.93c1.143,0,2.48-0.17,2.504-0.17v-3.574h-1.919V16.489z"/>
	<path fill="#FFFFFF" d="M387.857,8.468h10.502v2.722h-7.681v4.399h6.223v2.674h-6.223v4.304h7.681v2.722h-10.502V8.468z"/>
	<path fill="#FFFFFF" d="M411.016,11.334c0,0-3.403-0.388-4.813-0.388c-1.993,0-2.99,0.633-2.99,1.994
		c0,1.434,0.827,1.798,3.646,2.601c3.501,1.021,4.739,1.968,4.739,4.91c0,3.5-2.334,5.105-5.735,5.105
		c-1.849,0-5.13-0.633-5.13-0.633l0.293-2.551c0,0,3.086,0.413,4.812,0.413c1.994,0,2.893-0.632,2.893-2.261
		c0-1.313-0.704-1.823-3.208-2.454c-3.646-0.95-5.154-2.068-5.154-5.082c0-3.209,2.214-4.813,5.835-4.813
		c1.871,0,5.03,0.608,5.03,0.608L411.016,11.334z"/>
	<path fill="#FFFFFF" d="M413.755,22.201h2.989l-1.434,6.076h-2.771L413.755,22.201z"/>
	<path fill="#FFFFFF" d="M63.094,49.49v-16.82h2.844v14.074h6.514v2.747H63.094z"/>
	<path fill="#FFFFFF" d="M75.095,32.669h2.868v16.82h-2.868V32.669z"/>
	<path fill="#FFFFFF" d="M79.588,32.669h12.153v2.747h-4.618V49.49h-2.868V35.416h-4.667V32.669z"/>
	<path fill="#FFFFFF" d="M93.413,32.669h10.501v2.722h-7.682v4.399h6.223v2.674h-6.223v4.302h7.682v2.723H93.413V32.669z"/>
	<path fill="#FFFFFF" d="M113.532,43.752h-3.743v5.737h-2.844v-16.82h6.344c3.84,0,5.688,1.579,5.688,5.42
		c0,2.529-0.923,3.987-2.649,4.837l2.649,6.563h-3.135L113.532,43.752z M113.289,35.391h-3.5v5.64h3.549
		c1.968,0,2.697-1.167,2.697-2.894C116.035,36.291,115.136,35.391,113.289,35.391z"/>
	<path fill="#FFFFFF" d="M124.631,32.669h5.615l3.963,16.82h-2.869l-0.924-3.306h-6.101l-0.826,3.306h-2.869L124.631,32.669z
		 M124.923,43.437h4.935l-1.871-8.144h-1.143L124.923,43.437z"/>
	<path fill="#FFFFFF" d="M134.565,32.669h12.154v2.747h-4.618V49.49h-2.869V35.416h-4.667V32.669z"/>
	<path fill="#FFFFFF" d="M154.248,46.914c1.993,0,3.33-0.681,3.33-2.844v-11.4h2.869v11.4c0,4.034-2.163,5.638-6.199,5.638
		c-3.987,0-6.125-1.604-6.125-5.638v-11.4h2.868v11.4C150.991,46.256,152.303,46.914,154.248,46.914z"/>
	<path fill="#FFFFFF" d="M170.501,43.752h-3.743v5.737h-2.844v-16.82h6.344c3.84,0,5.688,1.579,5.688,5.42
		c0,2.529-0.923,3.987-2.649,4.837l2.649,6.563h-3.135L170.501,43.752z M170.259,35.391h-3.5v5.64h3.549
		c1.969,0,2.698-1.167,2.698-2.894C173.005,36.291,172.106,35.391,170.259,35.391z"/>
	<path fill="#FFFFFF" d="M178.903,32.669h10.501v2.722h-7.682v4.399h6.223v2.674h-6.223v4.302h7.682v2.723h-10.501V32.669z"/>
	<path fill="#FFFFFF" d="M202.061,35.536c0,0-3.403-0.388-4.813-0.388c-1.994,0-2.99,0.632-2.99,1.993
		c0,1.434,0.827,1.798,3.646,2.601c3.5,1.021,4.74,1.969,4.74,4.91c0,3.5-2.333,5.105-5.736,5.105c-1.847,0-5.128-0.633-5.128-0.633
		l0.292-2.551c0,0,3.087,0.413,4.813,0.413c1.993,0,2.893-0.632,2.893-2.261c0-1.313-0.705-1.823-3.209-2.454
		c-3.646-0.948-5.153-2.067-5.153-5.082c0-3.209,2.212-4.813,5.834-4.813c1.872,0,5.032,0.608,5.032,0.608L202.061,35.536z"/>
	<path fill="#FFFFFF" d="M221.74,36.339c0,2.236-0.997,3.379-3.379,4.91l2.431,2.456c0.17-0.608,0.535-2.188,0.607-2.966l2.699,0.05
		c-0.219,1.531-0.729,3.549-1.143,4.667l2.844,2.674L224.122,50l-2.625-2.358c-1.677,1.581-3.087,2.333-5.664,2.333
		c-3.622,0-5.761-1.919-5.761-5.347c0-2.504,1.458-3.962,3.5-4.958c-0.997-1.288-1.239-1.993-1.239-3.549
		c0-2.431,1.798-3.889,4.691-3.889C220.111,32.232,221.74,33.69,221.74,36.339z M219.406,45.916l-4.132-4.327
		c-1.411,0.658-2.333,1.678-2.333,3.016c0,1.726,1.142,2.77,2.99,2.77C217.389,47.374,218.288,46.986,219.406,45.916z
		 M216.197,39.038l0.463,0.462c1.556-0.925,2.26-1.556,2.26-2.869c0-1.265-0.632-1.798-1.896-1.798c-1.19,0-1.896,0.51-1.896,1.676
		C215.128,37.53,215.419,38.212,216.197,39.038z"/>
	<path fill="#FFFFFF" d="M243.968,49.149c0,0-2.844,0.608-4.764,0.608c-5.081,0-6.248-2.917-6.248-8.654
		c0-6.125,1.483-8.702,6.248-8.702c2.115,0,4.789,0.656,4.789,0.656l-0.098,2.503c0,0-2.844-0.365-4.302-0.365
		c-2.941,0-3.695,1.41-3.695,5.907c0,4.279,0.583,5.858,3.792,5.858c1.313,0,4.206-0.388,4.206-0.388L243.968,49.149z"/>
	<path fill="#FFFFFF" d="M252.614,46.914c1.994,0,3.331-0.681,3.331-2.844v-11.4h2.869v11.4c0,4.034-2.164,5.638-6.199,5.638
		c-3.986,0-6.125-1.604-6.125-5.638v-11.4h2.868v11.4C249.357,46.256,250.67,46.914,252.614,46.914z"/>
	<path fill="#FFFFFF" d="M262.281,49.49v-16.82h2.844v14.074h6.514v2.747H262.281z"/>
	<path fill="#FFFFFF" d="M272.263,32.669h12.154v2.747h-4.618V49.49h-2.869V35.416h-4.667V32.669z"/>
	<path fill="#FFFFFF" d="M291.946,46.914c1.993,0,3.33-0.681,3.33-2.844v-11.4h2.868v11.4c0,4.034-2.163,5.638-6.198,5.638
		c-3.987,0-6.125-1.604-6.125-5.638v-11.4h2.868v11.4C288.688,46.256,290.001,46.914,291.946,46.914z"/>
	<path fill="#FFFFFF" d="M308.199,43.752h-3.743v5.737h-2.844v-16.82h6.345c3.84,0,5.688,1.579,5.688,5.42
		c0,2.529-0.924,3.987-2.649,4.837l2.649,6.563h-3.136L308.199,43.752z M307.957,35.391h-3.501v5.64h3.549
		c1.969,0,2.698-1.167,2.698-2.894C310.703,36.291,309.804,35.391,307.957,35.391z"/>
	<path fill="#FFFFFF" d="M316.603,32.669h10.501v2.722h-7.683v4.399h6.224v2.674h-6.224v4.302h7.683v2.723h-10.501V32.669z"/>
	<path fill="#FFFFFF" d="M339.76,35.536c0,0-3.403-0.388-4.813-0.388c-1.993,0-2.989,0.632-2.989,1.993
		c0,1.434,0.826,1.798,3.646,2.601c3.501,1.021,4.74,1.969,4.74,4.91c0,3.5-2.334,5.105-5.736,5.105
		c-1.848,0-5.129-0.633-5.129-0.633l0.291-2.551c0,0,3.088,0.413,4.813,0.413c1.993,0,2.893-0.632,2.893-2.261
		c0-1.313-0.705-1.823-3.209-2.454c-3.646-0.948-5.153-2.067-5.153-5.082c0-3.209,2.212-4.813,5.834-4.813
		c1.872,0,5.032,0.608,5.032,0.608L339.76,35.536z"/>
</g>
<g>
	<path fill="#F8C01B" d="M17.841,19.248C13.466,9.091,7.112,1.786,0,1.625v17.623H17.841z"/>
	<path fill="#F8C01B" d="M20.278,15.516c0.575,1.201,1.12,2.449,1.636,3.731H37.46C30.765,9.982,20.864,2.162,7.506,0
		C12.31,2.73,16.695,8.012,20.278,15.516z"/>
	<path fill="#F8C01B" d="M0,23.009v26.379h23.952c-0.001-8.896-1.717-18.294-4.628-26.379H0z"/>
	<path fill="#F8C01B" d="M39.962,23.009H23.299c2.809,8.285,4.414,17.676,4.415,26.377l-3.762,0.002h24.313
		C48.289,42.278,45.595,32.233,39.962,23.009z"/>
</g>
</svg>
